<?xml version="1.0" standalone="no"?>
<!DOCTYPE svg PUBLIC "-//W3C//DTD SVG 1.1//EN" "http://www.w3.org/Graphics/SVG/1.1/DTD/svg11.dtd" >
<svg xmlns="http://www.w3.org/2000/svg">
<metadata></metadata>
<defs>
<font id="metacomp-boldregular" horiz-adv-x="1167" >
<font-face units-per-em="2048" ascent="1563" descent="-485" />
<missing-glyph horiz-adv-x="460" />
<glyph unicode="&#xfb01;" horiz-adv-x="1200" d="M59 856v193h101q0 35 -5 71.5t-5 71.5q0 156 88 241t249 85q68 0 130.5 -14.5t97.5 -35.5l-88 -170q-20 10 -48 14.5t-44 4.5q-53 0 -84 -31t-31 -88v-149h627v-1049h-275v856h-350v-856h-268v856h-95zM741 1337q0 72 50.5 121t121.5 49q70 0 118 -49t48 -121t-49 -121 t-121 -49q-70 0 -119 49.5t-49 120.5z" />
<glyph unicode="&#xfb02;" horiz-adv-x="1208" d="M59 856v193h95q0 35 -5.5 71.5t-5.5 71.5q0 156 88 241t250 85q68 0 130.5 -14.5t97.5 -35.5l-88 -170q-20 10 -48 14.5t-45 4.5q-53 0 -83.5 -31t-30.5 -88v-149h252l-70 -193h-174v-856h-268v856h-95zM752 1452l280 64q8 -43 11.5 -102.5t3.5 -170.5v-817q0 -68 1 -109 t2 -65.5t5 -36.5t10 -22q16 -29 55 -29q20 0 31 4l47 -164q-74 -29 -164 -29q-88 0 -153.5 39t-89.5 105q-8 20 -12.5 38.5t-7.5 43t-4 61.5t-1 92v783q0 104 -3 173.5t-11 141.5z" />
<glyph unicode="&#xfb03;" horiz-adv-x="1818" d="M59 856v193h101q0 35 -5 71.5t-5 71.5q0 156 88 241t249 85q68 0 126.5 -15.5t121.5 -50.5l-88 -170q-45 23 -66.5 29t-45.5 6q-53 0 -84 -31t-31 -88v-149h358q0 35 -5 73.5t-5 69.5q0 156 88 241t250 85q68 0 130 -14.5t97 -35.5l-88 -170q-20 10 -48 14.5t-44 4.5 q-53 0 -84 -31t-31 -88v-149h627v-1049h-274v856h-351v-856h-268v856h-350v-856h-268v856h-95zM1360 1337q0 72 50 121t122 49q70 0 118 -49t48 -121t-49.5 -121t-120.5 -49q-70 0 -119 49.5t-49 120.5z" />
<glyph unicode="&#xfb04;" horiz-adv-x="1820" d="M59 856v193h101q0 35 -5 71.5t-5 71.5q0 156 88 241t249 85q68 0 126.5 -15.5t121.5 -50.5l-88 -170q-45 23 -66.5 29t-45.5 6q-53 0 -84 -31t-31 -88v-149h346q0 35 -5 71.5t-5 71.5q0 156 88 241t250 85q68 0 130 -14.5t97 -35.5l-88 -170q-20 10 -48 14.5t-44 4.5 q-53 0 -84 -31t-31 -88v-149h252l-70 -193h-174v-856h-268v856h-344v-856h-268v856h-95zM1364 1452l281 64q8 -43 11 -102.5t3 -170.5v-817q0 -68 1 -109t2 -65.5t5 -36.5t10 -22q16 -29 56 -29h14q6 0 16 4l47 -164q-74 -29 -163 -29q-88 0 -154 39t-90 105 q-8 20 -12.5 38.5t-7.5 43t-4 61.5t-1 92v783q0 104 -3 173.5t-11 141.5z" />
<glyph horiz-adv-x="2048" />
<glyph horiz-adv-x="2048" />
<glyph unicode="&#xd;" horiz-adv-x="460" />
<glyph unicode=" "  horiz-adv-x="460" />
<glyph unicode="&#x09;" horiz-adv-x="460" />
<glyph unicode="&#xa0;" horiz-adv-x="460" />
<glyph unicode="!" horiz-adv-x="624" d="M143 143q0 72 49.5 121t120.5 49q70 0 119 -49t49 -121t-50 -121t-122 -49q-70 0 -118 49.5t-48 120.5zM145 1407l328 47l-57 -1001h-209z" />
<glyph unicode="&#x22;" horiz-adv-x="1019" d="M143 872v578h258v-578h-258zM618 872v578h259v-578h-259z" />
<glyph unicode="#" horiz-adv-x="1171" d="M72 412v184h196l35 258h-172v184h197l57 412h199l-58 -412h203l57 412h199l-57 -412h172v-184h-197l-35 -258h172v-184h-196l-58 -412h-198l57 412h-203l-57 -412h-199l58 412h-172zM467 596h203l35 258h-203z" />
<glyph unicode="$" horiz-adv-x="1273" d="M100 98l107 224q100 -53 191 -84t200 -31q250 0 250 194q0 133 -186 185l-158 43q-106 29 -174 71.5t-107 108.5q-59 96 -59 217q0 88 30.5 163t87 132t135.5 93t175 48v148h176v-150q109 -10 206 -46t175 -91l-135 -205q-98 59 -175 84t-157 25q-88 0 -143.5 -46 t-55.5 -118q0 -55 34 -87t124 -56l172 -48q176 -47 268.5 -155t92.5 -268q0 -98 -35 -180.5t-100.5 -144t-158 -100t-204.5 -51.5v-166h-176v166q-104 10 -207 42t-193 83z" />
<glyph unicode="%" horiz-adv-x="1740" d="M72 1087q0 80 24.5 145.5t69.5 113t109.5 73t142.5 25.5q166 0 262 -103q47 -47 68.5 -106t21.5 -143q0 -88 -22.5 -150.5t-73.5 -112.5q-47 -45 -106.5 -69.5t-149.5 -24.5q-160 0 -253 95.5t-93 256.5zM295 1094q0 -53 5 -92t17 -62q14 -23 41 -37t62 -14q66 0 94.5 48 t28.5 159q0 125 -41 164q-33 33 -86 32q-76 0 -103 -61q-10 -27 -14 -58.5t-4 -78.5zM401 0l746 1423h194l-745 -1423h-195zM971 332q0 80 24.5 145.5t69.5 112.5t109.5 72.5t142.5 25.5q166 0 262 -102q47 -47 68.5 -106.5t21.5 -143.5q0 -88 -22.5 -150.5t-73.5 -111.5 q-47 -45 -106.5 -69.5t-149.5 -24.5q-160 0 -253 95t-93 257zM1194 338q0 -53 5 -92t18 -62q14 -23 40.5 -37t61.5 -14q66 0 94.5 48t28.5 159q0 125 -41 164q-33 33 -86 33q-76 0 -103 -62q-10 -27 -14 -58.5t-4 -78.5z" />
<glyph unicode="&#x26;" horiz-adv-x="1464" d="M92 358q0 236 256 355q-55 43 -86 75.5t-47 69.5q-14 29 -23.5 75t-9.5 87q0 76 30 139.5t84 108.5t130 70.5t166 25.5q92 0 168 -23.5t131 -66.5t86 -102.5t31 -131.5q0 -57 -18.5 -108t-51.5 -88q-31 -35 -71 -61.5t-109 -65.5l-19 -10l238 -226q6 25 10 42.5t5 38 t2 48t1 72.5v14h230v-12q0 -231 -66 -381l305 -303h-381l-86 86q-23 -20 -57.5 -40.5t-65.5 -33.5q-104 -41 -268 -41q-248 0 -381 100.5t-133 286.5zM385 375q0 -98 59.5 -150.5t169.5 -52.5q147 0 215 70l-333 321q-111 -68 -111 -188zM463 1040q0 -23 4 -41t16.5 -38.5 t33 -44t52.5 -56.5l17 -16q135 69 135 192q0 59 -36 98.5t-91 39.5q-59 0 -95 -37t-36 -97z" />
<glyph unicode="'" horiz-adv-x="544" d="M143 872v578h258v-578h-258z" />
<glyph unicode="(" horiz-adv-x="659" d="M92 659q0 104 11.5 208t29.5 182q23 92 71 181t113 161q127 135 297 208l72 -161q-43 -31 -63.5 -47.5t-47.5 -42.5q-53 -53 -92 -115t-61 -133q-20 -57 -31.5 -117.5t-15.5 -151.5q-4 -45 -4 -88v-79q0 -70 4 -153t12 -163q12 -111 33.5 -187.5t62.5 -148.5 q18 -35 39 -62.5t45.5 -50t54 -44t68.5 -41.5l-72 -160q-150 51 -262 160.5t-176 263.5q-35 84 -53 183t-29 239q-6 88 -6 159z" />
<glyph unicode=")" horiz-adv-x="655" d="M-31 -182q20 14 35.5 25.5t28 21.5t23 20.5t24.5 22.5q109 109 156 248q18 55 28 116.5t17 151.5q6 92 6 172q0 68 -3 150.5t-14 160.5q-12 111 -32.5 187.5t-61.5 148.5q-20 35 -39.5 62.5t-44 50t-54.5 43t-69 43.5l72 160q150 -53 263.5 -161t174.5 -265 q33 -84 51.5 -183.5t28.5 -238.5q4 -43 4 -82v-72q0 -106 -9 -211.5t-30 -183.5q-23 -92 -72 -180t-114 -160q-125 -137 -299 -209z" />
<glyph unicode="*" horiz-adv-x="995" d="M61 1069l66 195l268 -97v283h209v-283l268 88l62 -194l-268 -86l170 -234l-170 -125l-172 236l-166 -225l-166 125l172 223z" />
<glyph unicode="+" horiz-adv-x="1306" d="M92 492v258h432v432h258v-432h432v-258h-432v-433h-258v433h-432z" />
<glyph unicode="," horiz-adv-x="602" d="M92 -182q68 16 108 48t40 68q0 20 -11.5 34t-42.5 32q-80 47 -80 143q0 74 52.5 125t126.5 51q90 0 147 -68t57 -177q0 -68 -20 -127.5t-59 -108.5t-92.5 -84t-116.5 -51z" />
<glyph unicode="-" horiz-adv-x="675" d="M92 442v238h492v-238h-492z" />
<glyph unicode="." horiz-adv-x="585" d="M113 150q0 74 52 126t126 52q76 0 129 -52t53 -126q0 -37 -14.5 -71t-39 -58.5t-57 -39t-69.5 -14.5q-76 0 -128 53.5t-52 129.5z" />
<glyph unicode="/" horiz-adv-x="913" d="M92 -315l549 1880h180l-549 -1880h-180z" />
<glyph unicode="0" d="M96 676q0 162 36 293t100.5 224t153.5 143t198 50q113 0 201.5 -50t152 -142t97.5 -222t34 -290q0 -162 -36 -293t-100.5 -224t-153.5 -143.5t-197 -50.5q-113 0 -203 50.5t-152.5 142.5t-96.5 222t-34 290zM401 686q0 -156 13.5 -256t38 -157.5t57.5 -79t72 -21.5 q51 0 87 37t56 102.5t29.5 158.5t9.5 204q0 156 -13.5 255t-38 156.5t-57 79t-71.5 21.5q-53 0 -88 -36t-55.5 -102.5t-30 -158.5t-9.5 -203z" />
<glyph unicode="1" d="M143 1069l424 297h187v-1143h178v-223h-686v223h239v828q-57 -35 -130.5 -71t-141.5 -58z" />
<glyph unicode="2" d="M80 1184q111 98 233.5 150t282.5 52q92 0 166 -28.5t126 -79.5t79.5 -124t27.5 -159q0 -111 -64.5 -227.5t-174.5 -237.5q-47 -51 -111.5 -115.5t-132.5 -127.5q-16 -16 -38.5 -37t-39.5 -31q35 4 99.5 7t115.5 3h410l-60 -229h-878v193q31 29 74 71l92 92l94 97 q47 49 82 88q68 76 111.5 137t68.5 112.5t34 93.5t9 77q0 53 -13.5 87.5t-37 56t-54 31t-65.5 9.5q-66 0 -134.5 -32t-154.5 -103z" />
<glyph unicode="3" d="M90 1214q104 80 228 126t255 46q96 0 177 -26.5t140.5 -74.5t92.5 -113.5t33 -141.5q0 -113 -61.5 -192.5t-149.5 -108.5q117 -39 180.5 -120.5t63.5 -190.5q0 -106 -53.5 -194.5t-148.5 -152t-227.5 -98t-291.5 -34.5q-47 0 -80 1t-90 9l-66 190q47 -10 77 -12t79 -2 q106 0 194 23.5t151.5 64.5t98.5 99.5t35 127.5q0 51 -24.5 94.5t-65.5 61.5q-29 14 -76 19.5t-115 5.5q-27 0 -52 -1.5t-52 -1.5v230q35 -4 71 -6t70 -2q227 0 228 161q0 66 -42 110t-132 44q-104 0 -180 -38t-124 -77z" />
<glyph unicode="4" d="M80 256v186l395 928h283l-291 -692q-25 -59 -50.5 -109.5t-45.5 -81.5q4 0 16 2.5t27 2.5h231q16 0 30.5 -1.5t18.5 -1.5q0 4 -1 17.5t-1 19.5q0 43 3 120t12 153l22 239l215 49v-403q0 -35 -1 -93.5t-5 -101.5q6 0 27.5 1.5t38.5 1.5h86v-236h-93q-27 0 -43 2t-20 2 q2 -4 6 -23.5t4 -50.5v-235l-260 -33v293q0 12 2 29.5t2 21.5q-4 -2 -20.5 -4t-44.5 -2h-543z" />
<glyph unicode="5" d="M158 156q59 -16 103 -22.5t89 -6.5q82 0 149.5 21.5t117 61.5t77 95t27.5 121q0 98 -61.5 157.5t-161.5 59.5q-63 0 -132 -13.5t-167 -43.5l65 776h699l-41 -234h-402l-28 -282q33 6 50 8t46 2q94 0 174 -29.5t136 -82t88 -125t32 -160.5q0 -115 -48 -210t-133 -164 t-204 -107.5t-260 -38.5q-49 0 -78 2t-78 12z" />
<glyph unicode="6" d="M86 549q0 186 73.5 343t209.5 284q106 100 245.5 175.5t280.5 121.5l59 -197q-63 -25 -120.5 -49.5t-109.5 -55t-100.5 -69.5t-91.5 -94q-76 -94 -110 -205q82 68 219 67q92 0 173 -32.5t139.5 -91t92 -137.5t33.5 -171q0 -98 -36.5 -184t-101 -148.5t-153 -98.5 t-188.5 -36q-113 0 -207 43t-162.5 120t-106.5 182.5t-38 232.5zM385 459q0 -131 53.5 -204t149.5 -73q92 0 147.5 67.5t55.5 184.5q0 98 -50.5 156.5t-136.5 58.5q-49 0 -100 -16.5t-113 -50.5q-6 -59 -6 -123z" />
<glyph unicode="7" d="M127 1114l61 248h881l-45 -240q-55 -80 -106.5 -164t-96.5 -165q-25 -47 -63.5 -126t-77.5 -173.5t-72 -191.5t-47 -177l-26 -143l-302 -76q20 86 38 151.5t35.5 120.5t34.5 107.5t40 111.5q41 111 83 207t97 205q31 59 55.5 104t47 80t43 66t45.5 63q-16 -4 -38 -6 t-44 -2h-543z" />
<glyph unicode="8" d="M55 352q0 117 66.5 212t175.5 134q-49 18 -87 52t-63.5 76t-39 88.5t-13.5 93.5q0 84 36 153.5t100.5 119.5t154.5 77.5t201 27.5q104 0 190 -26.5t148.5 -73.5t97.5 -112.5t35 -143.5q0 -104 -72 -187t-192 -116q61 -20 117.5 -51t101.5 -73t71.5 -98t26.5 -130 q0 -86 -36 -161t-101 -130q-86 -74 -193.5 -99.5t-218.5 -25.5q-92 0 -182 21.5t-163 67.5t-117 121t-44 183zM360 373q0 -98 62.5 -154.5t169.5 -56.5q92 0 150.5 49t58.5 127q0 96 -78 147q-82 53 -231 105q-131 -76 -132 -217zM377 1032q0 -39 17.5 -67.5t46 -51 t66.5 -40t79 -35.5q31 14 60.5 33.5t53 44t38 54t14.5 68.5q0 72 -47.5 110t-139.5 38q-86 0 -137 -42t-51 -112z" />
<glyph unicode="9" d="M98 907q0 104 37 191.5t103.5 152t156.5 100t199 35.5q115 0 206 -38.5t153.5 -110.5t96 -175.5t33.5 -234.5q0 -408 -335 -692q-94 -78 -209 -145.5t-226 -106.5l-149 168q82 20 169 67.5t161.5 109t131 129t79.5 132.5q-47 -23 -84 -30.5t-82 -7.5q-94 0 -174 34.5 t-139.5 96t-93.5 144.5t-34 181zM395 915q0 -111 56.5 -177t150.5 -66q51 0 87 17.5t77 58.5q20 69 20 153q0 129 -53 202t-145 73q-88 0 -140.5 -71t-52.5 -190z" />
<glyph unicode=":" horiz-adv-x="622" d="M133 139q0 76 52.5 129.5t125.5 53.5q74 0 125 -53.5t51 -129.5q0 -72 -52 -122t-126 -50q-72 0 -124 50.5t-52 121.5zM137 752q0 37 13.5 69.5t37 57t55 39t68.5 14.5q74 0 126 -52t52 -126t-52 -125t-126 -51q-72 0 -123 51t-51 123z" />
<glyph unicode=";" horiz-adv-x="663" d="M133 -182q66 16 106 48t40 68q0 18 -9.5 32t-38.5 30q-47 29 -66.5 62.5t-19.5 80.5q0 78 51.5 129t129.5 51q90 0 147 -69t57 -178q0 -66 -21.5 -125.5t-60 -108.5t-92 -85t-116.5 -50zM152 754q0 37 13 69.5t36.5 57t54.5 39t68 14.5q74 0 127 -52t53 -126 q0 -37 -13.5 -69t-37 -55.5t-55 -37.5t-68.5 -14t-70 13t-56.5 36.5t-37.5 55.5t-14 69z" />
<glyph unicode="&#x3c;" horiz-adv-x="851" d="M51 612l494 637l215 -188l-344 -449l344 -452l-215 -185z" />
<glyph unicode="=" horiz-adv-x="1306" d="M92 295v258h1122v-258h-1122zM92 688v258h1122v-258h-1122z" />
<glyph unicode="&#x3e;" horiz-adv-x="851" d="M92 160l344 452l-344 449l215 188l494 -637l-494 -637z" />
<glyph unicode="?" horiz-adv-x="991" d="M82 1288q18 20 53 47t85 51.5t114.5 41t144.5 16.5q78 0 148.5 -23.5t124 -67.5t85 -107.5t31.5 -143.5q0 -72 -19.5 -122t-47 -87t-61 -60.5t-60.5 -41.5q-94 -59 -125 -130t-33 -137q0 -18 1 -36.5t3 -34.5h-235l-10 53q-8 39 -9 82q0 94 47.5 168.5t141.5 142.5 q20 14 44.5 30.5t44 36t33 44t13.5 55.5q0 76 -50 108.5t-118 32.5q-74 0 -124 -28.5t-97 -65.5zM268 143q0 72 49.5 121t120.5 49q70 0 119 -49t49 -121t-50 -121t-122 -49q-70 0 -118 49.5t-48 120.5z" />
<glyph unicode="@" horiz-adv-x="1845" d="M92 412q0 180 63.5 339.5t176 279.5t268.5 189.5t340 69.5q172 0 320.5 -52t258 -147.5t172 -229.5t62.5 -296q0 -135 -37 -246.5t-100.5 -190.5t-148.5 -123t-179 -44q-78 0 -123 16.5t-68.5 43t-32.5 60.5t-11 69q-53 -66 -134 -115t-174 -49q-125 0 -196.5 76.5 t-71.5 230.5q0 127 39 243.5t112.5 205.5t182.5 142.5t248 53.5q76 0 150.5 -24.5t140.5 -59.5q-41 -137 -71 -274.5t-58 -276.5q-16 -78 -17 -113q0 -43 21.5 -57t68.5 -14t87 32.5t69 92t45 141.5t16 180q0 121 -40.5 221.5t-115.5 171t-180.5 109.5t-234.5 39 q-123 0 -232.5 -54.5t-192.5 -148.5t-131 -221t-48 -270q0 -141 44 -252t121 -185.5t180 -114.5t222 -40q84 0 157 11t138 34l37 -174q-76 -25 -161 -41.5t-171 -16.5q-176 0 -324.5 53.5t-256 153t-169 243.5t-61.5 329zM702 285q0 -61 19.5 -95t66.5 -34q31 0 70 17t74 49 t64.5 80t41.5 110l76 350q-16 8 -31.5 11t-42.5 3q-92 0 -155.5 -45t-104.5 -115.5t-59.5 -157.5t-18.5 -173z" />
<glyph unicode="A" horiz-adv-x="1212" d="M-6 0l467 1427h309l449 -1427h-308l-100 338h-418l-100 -338h-299zM463 575h278q-4 12 -13 44t-20.5 74t-23.5 87t-20 82l-58 252q-4 -12 -11 -43t-16.5 -70.5t-20.5 -83t-19 -77.5q-20 -78 -37 -135.5t-39 -129.5z" />
<glyph unicode="B" horiz-adv-x="1249" d="M154 0v1423h481q66 0 116 -5t92 -17t75.5 -31.5t66.5 -48.5q117 -102 117 -254q0 -147 -96 -238q-31 -29 -56.5 -43t-75.5 -30q133 -39 208 -128.5t75 -230.5q0 -74 -23.5 -142.5t-69.5 -122.5t-115.5 -89t-164.5 -39q-35 -2 -78.5 -3t-103.5 -1h-448zM438 854h168 q51 0 78 4t45 14q29 16 51.5 59.5t22.5 86.5q0 45 -21.5 86t-60.5 57q-18 8 -45 13.5t-74 5.5h-164v-326zM440 233h187q45 0 77.5 7.5t55.5 25.5q33 25 53.5 70t20.5 96q0 61 -29 110.5t-76 63.5q-27 8 -48.5 10t-62.5 2h-178v-385z" />
<glyph unicode="C" horiz-adv-x="1175" d="M92 682q0 262 96 442q84 156 227.5 243t317.5 87q106 0 203.5 -30.5t157.5 -82.5l-129 -194q-109 80 -228 80q-72 0 -137 -33t-104 -90q-80 -119 -80 -367q0 -147 13 -234t46 -147q87 -159 273 -159h2q63 0 121.5 20.5t121.5 71.5l131 -180q-86 -70 -179 -102t-216 -32 q-293 0 -465 197q-172 193 -172 510z" />
<glyph unicode="D" horiz-adv-x="1286" d="M154 0v1423h286q61 0 133 -2t115 -6q92 -8 169 -42t142 -99q98 -98 146.5 -236t48.5 -331q0 -147 -36 -271.5t-107 -222.5q-66 -88 -156 -142.5t-190 -62.5q-41 -4 -91.5 -6t-113.5 -2h-346zM444 233h154q141 0 207.5 110t66.5 337q0 125 -14 226.5t-57 172.5 q-35 59 -87 89t-139 30h-131v-965z" />
<glyph unicode="E" horiz-adv-x="1034" d="M154 0v1423h811l-37 -233h-484v-330h404v-233h-404v-381h539v-246h-829z" />
<glyph unicode="F" horiz-adv-x="915" d="M154 0v1423h772l-33 -231h-453v-326h363v-233h-363v-633h-286z" />
<glyph unicode="G" horiz-adv-x="1335" d="M92 698q0 449 297 648q78 53 161 76.5t185 23.5q129 0 244 -41t209 -123l-152 -178q-134 110 -294 110h-3q-129 0 -204 -71q-72 -70 -96.5 -184.5t-24.5 -274.5q0 -299 106 -405q84 -80 223 -80q94 0 162 34v324h-217l-37 234h551v-680q-111 -66 -228.5 -96.5 t-244.5 -30.5q-160 0 -279.5 53t-205.5 164q-78 100 -115 219t-37 278z" />
<glyph unicode="H" horiz-adv-x="1292" d="M154 0v1423h284v-553h410v553h291v-1423h-291v635h-410v-635h-284z" />
<glyph unicode="I" horiz-adv-x="606" d="M154 0v1423h299v-1423h-299z" />
<glyph unicode="J" horiz-adv-x="608" d="M-31 -188q55 35 101.5 82t64.5 90q8 18 14.5 40.5t9.5 52t4 70.5t1 99v1177h291v-1147q0 -70 -1 -113.5t-4.5 -73.5t-6.5 -50.5t-9 -40.5q-16 -66 -51 -119t-81 -95t-98 -71.5t-102 -48.5z" />
<glyph unicode="K" horiz-adv-x="1224" d="M154 0v1423h292v-649l406 649h352l-454 -659l505 -764h-376l-433 743v-743h-292z" />
<glyph unicode="L" horiz-adv-x="976" d="M154 0v1423h292v-1185h510l-51 -238h-751z" />
<glyph unicode="M" horiz-adv-x="1695" d="M113 0l133 1423h366l187 -712q10 -39 17 -69t12.5 -55.5t10.5 -50t9 -51.5q18 106 51 232l193 706h364l127 -1423h-280l-54 760q-4 68 -7 124t-3 113q-12 -61 -23.5 -107t-29.5 -112l-225 -778h-244l-203 748q-14 53 -31 120q-16 66 -26 123q0 -59 -4 -119 q-2 -63 -7 -129l-49 -743h-284z" />
<glyph unicode="N" horiz-adv-x="1296" d="M154 0v1423h317l272 -569q53 -115 93.5 -220.5t62.5 -182.5q-4 41 -8 93t-7 106.5t-5 104.5t-2 87l-7 581h273v-1423h-299l-244 545q-31 68 -60.5 136.5t-56 130.5t-47.5 114q-18 49 -28 78q4 -39 6 -89q2 -51 4 -104t3 -105.5t1 -97.5l8 -608h-276z" />
<glyph unicode="O" horiz-adv-x="1413" d="M92 707q0 231 84 405t238 260q63 35 139 52.5t156 17.5q141 0 254.5 -50.5t193.5 -144.5t122 -227t42 -301q0 -242 -81 -416t-236 -260q-66 -35 -130.5 -50.5t-154.5 -15.5q-162 0 -271.5 47.5t-191.5 153.5q-164 211 -164 529zM412 707q0 -371 127 -461q68 -49 170 -49 q150 0 216 121t66 393q0 111 -9 190.5t-28 138.5q-8 27 -26.5 58.5t-49 58.5t-73.5 45.5t-100 18.5q-72 0 -131.5 -34t-90.5 -91q-71 -133 -71 -382v-7z" />
<glyph unicode="P" horiz-adv-x="1179" d="M154 0v1423h374q90 0 152.5 -4t106.5 -13t75 -22.5t62 -29.5q100 -55 152 -150.5t52 -218.5q0 -141 -64.5 -249.5t-180.5 -164.5q-25 -12 -50.5 -20t-57.5 -14.5t-75 -9.5t-102 -3h-158v-524h-286zM440 758h150q43 0 72.5 3t51 11t37 22.5t29.5 36.5q18 29 26.5 63 t8.5 85q0 100 -50 156.5t-142 56.5h-183v-434z" />
<glyph unicode="Q" horiz-adv-x="1413" d="M92 707q0 231 84 406t238 259q63 35 139 52.5t156 17.5q141 0 254.5 -50.5t193.5 -144.5t122 -227t42 -301q0 -233 -76 -400t-205 -253q29 -10 66 -33t61 -39q39 -23 84 -41.5t92 -18.5q41 0 79 4.5t48 6.5l-75 -187q-6 -4 -38 -14t-89 -10q-41 0 -80 11t-73 26.5 t-61.5 33t-47.5 29.5q-51 35 -128 76t-161 67q-160 0 -269.5 47.5t-191.5 153.5q-164 211 -164 529zM412 707q0 -371 127 -461q68 -49 170 -49q150 0 216 121t66 393q0 111 -9 190.5t-28 138.5q-8 27 -26.5 58.5t-49 58.5t-73.5 45.5t-100 18.5q-72 0 -131.5 -34t-90.5 -91 q-71 -133 -71 -382v-7z" />
<glyph unicode="R" horiz-adv-x="1216" d="M154 0v1423h530q94 0 171 -29.5t132 -85t85 -132t30 -170.5q0 -80 -24.5 -151t-67.5 -124t-101.5 -85t-124.5 -34q23 -16 34 -28.5t26 -30.5q18 -23 47 -67t62.5 -98t69.5 -112.5t67.5 -112.5t57.5 -97t38 -66h-338q-20 35 -35.5 61.5t-31 52t-31 54.5t-35.5 65 q-53 96 -89 160t-62.5 103t-46 58t-38.5 28q-23 10 -45 12v-594h-280zM434 809h96q92 0 139.5 10t75.5 37q56 51 56 143q0 137 -103 175q-25 10 -66.5 15t-94.5 5h-103v-385z" />
<glyph unicode="S" horiz-adv-x="1216" d="M72 98l106 224q100 -53 191.5 -84t199.5 -31q250 0 250 194q0 133 -186 185l-158 43q-106 29 -174 71.5t-106 108.5q-59 96 -60 217q0 98 37 179t104.5 139.5t161.5 90t207 31.5q131 0 256 -37.5t219 -105.5l-135 -205q-98 59 -175 84t-157 25q-88 0 -143 -46t-55 -118 q0 -55 33.5 -87t123.5 -56l172 -48q176 -47 268.5 -155t92.5 -268q0 -109 -42 -197t-119 -151.5t-185.5 -97.5t-241.5 -34q-123 0 -250 34t-235 95z" />
<glyph unicode="T" horiz-adv-x="1026" d="M31 1186v237h1026l-47 -237h-340v-1186h-291v1186h-348z" />
<glyph unicode="U" horiz-adv-x="1323" d="M150 432v991h292v-936q0 -66 6.5 -106.5t18.5 -63.5q51 -98 195 -98q94 0 150 44t67 122q4 23 4 45v993h291v-958q0 -51 -1.5 -84t-3.5 -55.5t-6 -42t-12 -41.5q-14 -43 -48 -90.5t-92.5 -87t-143.5 -65.5t-199 -26q-164 0 -281 48.5t-176 142.5q-18 27 -29.5 53.5 t-18.5 57t-10 68.5t-3 89z" />
<glyph unicode="V" horiz-adv-x="1177" d="M-31 1423h314l235 -741q16 -47 32.5 -108.5t33.5 -139.5q6 33 16 71t21.5 75.5t22.5 73.5t22 65l241 704h301l-495 -1433h-260z" />
<glyph unicode="W" horiz-adv-x="1724" d="M10 1423h303l123 -561q20 -92 33.5 -173t23 -142.5t13.5 -101t6 -50.5q2 23 8 69t15.5 107.5t21.5 133t29 143.5l127 575h313l131 -637q10 -47 20.5 -108.5t18.5 -117.5t14.5 -98t8.5 -50q2 18 10 74.5t19.5 127t23.5 144t24 125.5l117 540h301l-344 -1435h-313l-127 579 q-14 66 -26.5 128.5t-21 116.5t-13.5 95t-7 62q-2 -14 -8 -53t-14.5 -92.5t-19.5 -119t-25 -133.5l-119 -583h-326z" />
<glyph unicode="X" horiz-adv-x="1171" d="M-20 0l446 762l-385 661h350l193 -383l194 383h342l-370 -643l442 -780h-346l-256 502l-254 -502h-356z" />
<glyph unicode="Y" horiz-adv-x="1114" d="M-41 1423h344l182 -389q29 -59 44.5 -100t27.5 -82q12 31 32.5 79t43.5 99l184 393h338l-455 -837v-586h-299v586z" />
<glyph unicode="Z" horiz-adv-x="1105" d="M72 0v201l524 866q27 43 53.5 81t34.5 48q-10 -2 -49 -6t-96 -4h-439l64 237h852v-206l-529 -891q-20 -35 -43.5 -64t-29.5 -37q12 2 57 5t84 3h479l-73 -233h-889z" />
<glyph unicode="[" horiz-adv-x="634" d="M154 -319v1818h430v-184h-185v-1450h185v-184h-430z" />
<glyph unicode="\" horiz-adv-x="907" d="M31 1487l233 72l613 -1596l-232 -72z" />
<glyph unicode="]" horiz-adv-x="634" d="M51 -135h185v1450h-185v184h430v-1818h-430v184z" />
<glyph unicode="^" horiz-adv-x="1241" d="M102 702l369 748h299l369 -748h-291l-227 488l-230 -488h-289z" />
<glyph unicode="_" horiz-adv-x="1044" d="M10 -143h1024v-201h-1024v201z" />
<glyph unicode="`" horiz-adv-x="686" d="M72 1346l118 213l424 -267l-84 -151z" />
<glyph unicode="a" horiz-adv-x="1069" d="M82 289q0 186 126 273t378 87h30q14 0 31 -2v43q0 88 -23.5 122t-99.5 34q-66 0 -141.5 -31t-161.5 -88l-117 197q41 27 78 45t92 41q78 33 146.5 47t140.5 14q133 0 220 -47t118 -135q6 -16 9 -31.5t6.5 -36t3.5 -49.5v-72l-7 -352q0 -43 2 -74.5t12.5 -58.5t30 -50.5 t54.5 -49.5l-146 -168q-47 20 -87 53t-60 74q-16 -16 -31.5 -30.5t-32.5 -25.5q-80 -57 -211 -57q-176 0 -268 85t-92 243zM375 299q0 -61 33.5 -99t87.5 -38q39 0 75.5 18.5t67.5 52.5l4 226h-12q-143 0 -199.5 -33t-56.5 -127z" />
<glyph unicode="b" horiz-adv-x="1150" d="M127 0q8 18 13 34.5t8.5 40t4.5 58.5t1 90v971q0 98 -4.5 155.5t-14.5 102.5l281 66q6 -53 8 -93.5t2 -93.5v-248q0 -23 -1 -51t-5 -41q78 84 223 84q96 0 173 -37t131 -106.5t83 -167.5t29 -221q0 -160 -48 -282t-147 -200q-53 -43 -108.5 -62t-120.5 -19 q-78 0 -133.5 23.5t-100.5 72.5q-6 -29 -10 -41t-18 -35h-246zM430 281q29 -25 63.5 -46.5t90.5 -21.5q100 0 133 82q18 43 24.5 94.5t6.5 147.5q0 72 -2.5 107.5t-10.5 70.5q-16 68 -56 100.5t-93 32.5t-91 -27.5t-65 -56.5v-483z" />
<glyph unicode="c" horiz-adv-x="952" d="M92 516q0 182 61.5 302t153.5 183q53 35 124 56.5t136 21.5q53 0 106.5 -12t96.5 -35q29 -16 48.5 -30.5t53.5 -43.5l-133 -180q-41 39 -84 60.5t-82 21.5q-92 0 -135 -83t-43 -269q0 -104 13.5 -166.5t40.5 -97.5q47 -59 122 -60q90 0 189 86l16 15l125 -166 q-31 -31 -49 -46.5t-47 -31.5q-55 -33 -117.5 -49.5t-138.5 -16.5q-217 0 -337 142.5t-120 398.5z" />
<glyph unicode="d" horiz-adv-x="1144" d="M92 506q0 123 33 224t92 175t141 114t183 40q113 0 186 -60q-4 16 -6 62.5t-2 93.5v361l272 -43v-1090q0 -96 3 -162.5t9.5 -110.5t13.5 -70t13 -40h-246q-10 20 -16 61q-100 -88 -242 -88q-100 0 -180 38t-136 106.5t-87 167t-31 221.5zM397 504q0 -84 9.5 -141.5 t32 -92t59.5 -50t90 -15.5q39 0 76.5 21.5t58.5 45.5v500q-78 68 -150 68q-92 0 -134 -80t-42 -256z" />
<glyph unicode="e" horiz-adv-x="1056" d="M92 514q0 141 31 239.5t100 176.5q66 72 146 106.5t184 34.5q92 0 172 -28.5t131 -81.5q72 -74 105.5 -183.5t33.5 -275.5v-64h-606v-8q0 -123 57.5 -188.5t163.5 -65.5q139 0 267 105l106 -164q-178 -145 -395 -146q-113 0 -205 39t-156.5 109.5t-99.5 171t-35 223.5z M393 639h318v12q0 59 -7.5 94t-25.5 64q-41 61 -121 61q-78 0 -121 -58t-43 -169v-4z" />
<glyph unicode="f" horiz-adv-x="643" d="M59 860v189h101q-4 33 -7 70.5t-3 72.5q0 156 88 241t249 85q68 0 126.5 -15.5t121.5 -50.5l-88 -170q-45 23 -66.5 29t-45.5 6q-53 0 -84 -31t-31 -88v-149h266l-70 -189h-194v-860h-268v860h-95z" />
<glyph unicode="g" horiz-adv-x="1153" d="M72 -102q0 43 8 66.5t16 39.5h254q-8 -18 -10 -31.5t-2 -35.5q0 -63 50 -96.5t147 -33.5q53 0 96 7.5t76 27.5q31 18 49 46t18 61q0 72 -55 97.5t-137 27.5l-117 2q-180 2 -252 33q-37 14 -58.5 49t-21.5 88q0 25 6 49t25.5 47t57.5 43.5t104 36.5q-225 57 -226 291 q0 80 32 145.5t89.5 111.5t139 71.5t182.5 25.5q45 0 88 -6t100 -21q43 -10 73 -16t56 -6q57 0 113.5 23.5t103.5 66.5l115 -174q-45 -41 -90 -59.5t-103 -18.5q-20 0 -39.5 2t-31.5 4q31 -37 46 -78t15 -94q0 -68 -28.5 -125t-81 -98t-123 -64.5t-154.5 -23.5h-18 q-6 0 -23 2q-53 -25 -80.5 -44.5t-27.5 -41.5q0 -25 45 -25l147 -2q119 -2 190.5 -22.5t127.5 -71.5q90 -84 90 -223q0 -127 -84 -217q-70 -74 -180.5 -104.5t-233.5 -30.5q-113 0 -219.5 23.5t-177.5 88.5q-86 80 -86 187zM377 711q0 -80 45 -115t117 -35q168 0 168 150 q0 74 -44.5 114.5t-121.5 40.5q-78 0 -121 -41t-43 -114z" />
<glyph unicode="h" horiz-adv-x="1177" d="M133 1452l281 66q10 -43 14 -112t4 -144v-209q0 -25 -2 -51.5t-2 -36.5q53 51 135 81.5t162 30.5q100 0 174 -40t98 -109q8 -23 13.5 -42.5t8.5 -41t4 -48t1 -63.5v-733h-268v705q0 78 -23.5 110.5t-83.5 32.5q-51 0 -110.5 -27.5t-106.5 -68.5v-752h-278v1212 q0 74 -5.5 140.5t-15.5 99.5z" />
<glyph unicode="i" horiz-adv-x="581" d="M123 1337q0 72 50 121t122 49q70 0 118 -49t48 -121t-49.5 -121t-120.5 -49q-70 0 -119 49.5t-49 120.5zM154 0v1030l274 43v-1073h-274z" />
<glyph unicode="j" horiz-adv-x="579" d="M20 -299q33 27 58.5 58.5t42.5 60.5q18 35 25.5 81t7.5 119v986l272 65v-1042q0 -74 -7 -128.5t-18.5 -92t-25 -62.5t-27.5 -43q-74 -96 -213 -154zM123 1337q0 72 49 122t121 50q70 0 120 -49t50 -119q0 -72 -50.5 -122t-121.5 -50q-72 0 -120 49.5t-48 118.5z" />
<glyph unicode="k" horiz-adv-x="1079" d="M135 1454l277 68q10 -59 13 -147.5t3 -192.5v-1182h-274v1182q0 70 -3.5 130t-15.5 142zM434 594l268 455h330l-334 -439l412 -610h-324z" />
<glyph unicode="l" horiz-adv-x="595" d="M139 1452l281 64q8 -43 11 -102.5t3 -170.5v-817q0 -68 1 -109t2 -65.5t5 -36.5t11 -22q16 -29 55 -29h14q6 0 17 4l47 -164q-74 -29 -164 -29q-88 0 -153.5 39t-90.5 105q-8 20 -12 38.5t-7 43t-4 61.5t-1 92v783q0 104 -3.5 173.5t-11.5 141.5z" />
<glyph unicode="m" horiz-adv-x="1644" d="M115 999l247 68q14 -23 21.5 -44.5t15.5 -61.5q111 106 256 106q129 0 213 -86q20 -20 41 -51q72 74 141.5 105.5t155.5 31.5q61 0 116.5 -17.5t90.5 -48.5q23 -18 37 -40.5t23.5 -52t13.5 -69.5t4 -94v-745h-266v692q0 47 -3 76t-12.5 45t-27 22.5t-43.5 6.5 q-39 0 -88.5 -23.5t-94.5 -64.5v-754h-260v682q0 98 -18.5 130t-75.5 32q-39 0 -87 -19.5t-93 -60.5v-764h-268v731q0 115 -8.5 172.5t-30.5 95.5z" />
<glyph unicode="n" horiz-adv-x="1134" d="M117 1006l243 69q39 -68 39 -131q31 23 58.5 41.5t62.5 36.5q41 23 91.5 34t97.5 11q88 0 157.5 -42t94.5 -110q20 -55 20 -149v-766h-270v682q0 90 -19.5 122t-73.5 32q-41 0 -92 -26t-98 -69v-741h-274v760q0 68 -9.5 130t-27.5 116z" />
<glyph unicode="o" horiz-adv-x="1112" d="M82 520q0 123 34 224.5t95 174t148 111.5t194 39q223 0 356 -158q63 -74 92 -164t29 -219q0 -135 -31.5 -231t-99.5 -174q-59 -68 -141 -107t-205 -39q-106 0 -193.5 39t-148.5 110t-95 171t-34 223zM387 526q0 -182 35 -264q18 -43 58 -64.5t81 -21.5q90 0 130 84 t40 270q0 209 -55 281q-43 55 -119 55q-49 0 -87 -28.5t-54 -77.5q-14 -41 -21.5 -98.5t-7.5 -135.5z" />
<glyph unicode="p" horiz-adv-x="1150" d="M137 1026l244 43q8 -29 12 -51.5t6 -46.5q35 43 107 70.5t151 27.5q55 0 109.5 -17.5t97.5 -45.5q43 -29 78 -69t61.5 -95.5t41 -127t14.5 -161.5q0 -84 -7.5 -149.5t-24.5 -120t-45 -99.5t-69 -88q-53 -57 -123.5 -88t-156.5 -31q-61 0 -117.5 14.5t-101.5 41.5 q4 -18 4 -41v-373l-264 -70v1213q0 51 -1 87t-2 63.5t-4.5 54t-9.5 59.5zM420 256q29 -23 69.5 -42t81.5 -19q102 0 145.5 75.5t43.5 255.5q0 76 -6 134.5t-21 97.5q-31 88 -131 88q-106 0 -182 -80v-510z" />
<glyph unicode="q" horiz-adv-x="1148" d="M92 508q0 141 24.5 234.5t82.5 166.5q59 76 145 121t182 45q41 0 81 -8t74 -23.5t58.5 -35t32.5 -39.5q2 29 6 44t15 38h227q-14 -59 -19.5 -137t-5.5 -173v-1126l-260 -70v398q0 31 1 60.5t5 45.5q-84 -74 -209 -74q-119 0 -201.5 44t-136 118t-78 170t-24.5 201z M393 543q0 -51 3 -110.5t20.5 -111t54.5 -86t107 -34.5q47 0 90 25.5t67 54.5v493q-29 31 -69.5 51.5t-87.5 20.5q-61 0 -98.5 -30t-57 -74t-24.5 -97t-5 -102z" />
<glyph unicode="r" horiz-adv-x="731" d="M115 1008l245 65q37 -66 43 -149q45 59 106.5 104t139.5 45q31 0 50.5 -4t52.5 -18l-76 -242q-39 20 -80 20q-92 0 -168 -88v-741h-274v700q0 106 -11.5 184.5t-27.5 123.5z" />
<glyph unicode="s" horiz-adv-x="1005" d="M61 88l99 201q31 -18 72.5 -40t88 -39t94.5 -28.5t93 -11.5q59 0 99 34t40 85q0 53 -39 82.5t-123 46.5l-123 22q-53 10 -108 41t-84 66t-44 86t-15 102q0 76 28.5 139.5t81.5 108.5t128 69.5t167 24.5q127 0 215 -31.5t160 -66.5l-90 -184q-78 41 -138.5 58t-119.5 17 t-96 -27.5t-37 -74.5q0 -41 29.5 -64.5t101.5 -41.5l127 -33q49 -12 81.5 -25.5t56 -29t40 -31t31.5 -33.5q57 -72 57 -178q0 -82 -33 -148.5t-91 -115t-141 -75t-184 -26.5q-193 0 -424 121z" />
<glyph unicode="t" horiz-adv-x="718" d="M49 860v189h105q0 78 1 133t9 114l278 70q-8 -72 -12 -155t-4 -162h246l-70 -189h-176v-526q0 -100 23.5 -134t95.5 -34q18 0 39.5 5t58.5 15l35 -163q-115 -47 -223 -48q-104 0 -181 42t-102 112q-6 16 -10 30.5t-5 31t-2 40t-1 60.5v569h-105z" />
<glyph unicode="u" horiz-adv-x="1118" d="M143 352v672l271 51v-674q0 -72 6 -110.5t16 -61.5t38 -36t58 -13q51 0 102.5 31t67.5 70v737l263 55v-801q0 -53 16 -103t47 -87l-194 -111q-55 39 -82 103q-51 -49 -122 -75t-155 -26q-111 0 -196.5 47.5t-112.5 122.5q-12 35 -17.5 82t-5.5 127z" />
<glyph unicode="v" horiz-adv-x="970" d="M-10 1032l280 35l152 -473q8 -27 17.5 -59.5t18.5 -67.5t17 -68l14 -57q6 47 22.5 117.5t41.5 148.5l141 441h287l-383 -1049h-227z" />
<glyph unicode="w" horiz-adv-x="1452" d="M10 1030l273 31l86 -404q8 -41 18 -91t18.5 -97t14.5 -85t8 -52q4 31 12.5 75t18.5 94t21.5 101t23.5 94l98 353h258l84 -347q14 -66 27.5 -127t24 -110t17.5 -85t9 -48q2 16 7 53t13.5 85t17.5 101.5t19 102.5l80 375h283l-299 -1049h-252l-94 360q-16 63 -32.5 132 t-27.5 122l-16 105q-2 -16 -4 -31l-4 -26q-2 -12 -6.5 -31t-10.5 -47q-8 -35 -19 -82t-23.5 -99.5t-26 -101.5t-21.5 -86l-53 -215h-256z" />
<glyph unicode="x" horiz-adv-x="1044" d="M-20 0l387 559l-291 440l284 80q29 -49 49.5 -82.5t36 -62.5t28.5 -54.5t28 -56.5l33 -69q4 12 27.5 65t64.5 139q12 27 27.5 53.5t21.5 37.5h323l-311 -484l377 -565h-348l-111 193q-6 12 -19.5 35.5t-25.5 48t-24 45.5q-10 18 -13 24q-8 -18 -35 -76q-29 -57 -69 -125 l-88 -145h-352z" />
<glyph unicode="y" horiz-adv-x="1038" d="M0 1032l281 33l182 -612l55 -217q0 2 3 21t8.5 45t11.5 54.5t10 46.5q6 27 17.5 68t23.5 78l158 500h288l-381 -1065q-27 -76 -51 -132.5t-47.5 -96.5t-48.5 -68.5t-53 -48.5q-53 -39 -118 -63t-136 -34l-94 180q45 12 92 30t78 40q43 31 77 86q10 16 17.5 28.5t13.5 26 t12.5 29.5t16.5 39h-70z" />
<glyph unicode="z" horiz-adv-x="980" d="M72 0v170l493 686h-452v193h778v-189l-463 -670h481l-65 -190h-772z" />
<glyph unicode="{" horiz-adv-x="802" d="M51 473v234q18 0 55 4t74 18t64.5 43t27.5 76v354q0 80 19.5 136.5t55.5 92t84 52t106 16.5h215v-233h-101q-47 0 -73.5 -12.5t-40 -32t-16.5 -43t-3 -43.5v-330q0 -72 -19.5 -113t-50 -62.5t-66.5 -28.5t-69 -9v-4q33 -2 69 -8.5t66.5 -28t50 -62t19.5 -112.5v-332 q0 -20 3 -44t16.5 -43t40 -31.5t73.5 -12.5h101v-233h-215q-55 0 -103.5 16t-84.5 53t-56.5 93.5t-20.5 136.5v352q0 47 -27.5 75.5t-64.5 43t-73.5 18.5t-55.5 4z" />
<glyph unicode="|" horiz-adv-x="565" d="M154 -426v1974h258v-1974h-258z" />
<glyph unicode="}" horiz-adv-x="802" d="M51 -86h101q47 0 73.5 12.5t40 31.5t16.5 43t3 44v330q0 72 19.5 112.5t50 62t66.5 28t68 10.5v4q-33 2 -68.5 8t-66 27.5t-50 62.5t-19.5 113v332q0 20 -3 43.5t-16.5 43t-40 32t-73.5 12.5h-101v233h221q51 0 98.5 -16.5t83 -53t56 -93t20.5 -136.5v-352q0 -47 27 -76 t62.5 -43t72.5 -18t60 -4v-234q-23 0 -60 -4t-72.5 -18.5t-62.5 -43t-27 -75.5v-355q0 -80 -20.5 -136t-55 -92t-82.5 -52t-106 -16h-215v233z" />
<glyph unicode="~" horiz-adv-x="1150" d="M102 643q16 33 40 64.5t54.5 56t70.5 40t91 15.5q53 0 110.5 -19.5t117.5 -45.5q57 -25 112.5 -49.5t96.5 -24.5q51 0 89 34t91 105l74 -221q-16 -33 -40 -64.5t-54.5 -56t-70.5 -40t-91 -15.5q-53 0 -110.5 19.5t-117.5 45.5q-57 25 -112.5 49.5t-96.5 24.5 q-53 0 -91 -34.5t-89 -104.5z" />
<glyph unicode="&#xa1;" horiz-adv-x="624" d="M143 899q0 72 50.5 121t121.5 49q70 0 118 -49t48 -121t-49 -121t-121 -49q-70 0 -119 49t-49 121zM152 -412l57 1002h209l61 -955z" />
<glyph unicode="&#xa2;" horiz-adv-x="1273" d="M231 516q0 182 61.5 302t153.5 183q63 43 148 64v199h192v-197q33 0 64 -10t59 -25q29 -16 48.5 -30.5t54.5 -43.5l-133 -180q-41 39 -84 60.5t-82 21.5q-92 0 -135 -83t-43 -269q0 -104 13 -166.5t40 -97.5q47 -59 123 -60q90 0 188 86l16 15l125 -166 q-31 -31 -49 -46.5t-47 -31.5q-72 -43 -158 -57v-211h-192v211q-174 29 -268.5 167t-94.5 365z" />
<glyph unicode="&#xa3;" horiz-adv-x="1273" d="M90 0v233h197v406h-197v209h197v145q0 92 32.5 178t97 154t159 109t219.5 41q117 0 229.5 -31t198.5 -109l-205 -219q-41 41 -93.5 64.5t-93.5 23.5q-68 0 -113.5 -22.5t-73.5 -58.5t-39 -82t-11 -93v-100h319v-209h-319v-406h518v-233h-1022z" />
<glyph unicode="&#xa4;" horiz-adv-x="1273" d="M250 905l242 142l81 -144q12 2 28.5 3t33.5 1q20 0 41.5 -1t36.5 -5l75 146l234 -142l-90 -139q29 -41 42 -93t13 -118q0 -59 -15.5 -111.5t-43.5 -93.5l96 -145l-242 -142l-82 144q-14 -4 -30 -4h-31q-41 0 -78 6l-76 -146l-233 142l90 139q-29 41 -41 95.5t-12 111.5 q0 123 57 209zM512 557q0 -53 6 -95t17 -59q14 -23 40.5 -37t61.5 -14q66 0 94.5 48t28.5 159q0 123 -41 164q-33 33 -86 33q-76 0 -103 -62q-10 -27 -14 -58.5t-4 -78.5z" />
<glyph unicode="&#xa5;" horiz-adv-x="1273" d="M39 1423h344l182 -389q29 -59 44.5 -100t27.5 -82q12 31 32.5 79t43.5 99l184 393h338l-313 -573h211v-211h-324l-29 -53v-103h353v-211h-353v-272h-299v272h-346v211h346v103l-28 53h-318v211h207z" />
<glyph unicode="&#xa6;" horiz-adv-x="565" d="M154 422h258v-848h-258v848zM154 700v848h258v-848h-258z" />
<glyph unicode="&#xa7;" horiz-adv-x="1224" d="M92 -51l262 129q8 -37 32 -63.5t54.5 -44t66.5 -25.5t71 -8q25 0 53 5t53 17t41 32.5t16 51.5q0 49 -46 81t-113.5 61.5t-148.5 60t-148.5 77t-113.5 113t-46 164.5q0 104 46 177t132 126q-59 41 -94 101.5t-35 134.5q0 90 40 155.5t103.5 108.5t141.5 63.5t155 20.5 q66 0 133.5 -10.5t130 -37t113.5 -69.5t82 -106l-258 -148q-23 59 -75 92t-113 33q-49 0 -91 -26.5t-42 -81.5q0 -51 47 -86t118.5 -66t153.5 -62.5t153.5 -76.5t119 -110t47.5 -157q0 -86 -49.5 -157.5t-122.5 -108.5q53 -43 82.5 -107.5t29.5 -135.5q0 -100 -48 -172 t-122 -117t-163 -65.5t-171 -20.5q-76 0 -147.5 12t-133 43t-111.5 80t-85 123zM408 657q0 -35 13 -60.5t34.5 -43.5t48 -31.5t55.5 -25.5l221 -103q70 41 70 125q0 29 -12.5 51.5t-32 41t-43 31.5t-45.5 24l-238 112q-72 -41 -71 -121z" />
<glyph unicode="&#xa8;" horiz-adv-x="970" d="M113 1300q0 66 47 112t112 46q63 0 108.5 -46t45.5 -112t-46 -111.5t-112 -45.5q-63 0 -109 46t-46 111zM545 1300q0 33 12 62t33.5 50.5t51.5 33.5t63 12q63 0 108 -46t45 -112t-46 -111.5t-112 -45.5t-110.5 46t-44.5 111z" />
<glyph unicode="&#xa9;" horiz-adv-x="1708" d="M92 725q0 158 60.5 296t164 241.5t241.5 164t296 60.5t296 -60.5t241.5 -164t164 -241.5t60.5 -296t-60.5 -296t-164 -241.5t-241.5 -164t-296 -60.5t-296 60.5t-241.5 164t-164 241.5t-60.5 296zM301 725q0 -119 43 -224.5t119 -183t176 -124t215 -46.5t215 46.5 t176 124t119 183t43 224.5t-43 224.5t-119 183t-176 124t-215 46.5t-215 -46.5t-176 -124t-119 -183t-43 -224.5zM494 709q0 92 26.5 169.5t74.5 134t117.5 88.5t155.5 32q63 0 123 -19.5t107 -58.5l-94 -135q-41 29 -72 40t-62 11q-154 0 -153 -234q0 -141 38 -201.5 t124 -60.5q41 0 74.5 14.5t62.5 42.5l100 -126q-63 -47 -120.5 -68t-129.5 -21q-84 0 -152.5 28t-117.5 79t-75.5 122.5t-26.5 162.5z" />
<glyph unicode="&#xaa;" horiz-adv-x="890" d="M72 473v160h747v-160h-747zM96 993q0 139 94.5 205t284.5 66h45v30q0 66 -17.5 91.5t-74.5 25.5q-98 0 -227 -88l-88 147q20 14 57 32t72 32q109 47 215 47q98 0 163.5 -36t88.5 -101q10 -25 13 -51.5t1 -89.5l-4 -279q0 -63 14.5 -95t59.5 -65l-99 -127q-37 16 -71.5 41 t-49.5 56q-23 -23 -30.5 -30t-18.5 -13q-59 -43 -157 -43q-131 0 -201 64.5t-70 180.5zM315 1001q0 -47 26 -74.5t67 -27.5q57 0 106 53l4 170h-10q-109 0 -151 -24.5t-42 -96.5z" />
<glyph unicode="&#xab;" horiz-adv-x="1130" d="M61 510l326 479l186 -125l-237 -354l237 -354l-186 -125zM557 510l326 479l186 -125l-238 -354l238 -354l-186 -125z" />
<glyph unicode="&#xac;" horiz-adv-x="1087" d="M92 406v223h903v-510h-252v287h-651z" />
<glyph unicode="&#xad;" horiz-adv-x="675" d="M92 442v238h492v-238h-492z" />
<glyph unicode="&#xae;" horiz-adv-x="1708" d="M92 725q0 158 60.5 296t164 241.5t241.5 164t296 60.5t296 -60.5t241.5 -164t164 -241.5t60.5 -296t-60.5 -296t-164 -241.5t-241.5 -164t-296 -60.5t-296 60.5t-241.5 164t-164 241.5t-60.5 296zM301 725q0 -119 43 -224.5t119 -183t176 -124t215 -46.5t215 46.5 t176 124t119 183t43 224.5t-43 224.5t-119 183t-176 124t-215 46.5t-215 -46.5t-176 -124t-119 -183t-43 -224.5zM571 350v783h314q117 0 184.5 -66t67.5 -174q0 -88 -51.5 -146.5t-129.5 -66.5q35 -14 59.5 -45t45.5 -62q18 -29 39.5 -63.5t41 -66t34.5 -58.5l22 -35h-235 q-14 23 -24.5 39.5t-20 30.5t-17.5 28.5t-20 34.5q-29 47 -47 78l-31 51q-12 20 -19.5 30.5t-13.5 16.5v-309h-199zM770 813h53q59 0 81 18.5t22 59.5q0 43 -24.5 61.5t-76.5 18.5h-55v-158z" />
<glyph unicode="&#xaf;" horiz-adv-x="745" d="M51 1364v160h643v-160h-643z" />
<glyph unicode="&#xb0;" horiz-adv-x="841" d="M72 1087q0 80 24.5 145.5t69.5 113t109.5 73t142.5 25.5q84 0 147.5 -25.5t114.5 -77.5q47 -47 68.5 -106t21.5 -143q0 -88 -22.5 -150.5t-73.5 -112.5q-47 -45 -106.5 -69.5t-149.5 -24.5q-160 0 -253 95.5t-93 256.5zM295 1094q0 -53 4 -92t18 -62t41 -37t62 -14 q66 0 94.5 48t28.5 159q0 125 -41 164q-33 33 -86 32q-76 0 -103 -61q-10 -27 -14 -58.5t-4 -78.5z" />
<glyph unicode="&#xb1;" horiz-adv-x="1050" d="M92 580v231h307v281h252v-281h307v-231h-307v-293h-252v293h-307zM96 0v231h858v-231h-858z" />
<glyph unicode="&#xb2;" horiz-adv-x="786" d="M72 1210q80 68 158.5 100.5t179.5 32.5q119 0 189.5 -67.5t70.5 -175.5q0 -59 -31 -117.5t-76 -113t-97 -102.5t-95 -87q18 0 36.5 1t34.5 1h273l-47 -170h-564v137q20 18 48 44t57 54.5t57.5 56t48.5 50.5q82 84 104.5 138.5t22.5 88.5q0 53 -22.5 69.5t-57.5 16.5 t-73.5 -18.5t-102.5 -67.5z" />
<glyph unicode="&#xb3;" horiz-adv-x="770" d="M72 655q27 -4 44 -7t30.5 -5t23.5 -2h27q127 0 196.5 47t69.5 115q0 31 -14.5 48t-36 25.5t-47 9.5t-50.5 1h-82v166q27 -4 52.5 -6.5t52.5 -2.5q66 0 91.5 23t25.5 57q0 29 -18.5 48.5t-65.5 19.5q-57 0 -102.5 -21.5t-84.5 -52.5l-110 131q72 53 148.5 84t168.5 31 q59 0 111.5 -16.5t91.5 -46t61.5 -70.5t22.5 -90q0 -109 -96 -172q55 -29 85.5 -74t30.5 -104q0 -68 -34.5 -122.5t-96 -93t-144.5 -59t-179 -20.5q-29 0 -50.5 1t-66.5 7z" />
<glyph unicode="&#xb4;" horiz-adv-x="686" d="M72 1292l424 267l118 -213l-458 -205z" />
<glyph unicode="&#xb5;" horiz-adv-x="1118" d="M143 -451v1475l271 51v-674q0 -72 6 -110.5t16 -61.5t38 -36t58 -13q51 0 102.5 31t67.5 70v737l263 55v-801q0 -53 16 -103t47 -87l-194 -111q-55 39 -82 103q-51 -49 -122 -75t-155 -26q-16 0 -35.5 7.5t-36.5 21.5q0 -6 2.5 -26.5t2.5 -36.5v-320z" />
<glyph unicode="&#xb6;" horiz-adv-x="1232" d="M51 1065q0 102 35 176t97.5 120t150.5 67.5t194 21.5h551v-1708h-184v1561h-219v-1561h-184v950q-100 0 -181.5 28t-138.5 78t-89 118.5t-32 148.5z" />
<glyph unicode="&#xb7;" horiz-adv-x="548" d="M92 561q0 76 53.5 130t130.5 54q76 0 128.5 -54t52.5 -132q0 -37 -14.5 -69.5t-39 -57t-58.5 -39t-73 -14.5q-76 0 -128 53t-52 129z" />
<glyph unicode="&#xb8;" horiz-adv-x="626" d="M113 -358l61 129q25 -10 48.5 -20.5t58.5 -10.5q23 0 37 12t14 25q0 16 -11.5 28.5t-39.5 12.5q-16 0 -28.5 -4t-27.5 -9l-26 41l49 179l147 -13l-28 -78q78 -8 112.5 -55t34.5 -106q0 -76 -57.5 -128.5t-165.5 -52.5q-47 0 -97.5 16.5t-80.5 33.5z" />
<glyph unicode="&#xb9;" horiz-adv-x="663" d="M72 1149l274 182h139v-653h107v-166h-440v166h131v426q-37 -20 -77 -38.5t-77 -31.5z" />
<glyph unicode="&#xba;" horiz-adv-x="890" d="M72 473v160h747v-160h-747zM86 1153q0 92 25.5 169t71.5 130t110.5 83t144.5 30q170 0 269 -117q47 -55 68.5 -123t21.5 -166q0 -102 -24.5 -173t-74.5 -128q-45 -51 -106.5 -80.5t-153.5 -29.5q-80 0 -145.5 28.5t-111.5 81.5t-70.5 128t-24.5 167zM319 1159 q0 -66 8.5 -113t18.5 -73q12 -31 41 -48.5t57 -17.5q66 0 93.5 60.5t27.5 193.5q0 158 -39 203q-33 37 -84 37q-35 0 -60.5 -20.5t-39.5 -55.5q-23 -57 -23 -166z" />
<glyph unicode="&#xbb;" horiz-adv-x="1130" d="M61 156l238 354l-238 354l187 125l325 -479l-325 -479zM557 156l238 354l-238 354l186 125l326 -479l-326 -479z" />
<glyph unicode="&#xbc;" horiz-adv-x="1937" d="M72 1149l274 182h139v-653h107v-166h-440v166h131v426q-37 -20 -77 -38.5t-77 -31.5zM346 -315l1081 1880h222l-1082 -1880h-221zM1249 145v129l224 547h215l-172 -424q-10 -23 -19.5 -42t-19.5 -36h141q0 78 7 144.5t15 144.5l168 37v-213q0 -20 1 -52t-1 -48l-2 -15 q4 0 9.5 1t9.5 1h71v-174h-75l-15 2q0 -4 1 -10t1 -12v-154l-196 -22v186l2 10h-365z" />
<glyph unicode="&#xbd;" horiz-adv-x="1933" d="M72 1149l274 182h139v-653h107v-166h-440v166h131v426q-37 -20 -77 -38.5t-77 -31.5zM276 -315l1082 1880h221l-1081 -1880h-222zM1249 698q80 68 159 100.5t179 32.5q119 0 189.5 -67.5t70.5 -175.5q0 -59 -30.5 -117.5t-75.5 -113t-97.5 -102.5t-95.5 -87q18 0 37 1 t35 1h272l-47 -170h-563v137q20 18 48 44t56.5 54.5t57.5 56t49 50.5q82 84 104.5 138.5t22.5 88.5q0 53 -22.5 69.5t-57.5 16.5t-74 -18.5t-102 -67.5z" />
<glyph unicode="&#xbe;" horiz-adv-x="2043" d="M72 655q27 -4 44 -7t30.5 -5t23.5 -2h27q127 0 196.5 47t69.5 115q0 31 -14.5 48t-36 25.5t-47 9.5t-50.5 1h-82v166q27 -4 52.5 -6.5t52.5 -2.5q66 0 91.5 23t25.5 57q0 29 -18.5 48.5t-65.5 19.5q-57 0 -102.5 -21.5t-84.5 -52.5l-110 131q72 53 148.5 84t168.5 31 q59 0 111.5 -16.5t91.5 -46t61.5 -70.5t22.5 -90q0 -109 -96 -172q55 -29 85.5 -74t30.5 -104q0 -68 -34.5 -122.5t-96 -93t-144.5 -59t-179 -20.5q-29 0 -50.5 1t-66.5 7zM391 -315l1082 1880h221l-1082 -1880h-221zM1356 145v129l223 547h215l-172 -424q-10 -23 -19.5 -42 t-19.5 -36h141q0 78 7.5 144.5t15.5 144.5l168 37v-213q0 -20 1 -52t-1 -48l-2 -15q4 0 9 1t9 1h72v-174h-76l-14 2q0 -4 1 -10t1 -12v-154l-197 -22v186l2 10h-364z" />
<glyph unicode="&#xbf;" horiz-adv-x="991" d="M123 -59q0 70 19.5 121t47 87.5t60.5 60t61 42.5q94 59 125 130t33 136q0 18 -1 36.5t-3 35.5h235l11 -53q8 -39 8 -82q0 -94 -47 -169t-142 -143q-23 -16 -46 -31.5t-42.5 -35t-33 -44t-13.5 -55.5q0 -76 50.5 -108.5t117.5 -32.5q78 0 127 30t94 64l125 -176 q-18 -20 -53 -46.5t-85 -51.5t-114.5 -41t-144.5 -16q-78 0 -148.5 23.5t-124 67.5t-85 107.5t-31.5 143.5zM385 899q0 72 50 121t122 49q70 0 118 -49t48 -121t-49 -121t-121 -49q-70 0 -119 49t-49 121z" />
<glyph unicode="&#xc0;" horiz-adv-x="1212" d="M-6 0l467 1427h309l449 -1427h-308l-100 338h-418l-100 -338h-299zM313 1673l119 213l424 -266l-84 -152zM463 575h278q-4 12 -13 44t-20.5 74t-23.5 87t-20 82l-58 252q-4 -12 -11 -43t-16.5 -70.5t-20.5 -83t-19 -77.5q-20 -78 -37 -135.5t-39 -129.5z" />
<glyph unicode="&#xc1;" horiz-adv-x="1212" d="M-6 0l467 1427h309l449 -1427h-308l-100 338h-418l-100 -338h-299zM385 1620l424 266l118 -213l-458 -205zM463 575h278q-4 12 -13 44t-20.5 74t-23.5 87t-20 82l-58 252q-4 -12 -11 -43t-16.5 -70.5t-20.5 -83t-19 -77.5q-20 -78 -37 -135.5t-39 -129.5z" />
<glyph unicode="&#xc2;" horiz-adv-x="1212" d="M-6 0l467 1427h309l449 -1427h-308l-100 338h-418l-100 -338h-299zM234 1608l369 276l376 -276l-92 -150l-284 156l-277 -156zM463 575h278q-4 12 -13 44t-20.5 74t-23.5 87t-20 82l-58 252q-4 -12 -11 -43t-16.5 -70.5t-20.5 -83t-19 -77.5q-20 -78 -37 -135.5 t-39 -129.5z" />
<glyph unicode="&#xc3;" horiz-adv-x="1212" d="M-6 0l467 1427h309l449 -1427h-308l-100 338h-418l-100 -338h-299zM250 1681q43 53 105.5 86t148.5 33q45 0 76 -11t58.5 -23.5t58 -23.5t75.5 -11q84 0 140 61l84 -156q-47 -59 -104.5 -88.5t-149.5 -29.5q-47 0 -78 11t-58.5 23.5t-57.5 23.5t-75 11q-84 0 -139 -59z M463 575h278q-4 12 -13 44t-20.5 74t-23.5 87t-20 82l-58 252q-4 -12 -11 -43t-16.5 -70.5t-20.5 -83t-19 -77.5q-20 -78 -37 -135.5t-39 -129.5z" />
<glyph unicode="&#xc4;" horiz-adv-x="1212" d="M-6 0l467 1427h309l449 -1427h-308l-100 338h-418l-100 -338h-299zM244 1628q0 66 47 112t113 46q63 0 108 -46t45 -112t-46 -112t-112 -46q-63 0 -109 46.5t-46 111.5zM463 575h278q-4 12 -13 44t-20.5 74t-23.5 87t-20 82l-58 252q-4 -12 -11 -43t-16.5 -70.5 t-20.5 -83t-19 -77.5q-20 -78 -37 -135.5t-39 -129.5zM676 1628q0 66 47 112t113 46q63 0 108 -46t45 -112t-46 -112t-112 -46q-63 0 -109 46.5t-46 111.5z" />
<glyph unicode="&#xc5;" horiz-adv-x="1212" d="M-6 0l467 1427h309l449 -1427h-308l-100 338h-418l-100 -338h-299zM399 1677q0 45 17.5 84t47 69t69.5 47t83 17t82 -17t69 -47t46 -69t16 -84t-17.5 -84t-47 -68.5t-68.5 -47t-84 -17.5q-43 0 -82 17.5t-68.5 47t-46 68.5t-16.5 84zM463 575h278q-4 12 -13 44t-20.5 74 t-23.5 87t-20 82l-58 252q-4 -12 -11 -43t-16.5 -70.5t-20.5 -83t-19 -77.5q-20 -78 -37 -135.5t-39 -129.5zM510 1677q0 -43 30.5 -73.5t71.5 -30.5q43 0 74 30.5t31 73.5t-30 74t-71 31q-45 0 -75.5 -31t-30.5 -74z" />
<glyph unicode="&#xc6;" horiz-adv-x="1759" d="M-31 0l848 1423h864l-36 -233h-486v-330h406v-233h-404v-381h547v-246h-838v338h-391l-190 -338h-320zM612 575h258v330q0 59 2 107q4 39 5 51q-6 -10 -21 -37q-16 -33 -42 -80t-55.5 -102.5t-58 -107.5t-52 -95t-36.5 -66z" />
<glyph unicode="&#xc7;" horiz-adv-x="1175" d="M92 682q0 262 96 442q84 156 227.5 243t317.5 87q106 0 203.5 -30.5t157.5 -82.5l-129 -194q-109 80 -228 80q-72 0 -137 -33t-104 -90q-80 -119 -80 -367q0 -147 13 -234t46 -147q88 -160 275 -159q51 0 113.5 18t129.5 74l131 -180q-86 -70 -179 -102t-216 -32h-35 l-14 -41q78 -8 112.5 -55t34.5 -106q0 -76 -57 -128.5t-166 -52.5q-47 0 -97 16.5t-81 33.5l61 129q25 -10 48.5 -20.5t58.5 -10.5q23 0 37 12t14 25q0 16 -11 28.5t-40 12.5q-16 0 -28.5 -6.5t-26.5 -6.5l-27 41l41 150q-172 43 -289 176q-172 193 -172 510z" />
<glyph unicode="&#xc8;" horiz-adv-x="1034" d="M154 0v1423h811l-37 -233h-484v-330h404v-233h-404v-381h539v-246h-829zM239 1673l119 213l424 -266l-84 -152z" />
<glyph unicode="&#xc9;" horiz-adv-x="1034" d="M154 0v1423h811l-37 -233h-484v-330h404v-233h-404v-381h539v-246h-829zM289 1620l424 266l118 -213l-458 -205z" />
<glyph unicode="&#xca;" horiz-adv-x="1034" d="M154 0v1423h811l-37 -233h-484v-330h404v-233h-404v-381h539v-246h-829zM184 1608l369 276l376 -276l-92 -150l-284 156l-277 -156z" />
<glyph unicode="&#xcb;" horiz-adv-x="1034" d="M154 0v1423h811l-37 -233h-484v-330h404v-233h-404v-381h539v-246h-829zM189 1628q0 66 47 112t113 46q63 0 108 -46t45 -112t-46 -112t-112 -46q-63 0 -109 46.5t-46 111.5zM619 1628q0 66 47 112t113 46q63 0 108 -46t45 -112t-46 -112t-112 -46q-63 0 -109 46.5 t-46 111.5z" />
<glyph unicode="&#xcc;" horiz-adv-x="606" d="M2 1673l119 213l424 -266l-84 -152zM154 0v1423h299v-1423h-299z" />
<glyph unicode="&#xcd;" horiz-adv-x="606" d="M74 1620l424 266l118 -213l-458 -205zM154 0v1423h299v-1423h-299z" />
<glyph unicode="&#xce;" horiz-adv-x="606" d="M-68 1608l369 276l376 -276l-92 -150l-284 156l-277 -156zM154 0v1423h299v-1423h-299z" />
<glyph unicode="&#xcf;" horiz-adv-x="606" d="M-67 1628q0 66 47 112t113 46q63 0 108 -46t45 -112t-46 -112t-112 -46q-63 0 -109 46.5t-46 111.5zM154 0v1423h299v-1423h-299zM363 1628q0 66 47 112t113 46q63 0 108 -46t45 -112t-46 -112t-112 -46q-63 0 -109 46.5t-46 111.5z" />
<glyph unicode="&#xd0;" horiz-adv-x="1286" d="M-2 627v182h156v614h286q61 0 133 -2t115 -6q92 -8 169 -42t142 -99q98 -98 146.5 -236t48.5 -331q0 -147 -36 -271.5t-107 -222.5q-66 -88 -156 -142.5t-190 -62.5q-41 -4 -91.5 -6t-113.5 -2h-346v627h-156zM444 233h154q141 0 207.5 110t66.5 337q0 125 -14 226.5 t-57 172.5q-35 59 -87 89t-139 30h-131v-389h220l-11 -182h-209v-394z" />
<glyph unicode="&#xd1;" horiz-adv-x="1296" d="M154 0v1423h317l272 -569q53 -115 93.5 -220.5t62.5 -182.5q-4 41 -8 93t-7 106.5t-5 104.5t-2 87l-7 581h273v-1423h-299l-244 545q-31 68 -60.5 136.5t-56 130.5t-47.5 114q-18 49 -28 78q4 -39 6 -89q2 -51 4 -104t3 -105.5t1 -97.5l8 -608h-276zM262 1681 q43 53 105.5 86t148.5 33q45 0 76 -11t58.5 -23.5t58 -23.5t75.5 -11q84 0 140 61l84 -156q-47 -59 -104.5 -88.5t-149.5 -29.5q-47 0 -78 11t-58.5 23.5t-57.5 23.5t-75 11q-84 0 -139 -59z" />
<glyph unicode="&#xd2;" horiz-adv-x="1413" d="M92 707q0 231 84 405t238 260q63 35 139 52.5t156 17.5q141 0 254.5 -50.5t193.5 -144.5t122 -227t42 -301q0 -242 -81 -416t-236 -260q-66 -35 -130.5 -50.5t-154.5 -15.5q-162 0 -271.5 47.5t-191.5 153.5q-164 211 -164 529zM403 1673l119 213l424 -266l-84 -152z M412 707q0 -371 127 -461q68 -49 170 -49q150 0 216 121t66 393q0 111 -9 190.5t-28 138.5q-8 27 -26.5 58.5t-49 58.5t-73.5 45.5t-100 18.5q-72 0 -131.5 -34t-90.5 -91q-72 -135 -71 -389z" />
<glyph unicode="&#xd3;" horiz-adv-x="1413" d="M92 707q0 231 84 405t238 260q63 35 139 52.5t156 17.5q141 0 254.5 -50.5t193.5 -144.5t122 -227t42 -301q0 -242 -81 -416t-236 -260q-66 -35 -130.5 -50.5t-154.5 -15.5q-162 0 -271.5 47.5t-191.5 153.5q-164 211 -164 529zM412 707q0 -371 127 -461q68 -49 170 -49 q150 0 216 121t66 393q0 111 -9 190.5t-28 138.5q-8 27 -26.5 58.5t-49 58.5t-73.5 45.5t-100 18.5q-72 0 -131.5 -34t-90.5 -91q-72 -135 -71 -389zM453 1620l424 266l118 -213l-458 -205z" />
<glyph unicode="&#xd4;" horiz-adv-x="1413" d="M92 707q0 231 84 405t238 260q63 35 139 52.5t156 17.5q141 0 254.5 -50.5t193.5 -144.5t122 -227t42 -301q0 -242 -81 -416t-236 -260q-66 -35 -130.5 -50.5t-154.5 -15.5q-162 0 -271.5 47.5t-191.5 153.5q-164 211 -164 529zM340 1608l369 276l376 -276l-92 -150 l-284 156l-277 -156zM412 707q0 -371 127 -461q68 -49 170 -49q150 0 216 121t66 393q0 111 -9 190.5t-28 138.5q-8 27 -26.5 58.5t-49 58.5t-73.5 45.5t-100 18.5q-72 0 -131.5 -34t-90.5 -91q-72 -135 -71 -389z" />
<glyph unicode="&#xd5;" horiz-adv-x="1413" d="M92 707q0 231 84 405t238 260q63 35 139 52.5t156 17.5q141 0 254.5 -50.5t193.5 -144.5t122 -227t42 -301q0 -242 -81 -416t-236 -260q-66 -35 -130.5 -50.5t-154.5 -15.5q-162 0 -271.5 47.5t-191.5 153.5q-164 211 -164 529zM350 1681q43 53 105.5 86t148.5 33 q45 0 76 -11t58.5 -23.5t58 -23.5t75.5 -11q84 0 140 61l84 -156q-47 -59 -104.5 -88.5t-149.5 -29.5q-47 0 -78 11t-58.5 23.5t-57.5 23.5t-75 11q-84 0 -139 -59zM412 707q0 -371 127 -461q68 -49 170 -49q150 0 216 121t66 393q0 111 -9 190.5t-28 138.5 q-8 27 -26.5 58.5t-49 58.5t-73.5 45.5t-100 18.5q-72 0 -131.5 -34t-90.5 -91q-72 -135 -71 -389z" />
<glyph unicode="&#xd6;" horiz-adv-x="1413" d="M92 707q0 231 84 405t238 260q63 35 139 52.5t156 17.5q141 0 254.5 -50.5t193.5 -144.5t122 -227t42 -301q0 -242 -81 -416t-236 -260q-66 -35 -130.5 -50.5t-154.5 -15.5q-162 0 -271.5 47.5t-191.5 153.5q-164 211 -164 529zM334 1628q0 66 47 112t113 46 q63 0 108 -46t45 -112t-46 -112t-112 -46q-63 0 -109 46.5t-46 111.5zM412 707q0 -371 127 -461q68 -49 170 -49q150 0 216 121t66 393q0 111 -9 190.5t-28 138.5q-8 27 -26.5 58.5t-49 58.5t-73.5 45.5t-100 18.5q-72 0 -131.5 -34t-90.5 -91q-72 -135 -71 -389zM766 1628 q0 66 47 112t113 46q63 0 108 -46t45 -112t-46 -112t-112 -46q-63 0 -109 46.5t-46 111.5z" />
<glyph unicode="&#xd7;" horiz-adv-x="1282" d="M154 315l305 306l-305 305l182 182l305 -305l305 305l182 -182l-305 -305l305 -306l-182 -182l-305 305l-305 -305z" />
<glyph unicode="&#xd8;" horiz-adv-x="1413" d="M92 707q0 231 84 406t238 259q63 35 139 52.5t156 17.5q170 0 297 -72l124 203l150 -84l-139 -225q88 -94 134 -231.5t46 -313.5q0 -242 -81 -416t-236 -260q-66 -35 -130.5 -50.5t-154.5 -15.5q-190 0 -318 70l-137 -227l-149 84l155 256q-92 113 -135 251t-43 296z M412 707q0 -164 24 -275l441 725q-31 29 -73 46.5t-99 17.5q-72 0 -132.5 -34t-89.5 -91q-72 -135 -71 -389zM526 252q80 -55 183 -55q150 0 216 121t66 393q0 84 -6 149.5t-16 118.5z" />
<glyph unicode="&#xd9;" horiz-adv-x="1323" d="M150 432v991h292v-936q0 -66 6.5 -106.5t18.5 -63.5q51 -98 195 -98q94 0 150 44t67 122q4 23 4 45v993h291v-958q0 -51 -1.5 -84t-3.5 -55.5t-6 -42t-12 -41.5q-14 -43 -48 -90.5t-92.5 -87t-143.5 -65.5t-199 -26q-164 0 -281 48.5t-176 142.5q-18 27 -29.5 53.5 t-18.5 57t-10 68.5t-3 89zM356 1673l119 213l424 -266l-84 -152z" />
<glyph unicode="&#xda;" horiz-adv-x="1323" d="M150 432v991h292v-936q0 -66 6.5 -106.5t18.5 -63.5q51 -98 195 -98q94 0 150 44t67 122q4 23 4 45v993h291v-958q0 -51 -1.5 -84t-3.5 -55.5t-6 -42t-12 -41.5q-14 -43 -48 -90.5t-92.5 -87t-143.5 -65.5t-199 -26q-164 0 -281 48.5t-176 142.5q-18 27 -29.5 53.5 t-18.5 57t-10 68.5t-3 89zM455 1620l424 266l118 -213l-458 -205z" />
<glyph unicode="&#xdb;" horiz-adv-x="1323" d="M150 432v991h292v-936q0 -66 6.5 -106.5t18.5 -63.5q51 -98 195 -98q94 0 150 44t67 122q4 23 4 45v993h291v-958q0 -51 -1.5 -84t-3.5 -55.5t-6 -42t-12 -41.5q-14 -43 -48 -90.5t-92.5 -87t-143.5 -65.5t-199 -26q-164 0 -281 48.5t-176 142.5q-18 27 -29.5 53.5 t-18.5 57t-10 68.5t-3 89zM301 1608l369 276l376 -276l-92 -150l-284 156l-277 -156z" />
<glyph unicode="&#xdc;" horiz-adv-x="1323" d="M150 432v991h292v-936q0 -66 6.5 -106.5t18.5 -63.5q51 -98 195 -98q94 0 150 44t67 122q4 23 4 45v993h291v-958q0 -51 -1.5 -84t-3.5 -55.5t-6 -42t-12 -41.5q-14 -43 -48 -90.5t-92.5 -87t-143.5 -65.5t-199 -26q-164 0 -281 48.5t-176 142.5q-18 27 -29.5 53.5 t-18.5 57t-10 68.5t-3 89zM291 1628q0 66 47 112t113 46q63 0 108 -46t45 -112t-46 -112t-112 -46q-63 0 -109 46.5t-46 111.5zM719 1628q0 66 47 112t113 46q63 0 108 -46t45 -112t-46 -112t-112 -46q-63 0 -109 46.5t-46 111.5z" />
<glyph unicode="&#xdd;" horiz-adv-x="1114" d="M-41 1423h344l182 -389q29 -59 44.5 -100t27.5 -82q12 31 32.5 79t43.5 99l184 393h338l-455 -837v-586h-299v586zM340 1620l424 266l118 -213l-458 -205z" />
<glyph unicode="&#xde;" horiz-adv-x="1179" d="M154 0v1423h286v-225h88q90 0 152.5 -4t106.5 -13.5t75 -22.5t62 -30q100 -55 152 -150t52 -218q0 -141 -64.5 -250t-180.5 -164q-25 -12 -50.5 -20.5t-57.5 -14.5t-75 -9t-102 -3h-158v-299h-286zM440 532h150q43 0 72.5 3.5t51 11.5t37 22.5t29.5 36.5q18 29 26.5 63 t8.5 85q0 100 -50 156.5t-142 56.5h-183v-435z" />
<glyph unicode="&#xdf;" horiz-adv-x="1253" d="M27 836v213h168v32q0 45 3 84t13 74t30.5 66.5t55.5 64.5q86 80 213 105q27 4 54.5 7t58.5 3q205 0 324.5 -91t119.5 -247q0 -166 -152 -256l-65 -39q-27 -16 -27 -37q0 -29 49 -51q49 -23 82 -38t57.5 -30.5t44 -32t40.5 -36.5q47 -47 66.5 -104.5t19.5 -127.5 q0 -94 -34 -172t-95.5 -133t-147.5 -86t-190 -31q-53 0 -89 5.5t-65 19.5l62 188q27 -10 61 -10q94 0 145.5 54.5t51.5 154.5q0 43 -8.5 68.5t-34.5 54.5q-37 41 -76 65l-92 60q-90 57 -90 166q0 55 19 88t48 55l47 37q66 51 66 131q0 45 -9.5 72.5t-27.5 50.5 q-16 18 -45 29.5t-57 11.5q-53 0 -92.5 -34t-49.5 -87q-4 -23 -5 -54.5t-1 -88.5v-799q0 -78 -15.5 -134.5t-25.5 -76.5h-278q4 12 11 41t13 64.5t11.5 76.5t5.5 78v576h-168z" />
<glyph unicode="&#xe0;" horiz-adv-x="1069" d="M82 289q0 186 126 273t378 87h30q14 0 31 -2v43q0 88 -23.5 122t-99.5 34q-66 0 -141.5 -31t-161.5 -88l-117 197q41 27 78 45t92 41q78 33 146.5 47t140.5 14q133 0 220 -47t118 -135q6 -16 9 -31.5t6.5 -36t3.5 -49.5v-72l-7 -352q0 -43 2 -74.5t12.5 -58.5t30 -50.5 t54.5 -49.5l-146 -168q-47 20 -87 53t-60 74q-16 -16 -31.5 -30.5t-32.5 -25.5q-80 -57 -211 -57q-176 0 -268 85t-92 243zM238 1346l118 213l424 -267l-84 -151zM375 299q0 -61 33.5 -99t87.5 -38q39 0 75.5 18.5t67.5 52.5l4 226h-12q-143 0 -199.5 -33t-56.5 -127z" />
<glyph unicode="&#xe1;" horiz-adv-x="1069" d="M82 289q0 186 126 273t378 87h30q14 0 31 -2v43q0 88 -23.5 122t-99.5 34q-66 0 -141.5 -31t-161.5 -88l-117 197q41 27 78 45t92 41q78 33 146.5 47t140.5 14q133 0 220 -47t118 -135q6 -16 9 -31.5t6.5 -36t3.5 -49.5v-72l-7 -352q0 -43 2 -74.5t12.5 -58.5t30 -50.5 t54.5 -49.5l-146 -168q-47 20 -87 53t-60 74q-16 -16 -31.5 -30.5t-32.5 -25.5q-80 -57 -211 -57q-176 0 -268 85t-92 243zM303 1292l424 267l119 -213l-459 -205zM375 299q0 -61 33.5 -99t87.5 -38q39 0 75.5 18.5t67.5 52.5l4 226h-12q-143 0 -199.5 -33t-56.5 -127z" />
<glyph unicode="&#xe2;" horiz-adv-x="1069" d="M82 289q0 186 126 273t378 87h30q14 0 31 -2v43q0 88 -23.5 122t-99.5 34q-66 0 -141.5 -31t-161.5 -88l-117 197q41 27 78 45t92 41q78 33 146.5 47t140.5 14q133 0 220 -47t118 -135q6 -16 9 -31.5t6.5 -36t3.5 -49.5v-72l-7 -352q0 -43 2 -74.5t12.5 -58.5t30 -50.5 t54.5 -49.5l-146 -168q-47 20 -87 53t-60 74q-16 -16 -31.5 -30.5t-32.5 -25.5q-80 -57 -211 -57q-176 0 -268 85t-92 243zM151 1280l369 276l377 -276l-92 -150l-285 156l-277 -156zM375 299q0 -61 33.5 -99t87.5 -38q39 0 75.5 18.5t67.5 52.5l4 226h-12 q-143 0 -199.5 -33t-56.5 -127z" />
<glyph unicode="&#xe3;" horiz-adv-x="1069" d="M82 289q0 186 126 273t378 87h30q14 0 31 -2v43q0 88 -23.5 122t-99.5 34q-66 0 -141.5 -31t-161.5 -88l-117 197q41 27 78 45t92 41q78 33 146.5 47t140.5 14q133 0 220 -47t118 -135q6 -16 9 -31.5t6.5 -36t3.5 -49.5v-72l-7 -352q0 -43 2 -74.5t12.5 -58.5t30 -50.5 t54.5 -49.5l-146 -168q-47 20 -87 53t-60 74q-16 -16 -31.5 -30.5t-32.5 -25.5q-80 -57 -211 -57q-176 0 -268 85t-92 243zM160 1354q43 53 105.5 86t148.5 33q45 0 76 -11.5t58.5 -24t58 -23.5t75.5 -11q84 0 140 61l84 -155q-47 -59 -104.5 -89t-149.5 -30q-47 0 -78 11 t-58.5 23.5t-57 24t-75.5 11.5q-84 0 -139 -60zM375 299q0 -61 33.5 -99t87.5 -38q39 0 75.5 18.5t67.5 52.5l4 226h-12q-143 0 -199.5 -33t-56.5 -127z" />
<glyph unicode="&#xe4;" horiz-adv-x="1069" d="M82 289q0 186 126 273t378 87h30q14 0 31 -2v43q0 88 -23.5 122t-99.5 34q-66 0 -141.5 -31t-161.5 -88l-117 197q41 27 78 45t92 41q78 33 146.5 47t140.5 14q133 0 220 -47t118 -135q6 -16 9 -31.5t6.5 -36t3.5 -49.5v-72l-7 -352q0 -43 2 -74.5t12.5 -58.5t30 -50.5 t54.5 -49.5l-146 -168q-47 20 -87 53t-60 74q-16 -16 -31.5 -30.5t-32.5 -25.5q-80 -57 -211 -57q-176 0 -268 85t-92 243zM149 1300q0 66 47 112t113 46q63 0 108.5 -46t45.5 -112t-46.5 -111.5t-111.5 -45.5q-63 0 -109.5 46t-46.5 111zM375 299q0 -61 33.5 -99t87.5 -38 q39 0 75.5 18.5t67.5 52.5l4 226h-12q-143 0 -199.5 -33t-56.5 -127zM581 1300q0 66 47 112t113 46q63 0 108.5 -46t45.5 -112t-46.5 -111.5t-111.5 -45.5q-63 0 -109.5 46t-46.5 111z" />
<glyph unicode="&#xe5;" horiz-adv-x="1069" d="M82 289q0 186 126 273t378 87h30q14 0 31 -2v43q0 88 -23.5 122t-99.5 34q-66 0 -141.5 -31t-161.5 -88l-117 197q41 27 78 45t92 41q78 33 146.5 47t140.5 14q133 0 220 -47t118 -135q6 -16 9 -31.5t6.5 -36t3.5 -49.5v-72l-7 -352q0 -43 2 -74.5t12.5 -58.5t30 -50.5 t54.5 -49.5l-146 -168q-47 20 -87 53t-60 74q-16 -16 -31.5 -30.5t-32.5 -25.5q-80 -57 -211 -57q-176 0 -268 85t-92 243zM319 1350q0 45 17.5 84t47.5 68.5t70 47t83 17.5t81.5 -17.5t68.5 -47t46.5 -68.5t16.5 -84t-17.5 -84t-47.5 -69t-68.5 -47t-84.5 -17 q-43 0 -81.5 17t-68.5 47t-46.5 69t-16.5 84zM375 299q0 -61 33.5 -99t87.5 -38q39 0 75.5 18.5t67.5 52.5l4 226h-12q-143 0 -199.5 -33t-56.5 -127zM430 1350q0 -43 31 -74t71 -31q43 0 74 31t31 74t-29.5 73.5t-70.5 30.5q-45 0 -76 -30.5t-31 -73.5z" />
<glyph unicode="&#xe6;" horiz-adv-x="1581" d="M82 289q0 186 126 273t378 87q16 0 27.5 -1t33.5 -1v43q0 88 -23.5 122t-99.5 34q-66 0 -141.5 -31t-161.5 -88l-117 197q35 23 75 43t95 43q78 33 146.5 47t140.5 14q86 0 152.5 -29.5t113.5 -66.5q43 41 108.5 67.5t141.5 26.5q92 0 172 -28.5t131 -82.5 q72 -74 106 -183t34 -275v-64h-607v-8q0 -123 57.5 -188.5t164.5 -65.5q139 0 266 105l106 -164q-178 -145 -395 -146q-55 0 -96 5.5t-77 17.5t-69.5 31.5t-70.5 48.5q-10 6 -18.5 16t-18.5 21q-25 -35 -58.5 -58.5t-50.5 -34.5q-41 -23 -93 -39t-118 -16q-176 0 -268 85 t-92 243zM375 299q0 -61 33.5 -99t87.5 -38q39 0 76.5 19.5t68.5 54.5l2 223h-12q-143 0 -199.5 -33t-56.5 -127zM918 637h317v12q0 59 -7 94t-26 64q-41 61 -121 61q-78 0 -120.5 -58t-42.5 -169v-4z" />
<glyph unicode="&#xe7;" horiz-adv-x="952" d="M92 516q0 182 61.5 302t153.5 183q53 35 124 56.5t136 21.5q53 0 105.5 -12t97.5 -35q29 -16 48.5 -30.5t53.5 -43.5l-133 -180q-41 39 -84 60.5t-82 21.5q-92 0 -135 -83t-43 -269q0 -104 12.5 -166.5t41.5 -97.5q47 -59 122 -60q90 0 189 86l16 15l125 -166 q-31 -31 -49 -46.5t-47 -31.5q-53 -31 -111.5 -48.5t-128.5 -17.5l-14 -41q78 -8 112.5 -55t34.5 -106q0 -76 -57 -128.5t-166 -52.5q-47 0 -97 16.5t-81 33.5l61 129q25 -10 48.5 -20.5t58.5 -10.5q23 0 37 12t14 25q0 16 -11 28.5t-40 12.5q-16 0 -28.5 -6.5t-26.5 -6.5 l-27 41l39 144q-160 39 -245 174t-85 352z" />
<glyph unicode="&#xe8;" horiz-adv-x="1056" d="M92 514q0 141 31 239.5t100 176.5q66 72 146 106.5t184 34.5q92 0 172 -28.5t131 -81.5q72 -74 105.5 -183.5t33.5 -275.5v-64h-606v-8q0 -123 57.5 -188.5t163.5 -65.5q139 0 267 105l106 -164q-178 -145 -395 -146q-113 0 -205 39t-156.5 109.5t-99.5 171t-35 223.5z M205 1346l118 213l424 -267l-84 -151zM393 639h318v12q0 59 -7.5 94t-25.5 64q-41 61 -121 61q-78 0 -121 -58t-43 -169v-4z" />
<glyph unicode="&#xe9;" horiz-adv-x="1056" d="M92 514q0 141 31 239.5t100 176.5q66 72 146 106.5t184 34.5q92 0 172 -28.5t131 -81.5q72 -74 105.5 -183.5t33.5 -275.5v-64h-606v-8q0 -123 57.5 -188.5t163.5 -65.5q139 0 267 105l106 -164q-178 -145 -395 -146q-113 0 -205 39t-156.5 109.5t-99.5 171t-35 223.5z M311 1292l424 267l119 -213l-459 -205zM393 639h318v12q0 59 -7.5 94t-25.5 64q-41 61 -121 61q-78 0 -121 -58t-43 -169v-4z" />
<glyph unicode="&#xea;" horiz-adv-x="1056" d="M92 514q0 141 31 239.5t100 176.5q66 72 146 106.5t184 34.5q92 0 172 -28.5t131 -81.5q72 -74 105.5 -183.5t33.5 -275.5v-64h-606v-8q0 -123 57.5 -188.5t163.5 -65.5q139 0 267 105l106 -164q-178 -145 -395 -146q-113 0 -205 39t-156.5 109.5t-99.5 171t-35 223.5z M184 1280l369 276l377 -276l-92 -150l-285 156l-277 -156zM393 639h318v12q0 59 -7.5 94t-25.5 64q-41 61 -121 61q-78 0 -121 -58t-43 -169v-4z" />
<glyph unicode="&#xeb;" horiz-adv-x="1056" d="M92 514q0 141 31 239.5t100 176.5q66 72 146 106.5t184 34.5q92 0 172 -28.5t131 -81.5q72 -74 105.5 -183.5t33.5 -275.5v-64h-606v-8q0 -123 57.5 -188.5t163.5 -65.5q139 0 267 105l106 -164q-178 -145 -395 -146q-113 0 -205 39t-156.5 109.5t-99.5 171t-35 223.5z M182 1300q0 66 47 112t113 46q63 0 108.5 -46t45.5 -112t-46.5 -111.5t-111.5 -45.5q-63 0 -109.5 46t-46.5 111zM393 639h318v12q0 59 -7.5 94t-25.5 64q-41 61 -121 61q-78 0 -121 -58t-43 -169v-4zM614 1300q0 66 47 112t113 46q63 0 108.5 -46t45.5 -112t-46.5 -111.5 t-111.5 -45.5q-63 0 -109.5 46t-46.5 111z" />
<glyph unicode="&#xec;" horiz-adv-x="581" d="M-28 1346l118 213l424 -267l-84 -151zM154 0v1030l274 43v-1073h-274z" />
<glyph unicode="&#xed;" horiz-adv-x="581" d="M80 1292l424 267l119 -213l-459 -205zM154 0v1030l274 43v-1073h-274z" />
<glyph unicode="&#xee;" horiz-adv-x="581" d="M-80 1280l369 276l377 -276l-92 -150l-285 156l-277 -156zM154 0v1030l274 43v-1073h-274z" />
<glyph unicode="&#xef;" horiz-adv-x="581" d="M-80 1300q0 66 47 112t113 46q63 0 108.5 -46t45.5 -112t-46.5 -111.5t-111.5 -45.5q-63 0 -109.5 46t-46.5 111zM154 0v1030l274 43v-1073h-274zM350 1300q0 66 47 112t113 46q63 0 108.5 -46t45.5 -112t-46.5 -111.5t-111.5 -45.5q-63 0 -109.5 46t-46.5 111z" />
<glyph unicode="&#xf0;" horiz-adv-x="1097" d="M20 1196l164 195q66 -8 140.5 -29t150.5 -55l64 73l166 -73l-76 -88q45 -31 76.5 -56.5t66.5 -66.5q115 -135 174.5 -284.5t59.5 -317.5q0 -129 -35 -225.5t-97.5 -162t-146.5 -98.5t-182 -33q-96 0 -179 32t-143.5 91.5t-95.5 145.5t-35 194q0 98 33 177t90 135.5 t137 86t174 29.5q31 0 57.5 -2t49.5 -4q-29 39 -62.5 78t-72.5 70l-31 24l-88 -98l-166 74l98 110q-59 29 -132 48.5t-159 29.5zM369 434q0 -104 49 -169.5t139 -65.5t133 78.5t43 199.5q0 33 -4 70t-8 63q-29 18 -69 28.5t-113 10.5q-80 0 -125 -55t-45 -160z" />
<glyph unicode="&#xf1;" horiz-adv-x="1134" d="M117 1006l243 69q39 -68 39 -131q31 23 58.5 41.5t62.5 36.5q41 23 91.5 34t97.5 11q88 0 157.5 -42t94.5 -110q20 -55 20 -149v-766h-270v682q0 90 -19.5 122t-73.5 32q-41 0 -92 -26t-98 -69v-741h-274v760q0 68 -9.5 130t-27.5 116zM190 1354q43 53 105.5 86t148.5 33 q45 0 76 -11.5t58.5 -24t58 -23.5t75.5 -11q84 0 140 61l84 -155q-47 -59 -104.5 -89t-149.5 -30q-47 0 -78 11t-58.5 23.5t-57 24t-75.5 11.5q-84 0 -139 -60z" />
<glyph unicode="&#xf2;" horiz-adv-x="1112" d="M82 520q0 123 34 224.5t95 174t148 111.5t194 39q223 0 356 -158q63 -74 92 -164t29 -219q0 -135 -31.5 -231t-99.5 -174q-59 -68 -141 -107t-205 -39q-106 0 -193.5 39t-148.5 110t-95 171t-34 223zM201 1346l118 213l424 -267l-84 -151zM387 526q0 -182 35 -264 q18 -43 58 -64.5t81 -21.5q90 0 130 84t40 270q0 209 -55 281q-43 55 -119 55q-49 0 -87 -28.5t-54 -77.5q-14 -41 -21.5 -98.5t-7.5 -135.5z" />
<glyph unicode="&#xf3;" horiz-adv-x="1112" d="M82 520q0 123 34 224.5t95 174t148 111.5t194 39q223 0 356 -158q63 -74 92 -164t29 -219q0 -135 -31.5 -231t-99.5 -174q-59 -68 -141 -107t-205 -39q-106 0 -193.5 39t-148.5 110t-95 171t-34 223zM311 1292l424 267l119 -213l-459 -205zM387 526q0 -182 35 -264 q18 -43 58 -64.5t81 -21.5q90 0 130 84t40 270q0 209 -55 281q-43 55 -119 55q-49 0 -87 -28.5t-54 -77.5q-14 -41 -21.5 -98.5t-7.5 -135.5z" />
<glyph unicode="&#xf4;" horiz-adv-x="1112" d="M82 520q0 123 34 224.5t95 174t148 111.5t194 39q223 0 356 -158q63 -74 92 -164t29 -219q0 -135 -31.5 -231t-99.5 -174q-59 -68 -141 -107t-205 -39q-106 0 -193.5 39t-148.5 110t-95 171t-34 223zM184 1280l369 276l377 -276l-92 -150l-285 156l-277 -156zM387 526 q0 -182 35 -264q18 -43 58 -64.5t81 -21.5q90 0 130 84t40 270q0 209 -55 281q-43 55 -119 55q-49 0 -87 -28.5t-54 -77.5q-14 -41 -21.5 -98.5t-7.5 -135.5z" />
<glyph unicode="&#xf5;" horiz-adv-x="1112" d="M82 520q0 123 34 224.5t95 174t148 111.5t194 39q223 0 356 -158q63 -74 92 -164t29 -219q0 -135 -31.5 -231t-99.5 -174q-59 -68 -141 -107t-205 -39q-106 0 -193.5 39t-148.5 110t-95 171t-34 223zM180 1354q43 53 105.5 86t148.5 33q45 0 76 -11.5t58.5 -24t58 -23.5 t75.5 -11q84 0 140 61l84 -155q-47 -59 -104.5 -89t-149.5 -30q-47 0 -78 11t-58.5 23.5t-57 24t-75.5 11.5q-84 0 -139 -60zM387 526q0 -182 35 -264q18 -43 58 -64.5t81 -21.5q90 0 130 84t40 270q0 209 -55 281q-43 55 -119 55q-49 0 -87 -28.5t-54 -77.5 q-14 -41 -21.5 -98.5t-7.5 -135.5z" />
<glyph unicode="&#xf6;" horiz-adv-x="1112" d="M82 520q0 123 34 224.5t95 174t148 111.5t194 39q223 0 356 -158q63 -74 92 -164t29 -219q0 -135 -31.5 -231t-99.5 -174q-59 -68 -141 -107t-205 -39q-106 0 -193.5 39t-148.5 110t-95 171t-34 223zM182 1300q0 66 47 112t113 46q63 0 108.5 -46t45.5 -112t-46.5 -111.5 t-111.5 -45.5q-63 0 -109.5 46t-46.5 111zM387 526q0 -182 35 -264q18 -43 58 -64.5t81 -21.5q90 0 130 84t40 270q0 209 -55 281q-43 55 -119 55q-49 0 -87 -28.5t-54 -77.5q-14 -41 -21.5 -98.5t-7.5 -135.5zM614 1300q0 66 47 112t113 46q63 0 108.5 -46t45.5 -112 t-46.5 -111.5t-111.5 -45.5q-63 0 -109.5 46t-46.5 111z" />
<glyph unicode="&#xf7;" horiz-adv-x="1218" d="M92 438v215h1034v-215h-1034zM428 139q0 76 52 129.5t126 53.5t125 -53.5t51 -129.5q0 -72 -52 -122t-126 -50q-72 0 -124 50.5t-52 121.5zM432 954q0 37 13.5 70t37 57.5t55 39t68.5 14.5q74 0 126 -52.5t52 -126.5t-52 -125t-126 -51q-72 0 -123 51.5t-51 122.5z" />
<glyph unicode="&#xf8;" horiz-adv-x="1112" d="M82 520q0 123 34 224.5t95 174t148 111.5t194 39q125 0 223 -49l121 197l127 -72l-133 -215q76 -74 107.5 -173.5t31.5 -228.5q0 -135 -31.5 -231t-99.5 -174q-59 -68 -141 -107t-205 -39q-117 0 -211 48l-119 -197l-127 72l127 211q-68 72 -104.5 175t-36.5 234z M387 526q0 -39 2 -73.5t4 -63.5l266 438q-43 39 -102 39q-49 0 -87 -28.5t-54 -77.5q-14 -41 -21.5 -98.5t-7.5 -135.5zM457 213q23 -18 50.5 -27.5t53.5 -9.5q90 0 130 84t40 270q0 35 -1 70t-5 53z" />
<glyph unicode="&#xf9;" horiz-adv-x="1118" d="M143 352v672l271 51v-674q0 -72 6 -110.5t16 -61.5t38 -36t58 -13q51 0 102.5 31t67.5 70v737l263 55v-801q0 -53 16 -103t47 -87l-194 -111q-55 39 -82 103q-51 -49 -122 -75t-155 -26q-111 0 -196.5 47.5t-112.5 122.5q-12 35 -17.5 82t-5.5 127zM267 1346l118 213 l424 -267l-84 -151z" />
<glyph unicode="&#xfa;" horiz-adv-x="1118" d="M143 352v672l271 51v-674q0 -72 6 -110.5t16 -61.5t38 -36t58 -13q51 0 102.5 31t67.5 70v737l263 55v-801q0 -53 16 -103t47 -87l-194 -111q-55 39 -82 103q-51 -49 -122 -75t-155 -26q-111 0 -196.5 47.5t-112.5 122.5q-12 35 -17.5 82t-5.5 127zM338 1292l424 267 l119 -213l-459 -205z" />
<glyph unicode="&#xfb;" horiz-adv-x="1118" d="M143 352v672l271 51v-674q0 -72 6 -110.5t16 -61.5t38 -36t58 -13q51 0 102.5 31t67.5 70v737l263 55v-801q0 -53 16 -103t47 -87l-194 -111q-55 39 -82 103q-51 -49 -122 -75t-155 -26q-111 0 -196.5 47.5t-112.5 122.5q-12 35 -17.5 82t-5.5 127zM188 1280l369 276 l377 -276l-92 -150l-285 156l-277 -156z" />
<glyph unicode="&#xfc;" horiz-adv-x="1118" d="M143 352v672l271 51v-674q0 -72 6 -110.5t16 -61.5t38 -36t58 -13q51 0 102.5 31t67.5 70v737l263 55v-801q0 -53 16 -103t47 -87l-194 -111q-55 39 -82 103q-51 -49 -122 -75t-155 -26q-111 0 -196.5 47.5t-112.5 122.5q-12 35 -17.5 82t-5.5 127zM178 1300q0 66 47 112 t113 46q63 0 108.5 -46t45.5 -112t-46.5 -111.5t-111.5 -45.5q-63 0 -109.5 46t-46.5 111zM618 1300q0 66 47 112t113 46q63 0 108.5 -46t45.5 -112t-46.5 -111.5t-111.5 -45.5q-63 0 -109.5 46t-46.5 111z" />
<glyph unicode="&#xfd;" horiz-adv-x="1038" d="M0 1032l281 33l182 -612l55 -217q0 2 3 21t8.5 45t11.5 54.5t10 46.5q6 27 17.5 68t23.5 78l158 500h288l-381 -1065q-27 -76 -51 -132.5t-47.5 -96.5t-48.5 -68.5t-53 -48.5q-53 -39 -118 -63t-136 -34l-94 180q45 12 92 30t78 40q43 31 77 86q10 16 17.5 28.5t13.5 26 t12.5 29.5t16.5 39h-70zM319 1292l424 267l119 -213l-459 -205z" />
<glyph unicode="&#xfe;" horiz-adv-x="1142" d="M127 1452l281 66q6 -53 8 -93.5t2 -93.5v-248q0 -23 -1 -51t-5 -41q78 84 223 84q96 0 173 -37t131 -106.5t83 -167.5t29 -221q0 -160 -48.5 -282t-146.5 -200q-53 -43 -108.5 -62t-120.5 -19q-78 0 -129.5 21.5t-87.5 57.5v-440l-265 -70v1645q0 98 -4 155.5t-14 102.5z M422 281q29 -25 63.5 -46.5t89.5 -21.5q100 0 134 82q18 43 24 94.5t6 147.5q0 72 -2 107.5t-10 70.5q-16 68 -56 100.5t-93 32.5t-91 -27.5t-65 -56.5v-483z" />
<glyph unicode="&#xff;" horiz-adv-x="1038" d="M0 1032l281 33l182 -612l55 -217q0 2 3 21t8.5 45t11.5 54.5t10 46.5q6 27 17.5 68t23.5 78l158 500h288l-381 -1065q-27 -76 -51 -132.5t-47.5 -96.5t-48.5 -68.5t-53 -48.5q-53 -39 -118 -63t-136 -34l-94 180q45 12 92 30t78 40q43 31 77 86q10 16 17.5 28.5t13.5 26 t12.5 29.5t16.5 39h-70zM174 1300q0 66 47 112t113 46q63 0 108.5 -46t45.5 -112t-46.5 -111.5t-111.5 -45.5q-63 0 -109.5 46t-46.5 111zM604 1300q0 66 47 112t113 46q63 0 108.5 -46t45.5 -112t-46.5 -111.5t-111.5 -45.5q-63 0 -109.5 46t-46.5 111z" />
<glyph unicode="&#x152;" horiz-adv-x="1732" d="M92 715q0 293 144 485q66 88 155.5 136t190.5 69q41 8 101 13t159 5h813l-37 -233h-485v-330h405v-233h-405v-381h548v-246h-835q-113 0 -195 4t-145.5 19.5t-115.5 44t-103 79.5q-195 188 -195 568zM434 741q0 -125 14.5 -226t57.5 -173q35 -59 88 -89t137 -30 q45 0 83 8.5t48 12.5v915q-12 4 -57 12.5t-96 8.5q-141 0 -208 -105.5t-67 -333.5z" />
<glyph unicode="&#x153;" horiz-adv-x="1662" d="M82 520q0 123 34 224.5t95 174t148 111.5t194 39q186 0 307 -108q117 109 299 108q92 0 172 -28.5t131 -82.5q72 -74 106 -183t34 -275v-64h-607v-8q0 -123 57.5 -188.5t164.5 -65.5q139 0 266 105l106 -164q-178 -145 -395 -146q-201 0 -330 117q-57 -51 -132 -80 t-179 -29q-106 0 -193.5 39t-148.5 110t-95 171t-34 223zM387 526q0 -182 35 -264q18 -43 58 -64.5t81 -21.5q90 0 130 84t40 270q0 209 -55 281q-43 55 -119 55q-49 0 -87 -28.5t-54 -77.5q-14 -41 -21.5 -98.5t-7.5 -135.5zM999 637h318q0 68 -7 104.5t-26 65.5 q-41 61 -121 61q-78 0 -121 -59t-43 -172z" />
<glyph unicode="&#x178;" horiz-adv-x="1114" d="M-41 1423h344l182 -389q29 -59 44.5 -100t27.5 -82q12 31 32.5 79t43.5 99l184 393h338l-455 -837v-586h-299v586zM180 1628q0 66 47 112t113 46q63 0 108 -46t45 -112t-46 -112t-112 -46q-63 0 -109 46.5t-46 111.5zM610 1628q0 66 47 112t113 46q63 0 108 -46t45 -112 t-46 -112t-112 -46q-63 0 -109 46.5t-46 111.5z" />
<glyph unicode="&#x2c6;" horiz-adv-x="847" d="M51 1280l369 276l377 -276l-92 -150l-285 156l-277 -156z" />
<glyph unicode="&#x2dc;" horiz-adv-x="847" d="M51 1354q43 53 105.5 86t148.5 33q45 0 76 -11.5t58.5 -24t58 -23.5t75.5 -11q84 0 140 61l84 -155q-47 -59 -104.5 -89t-149.5 -30q-47 0 -78 11t-58.5 23.5t-57.5 24t-75 11.5q-84 0 -139 -60z" />
<glyph unicode="&#x2000;" horiz-adv-x="947" />
<glyph unicode="&#x2001;" horiz-adv-x="1894" />
<glyph unicode="&#x2002;" horiz-adv-x="947" />
<glyph unicode="&#x2003;" horiz-adv-x="1894" />
<glyph unicode="&#x2004;" horiz-adv-x="631" />
<glyph unicode="&#x2005;" horiz-adv-x="473" />
<glyph unicode="&#x2006;" horiz-adv-x="315" />
<glyph unicode="&#x2007;" horiz-adv-x="315" />
<glyph unicode="&#x2008;" horiz-adv-x="236" />
<glyph unicode="&#x2009;" horiz-adv-x="378" />
<glyph unicode="&#x200a;" horiz-adv-x="105" />
<glyph unicode="&#x2010;" horiz-adv-x="675" d="M92 442v238h492v-238h-492z" />
<glyph unicode="&#x2011;" horiz-adv-x="675" d="M92 442v238h492v-238h-492z" />
<glyph unicode="&#x2012;" horiz-adv-x="675" d="M92 442v238h492v-238h-492z" />
<glyph unicode="&#x2013;" horiz-adv-x="1181" d="M92 457v211h998v-211h-998z" />
<glyph unicode="&#x2014;" horiz-adv-x="1644" d="M92 457v211h1460v-211h-1460z" />
<glyph unicode="&#x2018;" horiz-adv-x="550" d="M82 1098q0 68 20.5 127t59.5 108t91 84t118 51l108 -114q-68 -16 -107.5 -47t-39.5 -70q0 -20 11 -34.5t42 -31.5q80 -45 80 -143q0 -74 -52.5 -125t-125.5 -51q-90 0 -147.5 69.5t-57.5 176.5z" />
<glyph unicode="&#x2019;" horiz-adv-x="550" d="M72 954q66 16 106.5 48t40.5 69q0 20 -11 33.5t-42 32.5q-80 47 -80 143q0 74 51 125t127 51q90 0 147.5 -68.5t57.5 -177.5q0 -66 -20.5 -126t-59.5 -108t-92 -83t-117 -51z" />
<glyph unicode="&#x201a;" horiz-adv-x="550" d="M72 -182q68 16 107.5 48t39.5 68q0 20 -11 34t-42 32q-80 47 -80 143q0 74 52 125t126 51q90 0 147.5 -68t57.5 -177q0 -68 -20.5 -127.5t-59.5 -108.5t-92 -84t-117 -51z" />
<glyph unicode="&#x201c;" horiz-adv-x="1011" d="M82 1100q0 68 20.5 127t59.5 108t91 84t118 51l108 -114q-68 -16 -107.5 -47t-39.5 -70q0 -20 11 -33.5t42 -31.5q80 -47 80 -144q0 -74 -52.5 -125t-127.5 -51q-88 0 -145.5 68.5t-57.5 177.5zM545 1100q0 135 78.5 236.5t207.5 133.5l109 -114q-66 -16 -105.5 -47 t-39.5 -70q0 -20 10 -32.5t43 -32.5q80 -49 80 -144q0 -74 -52.5 -125t-127.5 -51q-90 0 -146.5 68.5t-56.5 177.5z" />
<glyph unicode="&#x201d;" horiz-adv-x="1011" d="M72 954q66 16 106.5 48t40.5 69q0 20 -11 33.5t-42 32.5q-80 47 -80 143q0 74 51 125t127 51q90 0 147.5 -68.5t57.5 -177.5q0 -66 -20.5 -126t-59.5 -108t-92 -83t-117 -51zM535 954q66 16 105.5 48t39.5 69q0 20 -10.5 33.5t-40.5 32.5q-80 47 -80 143q0 74 51 125 t127 51q90 0 146.5 -68.5t56.5 -177.5q0 -66 -20.5 -126t-58.5 -108t-91 -83t-117 -51z" />
<glyph unicode="&#x201e;" horiz-adv-x="1013" d="M72 -182q68 16 107.5 48t39.5 68q0 20 -11 34t-42 32q-80 47 -80 143q0 74 52 125t126 51q90 0 147.5 -68t57.5 -177q0 -68 -20.5 -127.5t-59.5 -108.5t-92 -84t-117 -51zM535 -182q66 16 105.5 48t39.5 68q0 20 -10.5 34t-40.5 32q-80 47 -80 143q0 74 51 125t127 51 q90 0 147.5 -68t57.5 -177q0 -68 -20.5 -127.5t-59.5 -108.5t-92 -84t-117 -51z" />
<glyph unicode="&#x2022;" horiz-adv-x="991" d="M133 725q0 76 28.5 141.5t78 114.5t115 77.5t141.5 28.5t141 -28.5t114.5 -77.5t78 -114.5t28.5 -141.5t-28.5 -141.5t-78 -114.5t-115 -78t-140.5 -29q-76 0 -141.5 29t-115 78t-78 114.5t-28.5 141.5z" />
<glyph unicode="&#x2026;" horiz-adv-x="1609" d="M113 150q0 74 52 126t126 52q76 0 129 -52t53 -126q0 -37 -14.5 -71t-39 -58.5t-57 -39t-69.5 -14.5q-76 0 -128 53.5t-52 129.5zM625 150q0 74 52 126t126 52q76 0 129 -52t53 -126q0 -37 -14.5 -71t-39 -58.5t-57 -39t-69.5 -14.5q-76 0 -128 53.5t-52 129.5zM1137 150 q0 74 52 126t126 52q76 0 129 -52t53 -126q0 -37 -14.5 -71t-39 -58.5t-57 -39t-69.5 -14.5q-76 0 -128 53.5t-52 129.5z" />
<glyph unicode="&#x202f;" horiz-adv-x="378" />
<glyph unicode="&#x2039;" horiz-adv-x="634" d="M61 510l326 479l186 -125l-237 -354l237 -354l-186 -125z" />
<glyph unicode="&#x203a;" horiz-adv-x="634" d="M61 156l238 354l-238 354l187 125l325 -479l-325 -479z" />
<glyph unicode="&#x205f;" horiz-adv-x="473" />
<glyph unicode="&#x20ac;" horiz-adv-x="1273" d="M49 442v201h205v94q0 35 4 64h-209v200h250q23 70 51 123q84 156 227.5 243t317.5 87q106 0 179 -21.5t120 -50.5l-68 -235q-109 80 -227 80q-72 0 -137.5 -33t-104.5 -90q-16 -23 -26 -48.5t-21 -54.5h396v-200h-426q-2 -39 -3.5 -78t3.5 -80h426v-201h-402 q12 -53 33 -86q88 -160 274 -159q63 0 122 20.5t122 71.5l70 -221q-37 -23 -71 -40.5t-73 -28.5t-84 -17.5t-106 -6.5q-293 0 -465 197q-100 113 -143 270h-234z" />
<glyph unicode="&#x2122;" horiz-adv-x="2109" d="M92 1253v197h709v-197h-244v-647h-221v647h-244zM981 606v844h297l201 -549l200 549h297v-844h-221v549h-4l-201 -549h-143l-201 549h-4v-549h-221z" />
<glyph unicode="&#xe000;" horiz-adv-x="1075" d="M0 0v1075h1075v-1075h-1075z" />
</font>
</defs>
</svg>
