<?xml version="1.0" standalone="no"?>
<!DOCTYPE svg PUBLIC "-//W3C//DTD SVG 1.1//EN" "http://www.w3.org/Graphics/SVG/1.1/DTD/svg11.dtd" >
<svg xmlns="http://www.w3.org/2000/svg">
<metadata></metadata>
<defs>
<font id="metacomp-normalregular" horiz-adv-x="1167" >
<font-face units-per-em="2048" ascent="1563" descent="-485" />
<missing-glyph horiz-adv-x="471" />
<glyph unicode="&#xfb01;" horiz-adv-x="1159" d="M96 899v121h99v160q0 57 11 98t28.5 70.5t37 49t35.5 32.5q72 53 180 53q135 0 226 -60l-60 -112q-29 16 -69.5 31.5t-81.5 15.5q-139 0 -140 -180v-158h603v-1020h-170v899h-433v-899h-167v899h-99zM756 1331q0 53 35.5 90t89.5 37q53 0 89 -36t36 -89t-36 -89t-89 -36 t-89 36t-36 87z" />
<glyph unicode="&#xfb02;" horiz-adv-x="1138" d="M96 899v121h99v160q0 57 11 98t28.5 70.5t37 49t35.5 32.5q72 53 180 53q135 0 226 -60l-60 -112q-29 16 -69.5 31.5t-81.5 15.5q-139 0 -140 -180v-158h283l-49 -121h-234v-899h-167v899h-99zM754 1466l166 33q6 -16 15 -98t9 -227v-969q0 -59 11.5 -81t45.5 -22 q8 0 21 4l33 -104q-31 -14 -50.5 -18t-52.5 -4q-76 0 -121 43q-29 25 -39 57.5t-10 87.5v1006q0 57 -1 99t-4 74.5t-9 60.5t-14 58z" />
<glyph unicode="&#xfb03;" horiz-adv-x="1730" d="M96 899v121h99v160q0 57 11 98t28.5 70.5t37 49t35.5 32.5q72 53 180 53q135 0 226 -60l-60 -112q-29 16 -69.5 31.5t-81.5 15.5q-139 0 -140 -180v-158h404v160q0 57 11 98t28.5 70.5t37 49t36.5 32.5q72 53 180 53q135 0 225 -60l-59 -112q-29 16 -70 31.5t-82 15.5 q-139 0 -139 -180v-158h602v-1020h-170v899h-432v-899h-168v899h-404v-899h-167v899h-99zM1327 1333q0 53 36 90t89 37t89 -36t36 -89t-36 -89t-89 -36t-89 36t-36 87z" />
<glyph unicode="&#xfb04;" horiz-adv-x="1710" d="M96 899v121h99v160q0 57 11 98t28.5 70.5t37 49t35.5 32.5q72 53 180 53q135 0 226 -60l-60 -112q-29 16 -69.5 31.5t-81.5 15.5q-139 0 -140 -180v-158h404v160q0 57 11 98t28.5 70.5t37 49t36.5 32.5q72 53 180 53q135 0 225 -60l-59 -112q-29 16 -70 31.5t-82 15.5 q-139 0 -139 -180v-158h283l-50 -121h-233v-899h-168v899h-404v-899h-167v899h-99zM1323 1466l166 33q8 -27 17.5 -108.5t9.5 -216.5v-969q0 -59 11 -81t46 -22q8 0 20 4l33 -104q-31 -14 -50.5 -18t-51.5 -4q-76 0 -121 43q-29 25 -39 57.5t-10 87.5v1006q0 57 -1 99 t-4 74.5t-9.5 60.5t-16.5 58z" />
<glyph horiz-adv-x="2048" />
<glyph horiz-adv-x="2048" />
<glyph unicode="&#xd;" horiz-adv-x="471" />
<glyph unicode=" "  horiz-adv-x="471" />
<glyph unicode="&#x09;" horiz-adv-x="471" />
<glyph unicode="&#xa0;" horiz-adv-x="471" />
<glyph unicode="!" horiz-adv-x="598" d="M174 113q0 53 36 89t89 36t89 -36t36 -87q0 -53 -36 -91t-89 -38t-89 36.5t-36 90.5zM197 1405l200 27l-39 -1026h-122z" />
<glyph unicode="&#x22;" horiz-adv-x="837" d="M195 958v492h147v-492h-147zM496 958v492h147v-492h-147z" />
<glyph unicode="#" horiz-adv-x="1159" d="M72 436v135h221l41 312h-201v135h221l62 432h137l-61 -432h258l61 432h137l-61 -432h200v-135h-219l-43 -312h201v-135h-221l-62 -436h-137l62 436h-258l-62 -436h-137l61 436h-200zM430 571h258l43 312h-258z" />
<glyph unicode="$" d="M156 100l73 131q86 -59 172 -89.5t187 -30.5v551l-51 16q-96 31 -152.5 57.5t-97.5 67.5q-88 94 -88 229q0 166 105.5 273.5t283.5 126.5v172h121v-170q197 -16 368 -134l-73 -120q-88 57 -155 83.5t-140 32.5v-489l67 -21q94 -29 149.5 -60.5t98.5 -80.5t67.5 -115.5 t24.5 -132.5q0 -76 -30.5 -145.5t-85 -126.5t-129 -95t-162.5 -50v-199h-121v192q-123 0 -227.5 33t-204.5 94zM381 1067q0 -80 48 -131t159 -92v448q-98 -16 -152.5 -74.5t-54.5 -150.5zM709 119q49 8 90 30.5t69.5 56.5t45 77t16.5 90q0 172 -221 250v-504z" />
<glyph unicode="%" horiz-adv-x="1757" d="M92 1067q0 164 87 256t241 92q170 0 251 -100t81 -260q0 -158 -88.5 -249t-241.5 -91q-154 0 -242 94t-88 258zM231 1083q0 -127 43 -191.5t154 -64.5q88 0 137 55.5t49 164.5q0 45 -6 91t-26.5 82.5t-59.5 59.5t-104 23q-98 0 -142.5 -57.5t-44.5 -162.5zM475 0 l682 1395h135l-682 -1395h-135zM1006 332q0 164 87 256t240 92q170 0 251 -100.5t81 -260.5q0 -158 -88 -248.5t-242 -90.5t-241.5 94t-87.5 258zM1145 348q0 -127 43 -191.5t153 -64.5q88 0 137.5 55t49.5 164q0 45 -6 91.5t-26.5 83t-59.5 59t-105 22.5q-98 0 -142 -57 t-44 -162z" />
<glyph unicode="&#x26;" horiz-adv-x="1400" d="M133 348q0 68 19.5 119t56.5 93t90 77t121 68q-100 90 -149.5 163.5t-49.5 151.5q0 70 30 129t80 102t116.5 67.5t138.5 24.5q76 0 144.5 -20t119.5 -60t82 -99.5t31 -135.5q0 -59 -19.5 -105t-56.5 -85t-92.5 -75t-124.5 -73l329 -325q16 35 27.5 107.5t7.5 207.5h142 q0 -92 -5.5 -157.5t-15.5 -113t-24.5 -83t-30.5 -68.5l260 -258h-213l-137 133q-61 -76 -170 -120t-232 -44q-111 0 -198.5 28t-149 78t-94.5 119.5t-33 153.5zM309 336q0 -109 81 -175.5t222 -66.5q104 0 186.5 39t123.5 92l-406 396q-207 -98 -207 -285zM393 1040 q0 -29 7.5 -55.5t28 -55t56 -65.5t93.5 -86q121 57 164.5 117.5t43.5 134.5q0 86 -55 141.5t-143 55.5q-37 0 -72 -10.5t-62.5 -34t-44 -58t-16.5 -84.5z" />
<glyph unicode="'" horiz-adv-x="536" d="M195 958v492h147v-492h-147z" />
<glyph unicode="(" horiz-adv-x="665" d="M195 657q0 133 13 238.5t38.5 190.5t61.5 153t81 123q57 72 132 129t151 86l39 -78q-104 -61 -182 -145t-117 -221q-27 -94 -40.5 -215t-13.5 -256q0 -199 26 -370t97 -298q43 -76 98.5 -130t137.5 -100l-45 -81q-129 49 -232.5 159.5t-163.5 261.5q-23 59 -39 131 t-25 146t-13 144.5t-4 131.5z" />
<glyph unicode=")" horiz-adv-x="665" d="M-51 1499l45 82q129 -49 232.5 -159.5t162.5 -262.5q23 -59 39 -131t25.5 -145.5t13.5 -144.5t4 -132q0 -133 -13.5 -238.5t-39 -190.5t-61 -152.5t-81.5 -122.5q-57 -72 -131.5 -129.5t-150.5 -85.5l-39 77q104 61 182 145.5t117 221.5q27 94 40 215t13 256 q0 199 -25.5 370t-97.5 298q-43 76 -98 130t-137 99z" />
<glyph unicode="*" horiz-adv-x="966" d="M92 1124l39 119l291 -98v305h123v-305l291 98l38 -119l-288 -98l182 -244l-100 -77l-185 251l-178 -251l-102 77l178 244z" />
<glyph unicode="+" horiz-adv-x="1101" d="M113 438v148h364v364h148v-364h364v-148h-364v-364h-148v364h-364z" />
<glyph unicode="," horiz-adv-x="593" d="M133 -203q121 59 137 183q-4 -2 -12 -3h-10q-47 0 -80 39t-33 93q0 61 42 104t102 43q72 0 116.5 -55.5t44.5 -141.5q0 -53 -20.5 -107t-57.5 -104q-31 -41 -77.5 -77.5t-94.5 -63.5z" />
<glyph unicode="-" horiz-adv-x="616" d="M113 469v156h391v-156h-391z" />
<glyph unicode="." horiz-adv-x="581" d="M154 115q0 57 38.5 96t96.5 39q59 0 99 -39t40 -96q0 -59 -40 -100.5t-95 -41.5q-59 0 -99 41t-40 101z" />
<glyph unicode="/" horiz-adv-x="931" d="M133 -303l531 1853h135l-531 -1853h-135z" />
<glyph unicode="0" d="M113 688q0 137 36.5 260t100 215t148.5 146.5t180 54.5q133 0 224 -68.5t146.5 -171t80 -225.5t24.5 -229q0 -158 -35 -287t-98.5 -221t-150.5 -143.5t-194 -51.5q-131 0 -219 74t-142 183.5t-77.5 234.5t-23.5 229zM295 680q0 -113 10 -203t31 -149 q37 -111 102.5 -173.5t141.5 -62.5q70 0 134 53.5t103 143.5q31 72 43 167t12 212q0 111 -8 187.5t-35 154.5q-35 109 -99 167t-148 58q-61 0 -118.5 -45t-98.5 -129q-70 -139 -70 -381z" />
<glyph unicode="1" d="M180 1061l393 276h127v-1208h207v-129h-602v129h234v1016q-6 -4 -22.5 -15.5t-38 -25.5t-45 -28.5t-46.5 -24.5q-20 -10 -47 -22.5t-51.5 -23t-45 -19.5t-28.5 -13z" />
<glyph unicode="2" d="M170 1169q115 98 221.5 145.5t216.5 47.5q80 0 149.5 -29.5t121 -80t81 -120t29.5 -149.5q0 -88 -34.5 -182t-96.5 -180q-72 -96 -180 -213q-51 -53 -98.5 -102.5t-87 -88.5t-68.5 -63.5t-41 -30.5q16 2 69.5 5t104.5 3h434l-33 -131h-782v92q59 41 134 111.5t173 181.5 q84 94 144.5 174t98.5 148.5t56.5 130t18.5 118.5q0 115 -69.5 190t-178.5 75q-45 0 -85 -11.5t-77 -29t-73.5 -41t-77.5 -47.5z" />
<glyph unicode="3" d="M137 1190q39 37 90.5 68.5t107.5 54t114.5 36t113.5 13.5q86 0 157 -24.5t123 -69.5t80.5 -105.5t28.5 -134.5q0 -111 -65.5 -191.5t-181.5 -111.5q57 -14 108 -42t90 -68t62.5 -91t23.5 -114q0 -68 -24.5 -129.5t-66.5 -114.5t-99.5 -95t-122.5 -71 q-72 -31 -172.5 -49.5t-210.5 -18.5q-37 0 -54.5 1t-45.5 6l-37 110q14 -2 25.5 -4t21.5 -3t22 -1h35q135 0 242.5 27.5t199.5 111.5q55 49 81 112.5t26 133.5q0 84 -46 145.5t-124 83.5q-23 6 -41 10.5t-43 5.5t-63.5 2t-100.5 1h-20v114h18q111 0 174.5 4.5t100.5 20.5 q53 23 83.5 76t30.5 119q0 98 -66.5 158.5t-176.5 60.5q-92 0 -173 -34t-153 -87z" />
<glyph unicode="4" d="M113 256v127l485 958h178l-422 -835q-23 -43 -45 -81t-28 -48q6 2 31.5 4t47.5 2h318q16 0 28.5 -1t16.5 -1q0 6 -1 27.5t-1 29.5q0 27 2 52.5t4 60.5l25 362l127 39v-508q0 -25 -1 -42t-1 -21q4 0 17 1t30 1h120v-127h-112q-18 0 -34.5 1t-20.5 1q0 -6 1 -28.5t1 -51.5 v-186l-158 -47v231q0 25 1 50.5t1 31.5q-6 0 -28.5 -1t-53.5 -1h-528z" />
<glyph unicode="5" d="M207 70q20 -10 37.5 -15.5t34 -8.5t35 -4t44.5 -1q94 0 175 28.5t140.5 79t94.5 119t35 146.5q0 94 -51 164q-39 53 -99.5 77.5t-156.5 24.5q-74 0 -143.5 -11.5t-114.5 -33.5l65 690h606l-24 -135h-436l-35 -395q27 2 44 4t31.5 3t28.5 1h35q223 0 340 -137 q41 -51 63.5 -116.5t22.5 -133.5q0 -61 -18.5 -123t-52.5 -115t-81 -98t-104 -74q-70 -35 -161 -56.5t-175 -21.5q-23 0 -41 2l-35 2q-16 0 -33.5 4.5t-41.5 10.5z" />
<glyph unicode="6" d="M143 522q0 166 47.5 292t149.5 247q115 135 251 221t302 135l39 -102q-143 -47 -273.5 -139.5t-214.5 -214.5q-35 -49 -55 -107.5t-41 -144.5q53 49 134 77.5t165 28.5q86 0 161 -30.5t129 -84t86 -128t32 -160.5q0 -96 -35 -177t-95.5 -141.5t-142.5 -94.5t-178 -34 q-104 0 -189 40t-145.5 112.5t-93.5 175t-33 229.5zM332 479q0 -68 12 -137.5t43 -124.5t83 -91t134 -36q123 0 194.5 85.5t71.5 232.5q0 131 -67 204q-35 37 -85 58.5t-104 21.5q-70 0 -140.5 -27.5t-135.5 -80.5q-4 -35 -5 -55.5t-1 -49.5z" />
<glyph unicode="7" d="M158 1188l39 135h854l-39 -164q-100 -139 -194.5 -286.5t-174.5 -305.5q-31 -59 -65.5 -134t-65.5 -152.5t-55.5 -155.5t-36.5 -145l-199 -50q10 68 37 150t64.5 172t85 184t96.5 187q92 172 192.5 323.5t190.5 243.5q-14 0 -68.5 -1t-120.5 -1h-540z" />
<glyph unicode="8" d="M125 344q0 68 22.5 124t61.5 102t92 79t113 56q-117 53 -179.5 136t-62.5 181q0 94 38 158.5t98.5 104.5t138 58.5t157.5 18.5q88 0 161 -22.5t124 -63.5t79.5 -98.5t28.5 -126.5q0 -66 -24.5 -118t-64.5 -92t-91 -71t-106 -51q70 -31 131 -62.5t105 -71.5t69.5 -91 t25.5 -125q0 -96 -38.5 -171t-103 -127.5t-148.5 -79t-172 -26.5q-98 0 -181.5 29t-144.5 79t-95 119.5t-34 151.5zM289 354q0 -123 83 -195.5t220 -72.5q127 0 204.5 67.5t77.5 176.5q0 90 -53 147q-35 37 -103.5 77t-203.5 101q-47 -27 -88 -54.5t-71.5 -63t-48 -79.5 t-17.5 -104zM328 1036q0 -55 26.5 -97t68.5 -73.5t91 -54.5t92 -41q125 66 180.5 130t55.5 138q0 94 -70 150.5t-188 56.5q-117 0 -186.5 -56t-69.5 -153z" />
<glyph unicode="9" d="M104 0q31 4 55.5 8t46 10.5t44 14.5t51.5 20q137 59 261 155.5t202 237.5q10 16 25.5 48t27.5 67q-115 -80 -254 -80q-90 0 -164.5 32t-129 88t-85 135t-30.5 171q0 98 35.5 182.5t97 145.5t145.5 96t180 35q104 0 186.5 -40t138.5 -108.5t85 -158t29 -187.5 q0 -174 -73 -349t-200 -314q-72 -78 -153.5 -134.5t-192.5 -103.5q-43 -18 -72.5 -29.5t-56.5 -19.5t-54.5 -12t-64.5 -8zM334 905q0 -141 66.5 -222t183.5 -81q72 0 135 25.5t135 83.5q12 53 16 83.5t4 75.5q0 82 -19 151t-55 117t-85 74.5t-111 26.5q-123 0 -196.5 -92 t-73.5 -242z" />
<glyph unicode=":" horiz-adv-x="622" d="M174 113q0 59 40 99t99 40q55 0 95.5 -40t40.5 -97q0 -59 -40 -99.5t-100 -40.5q-57 0 -96 40t-39 98zM174 758q0 59 40 100t99 41q55 0 95.5 -40t40.5 -97q0 -59 -40 -99t-98 -40q-57 0 -97 38.5t-40 96.5z" />
<glyph unicode=";" horiz-adv-x="655" d="M174 -203q121 59 137 183q-10 -2 -14 -3h-8q-47 0 -80 39t-33 93q0 61 42 104t101 43q72 0 117 -55.5t45 -141.5q0 -53 -20.5 -107t-57.5 -104q-31 -41 -77.5 -77.5t-94.5 -63.5zM174 766q0 53 40 92t97 39t98.5 -40t41.5 -95q0 -59 -40 -100t-98 -41q-57 0 -98 43 t-41 102z" />
<glyph unicode="&#x3c;" horiz-adv-x="669" d="M51 614l391 527l136 -88l-328 -439l328 -438l-136 -88z" />
<glyph unicode="=" horiz-adv-x="1294" d="M113 393v135h1069v-135h-1069zM113 713v135h1069v-135h-1069z" />
<glyph unicode="&#x3e;" horiz-adv-x="671" d="M92 176l328 438l-328 439l135 88l394 -527l-394 -526z" />
<glyph unicode="?" horiz-adv-x="897" d="M92 1303q72 55 174.5 87.5t202.5 32.5q141 0 228 -82t87 -219q0 -76 -28.5 -133t-66.5 -98t-72.5 -65.5t-47.5 -34.5q-102 -84 -102 -230q0 -51 12 -106h-137q-18 74 -18 139q0 78 26.5 146.5t87.5 125.5q31 29 62.5 51.5t59.5 48t45.5 60.5t17.5 88q0 76 -52.5 123 t-132.5 47q-74 0 -138 -23.5t-140 -70.5zM287 113q0 57 40 97t97 40t98 -40t41 -97q0 -59 -40 -100.5t-97 -41.5t-98 41t-41 101z" />
<glyph unicode="@" horiz-adv-x="1886" d="M133 418q0 180 61.5 337.5t172 274.5t262 183.5t332.5 66.5q168 0 312 -50t250.5 -143.5t168 -225.5t61.5 -294q0 -135 -36 -245.5t-97 -188.5t-142 -120t-169 -42q-72 0 -116 22.5t-68.5 57.5t-29.5 77t1 83q-23 -41 -57.5 -80t-77.5 -68.5t-93.5 -48t-101.5 -18.5 q-41 0 -82 17.5t-73.5 54t-52 92t-19.5 129.5q0 123 34.5 237.5t102 203.5t169 143.5t234.5 54.5q74 0 136.5 -18.5t115.5 -47.5q-10 -33 -23.5 -88t-23.5 -100l-78 -371q-27 -123 -2 -173t111 -50q61 0 115.5 38t93.5 104.5t61.5 154.5t22.5 190q0 127 -47.5 236.5 t-132.5 191.5t-203.5 128t-263.5 46q-156 0 -281 -63.5t-214 -167.5t-137 -239.5t-48 -280.5q0 -143 50 -262t137 -203t205 -131t251 -47q84 0 156.5 11t123.5 28l27 -111q-59 -20 -140 -30.5t-167 -10.5q-160 0 -303.5 49t-252 145.5t-172 238t-63.5 323.5zM682 281 q0 -90 31.5 -127t95.5 -37q37 0 79 17.5t81 53t70.5 90t47.5 128.5l82 387q-20 12 -45.5 20t-58.5 8q-104 0 -177 -51t-119 -131t-66.5 -175t-20.5 -183z" />
<glyph unicode="A" horiz-adv-x="1193" d="M20 0l469 1405h220l465 -1405h-191l-133 432h-524l-136 -432h-170zM371 569h436l-215 688z" />
<glyph unicode="B" horiz-adv-x="1247" d="M195 0v1405h202q104 0 173 -1t114 -5t74.5 -10.5t56.5 -14.5q109 -37 174.5 -125t65.5 -196q0 -111 -65.5 -190t-186.5 -118q66 -12 107.5 -28.5t76.5 -44.5q70 -53 98.5 -131t28.5 -156q0 -117 -57.5 -210t-161.5 -134q-29 -10 -55.5 -18.5t-63.5 -13.5t-89 -7t-130 -2 h-362zM356 137h299q156 0 219.5 67.5t63.5 194.5q0 92 -47 162t-123 86q-29 6 -70 10.5t-94 4.5h-248v-525zM356 801h244q57 0 97 5t68 19.5t46 38t35 58.5q22 51 22 108q0 84 -44 143.5t-115 77.5q-29 8 -65 10.5t-89 2.5h-199v-463z" />
<glyph unicode="C" horiz-adv-x="1173" d="M133 698q0 156 44 289t123 230.5t187.5 151.5t235.5 54q102 0 192.5 -29.5t161.5 -84.5l-90 -109q-63 47 -125.5 67.5t-140.5 20.5q-123 0 -209 -61.5t-137 -179.5q-31 -72 -45.5 -160t-14.5 -213q0 -102 10.5 -169t34.5 -128q53 -133 154.5 -197.5t222.5 -64.5 q78 0 142.5 21.5t132.5 68.5l90 -113q-86 -55 -186.5 -85t-204.5 -30q-115 0 -221.5 47.5t-188.5 139.5q-90 102 -129 239.5t-39 294.5z" />
<glyph unicode="D" horiz-adv-x="1296" d="M195 0v1405h280q80 0 141.5 -3t112.5 -14.5t98 -33t99 -58.5q121 -86 179 -237.5t58 -358.5q0 -186 -44 -316t-115 -208q-47 -51 -94.5 -85t-99.5 -54.5t-113.5 -28.5t-135.5 -8h-366zM362 139h168q55 0 106.5 4t97.5 19.5t85 45.5t68 79q47 82 70.5 182t23.5 211 q0 158 -25.5 266.5t-95.5 192.5q-35 41 -69.5 66.5t-74.5 38.5t-85 18.5t-101 5.5h-168v-1129z" />
<glyph unicode="E" horiz-adv-x="1064" d="M195 0v1405h768l-23 -139h-575v-461h481v-146h-481v-514h618v-145h-788z" />
<glyph unicode="F" horiz-adv-x="903" d="M195 0v1405h739l-27 -139h-542v-461h450v-137h-450v-668h-170z" />
<glyph unicode="G" horiz-adv-x="1310" d="M135 698q0 203 53.5 347.5t163.5 242.5q147 133 367 133q223 0 385 -139l-76 -104q-86 59 -154.5 83.5t-150.5 24.5q-123 0 -215 -57.5t-135 -179.5q-55 -158 -56 -357q0 -139 26 -247.5t73 -178.5q25 -35 61.5 -62.5t81.5 -47t96.5 -29.5t100.5 -10q133 0 223 55v428 h-283l-32 139h473v-655q-76 -49 -181.5 -78t-214.5 -29q-268 0 -432 177q-90 98 -132 230t-42 314z" />
<glyph unicode="H" horiz-adv-x="1312" d="M195 0v1405h163v-588h592v588h168v-1405h-168v680h-592v-680h-163z" />
<glyph unicode="I" horiz-adv-x="552" d="M195 0v1405h163v-1405h-163z" />
<glyph unicode="J" horiz-adv-x="571" d="M6 -158q57 23 101.5 60t66.5 78q20 35 27.5 91t7.5 165v1169h168v-1165q0 -68 -2 -115t-7.5 -84t-15.5 -65.5t-26 -57.5q-70 -123 -238 -180z" />
<glyph unicode="K" horiz-adv-x="1138" d="M195 0v1405h170v-1405h-170zM373 743l540 662h215l-565 -660l561 -745h-215z" />
<glyph unicode="L" horiz-adv-x="948" d="M195 0v1405h167v-1264h556l-23 -141h-700z" />
<glyph unicode="M" horiz-adv-x="1650" d="M143 0l123 1405h246l256 -918q27 -98 40 -165.5t15 -77.5q2 8 15.5 75.5t35.5 151.5l265 934h247l121 -1405h-168l-82 1030q-2 33 -4 73t-3 75.5t-2 60.5t-1 29q-2 -4 -7 -26.5t-13 -55.5t-17.5 -69t-17.5 -68l-301 -1049h-143l-279 997q-29 104 -47 177q-18 66 -23 88 q0 -8 -2 -35q-2 -31 -4 -72t-5 -83t-5 -73l-78 -999h-162z" />
<glyph unicode="N" horiz-adv-x="1323" d="M195 0v1405h194l467 -897q27 -49 49.5 -100.5t40 -92.5t28.5 -68.5t13 -33.5q0 2 -3 41t-6 99.5t-6 136t-3 151.5l-6 764h165v-1405h-176l-450 860q-31 57 -56.5 110.5t-47 97.5t-36.5 77q-14 33 -20 51q2 -16 4 -53q2 -39 5 -91.5t6 -113.5t3 -123l9 -815h-174z" />
<glyph unicode="O" horiz-adv-x="1394" d="M133 709q0 168 39 301t110.5 226t176 143.5t233.5 50.5q92 0 163 -22t124 -55.5t92 -74.5t64 -78q66 -98 96.5 -224t30.5 -296q0 -203 -49.5 -338t-155.5 -233q-78 -72 -162 -104t-195 -32q-129 0 -228 48.5t-171 130.5q-168 193 -168 557zM319 743q0 -160 25 -288.5 t66 -200.5q20 -35 53 -62.5t72.5 -47t85 -31t88.5 -11.5q86 0 150.5 31t111.5 90q27 33 46 72t31.5 90t18.5 117.5t6 152.5q0 156 -16.5 264.5t-50.5 182.5q-37 78 -114 135t-200 57q-98 0 -179 -44t-122 -120q-37 -70 -54.5 -163t-17.5 -224z" />
<glyph unicode="P" horiz-adv-x="1122" d="M195 0v1405h389q115 0 182.5 -14.5t124.5 -51.5q180 -118 180 -335q0 -109 -28.5 -190t-98.5 -144q-72 -63 -151.5 -87t-188.5 -24h-246v-559h-163zM358 696h236q90 0 137 17.5t82 58.5q72 80 72 199q0 154 -82 223q-43 37 -104.5 53.5t-161.5 16.5h-179v-568z" />
<glyph unicode="Q" horiz-adv-x="1394" d="M133 709q0 168 39 301t110.5 226t176 143.5t233.5 50.5q82 0 150.5 -18.5t124 -50.5t97.5 -74t71 -87q66 -102 97.5 -226t31.5 -294q0 -203 -50.5 -337t-156.5 -234q-43 -39 -90 -68q43 -14 95 -44t93 -52q29 -16 77 -37t111 -21q29 0 52.5 3.5t31.5 7.5l-55 -134 q-37 -18 -121 -18q-33 0 -69.5 11.5t-72.5 26.5t-68.5 33.5t-57.5 35.5q-53 33 -90 52t-68.5 32.5t-63.5 20.5t-75 15q-131 0 -225 53.5t-158 125.5q-170 195 -170 557zM319 743q0 -160 26 -288.5t67 -200.5q41 -70 123.5 -111t175.5 -41q86 0 149.5 30t110.5 91 q27 33 46 74t32.5 92t19.5 116.5t6 149.5q0 156 -17.5 264.5t-51.5 182.5q-16 35 -43 69.5t-65 62.5t-88 44t-118 16q-98 0 -177 -45t-120 -119q-39 -70 -57.5 -163t-18.5 -224z" />
<glyph unicode="R" horiz-adv-x="1138" d="M195 0v1405h327q72 0 127.5 -6t97 -18.5t73.5 -29t57 -36.5q25 -18 49 -46t43.5 -65t33 -83t13.5 -101q0 -86 -26.5 -157.5t-76 -122t-118 -78t-152.5 -27.5h-20q35 -29 73.5 -74t67.5 -84q20 -27 65 -93.5t96.5 -142t96.5 -143.5l65 -98h-210q-16 35 -47 91t-77 127 t-105.5 154t-129.5 173q-41 53 -73.5 70.5t-86.5 19.5v-635h-163zM358 739h156q94 0 153.5 17.5t100.5 54.5q35 33 53.5 87t18.5 124t-39 129t-99 84q-35 14 -76.5 21.5t-99.5 7.5h-168v-525z" />
<glyph unicode="S" horiz-adv-x="1185" d="M113 100l73 131q88 -63 179.5 -91.5t197.5 -28.5q80 0 129 13t94 48q100 76 101 201q0 186 -252 262l-141 43q-96 29 -152.5 55.5t-97.5 69.5q-88 94 -88 229q0 90 32.5 164t92 127t143.5 83t186 30q223 0 424 -136l-73 -120q-51 33 -94.5 55t-83.5 36.5t-79.5 20.5 t-85.5 6q-133 0 -206.5 -61t-73.5 -170q0 -86 54 -137t179 -92l162 -52q94 -29 149.5 -60.5t98.5 -80.5t67.5 -115.5t24.5 -132.5q0 -98 -50 -188t-144 -150q-70 -45 -143.5 -65.5t-172.5 -20.5q-127 0 -236.5 31t-213.5 96z" />
<glyph unicode="T" horiz-adv-x="950" d="M51 1264v141h930l-10 -141h-381v-1264h-162v1264h-377z" />
<glyph unicode="U" horiz-adv-x="1300" d="M184 397v1008h166v-946q0 -53 5 -111.5t20 -91.5q10 -23 29.5 -47.5t52 -45t80 -32.5t112.5 -12q88 0 151.5 22.5t96.5 65.5q35 47 44 97t9 122v979h166v-999q0 -127 -21.5 -198t-84.5 -124q-66 -55 -153 -82t-216 -27q-164 0 -261 49.5t-155 153.5q-29 51 -35 111.5 t-6 107.5z" />
<glyph unicode="V" horiz-adv-x="1181" d="M31 1405h182l297 -905q14 -47 28.5 -95.5t25.5 -92.5t18.5 -77.5t9.5 -48.5q6 27 27.5 103t58.5 190l301 926h172l-481 -1405h-166z" />
<glyph unicode="W" horiz-adv-x="1683" d="M51 1405h180l179 -821q14 -66 27.5 -137.5t23.5 -133t16 -104.5t8 -51q0 4 8.5 46t19.5 101.5t25.5 129t26.5 128.5l187 842h190l195 -873q16 -78 29.5 -143t22.5 -115.5t13 -80.5q4 -23 6 -31q2 8 6 39q8 39 18.5 99t26 136t31.5 154l174 815h168l-321 -1405h-219 l-174 780q-16 78 -30 146.5t-23 121t-15 86t-6 42.5q-2 -6 -7.5 -40t-14.5 -87.5t-22.5 -120t-27.5 -135.5l-172 -793h-217z" />
<glyph unicode="X" horiz-adv-x="1118" d="M20 0l416 754l-373 651h199l281 -520l268 520h197l-353 -639l443 -766h-203l-348 645l-330 -645h-197z" />
<glyph unicode="Y" horiz-adv-x="1062" d="M-10 1405h207l266 -537q20 -41 36.5 -78.5t35.5 -78.5q4 12 25.5 58t49.5 99l271 537h192l-457 -858v-547h-174v557z" />
<glyph unicode="Z" horiz-adv-x="1060" d="M92 0v129l600 1001q35 59 59.5 93t30.5 43q-10 0 -49 -1t-96 -1h-524l47 141h801v-143l-584 -986q-31 -53 -55.5 -89.5t-30.5 -45.5q10 0 44 1t77 1h557l-43 -143h-834z" />
<glyph unicode="[" horiz-adv-x="583" d="M195 -319v1818h337v-123h-190v-1573h190v-122h-337z" />
<glyph unicode="\" horiz-adv-x="847" d="M51 1487l129 49l617 -1573l-129 -51z" />
<glyph unicode="]" horiz-adv-x="583" d="M51 -197h191v1573h-191v123h338v-1818h-338v122z" />
<glyph unicode="^" horiz-adv-x="1302" d="M133 563l457 887h123l456 -887h-151l-367 715l-366 -715h-152z" />
<glyph unicode="_" horiz-adv-x="1044" d="M10 -147h1024v-121h-1024v121z" />
<glyph unicode="`" horiz-adv-x="737" d="M113 1362l88 158l424 -267l-54 -96z" />
<glyph unicode="a" horiz-adv-x="1083" d="M123 264q0 174 141.5 270.5t399.5 96.5h30q16 0 41 -2v71q0 68 -5 102t-28 58q-25 29 -57.5 42t-79.5 13q-43 0 -90 -10t-91 -27.5t-82 -39t-62 -43.5l-80 114q205 137 428 138q217 0 282 -160q16 -41 20 -99q3 -40 4 -85q0 -20 -1 -41l-8 -336q-1 -30 -1 -56t1 -46 q2 -42 11 -69.5t25.5 -46t45.5 -32.5l-82 -115q-53 16 -89 56t-51 94q-74 -74 -140 -106t-154 -32q-94 0 -158 27t-101.5 68t-53 93t-15.5 103zM301 279q0 -186 176 -187q78 0 145.5 44t102.5 116l6 266q-16 2 -39.5 3t-40.5 1q-96 0 -163.5 -16.5t-108.5 -47t-59.5 -76.5 t-18.5 -103z" />
<glyph unicode="b" horiz-adv-x="1171" d="M164 0q16 37 23.5 93.5t7.5 160.5v1003q0 90 -11.5 144.5t-15.5 64.5l160 31q4 -12 15 -74.5t11 -167.5v-237q0 -35 -2 -69t-2 -44q76 74 143.5 105.5t149.5 31.5q92 0 165 -35.5t124 -103t78.5 -164t27.5 -215.5q0 -123 -28.5 -224t-82 -173t-128 -112t-166.5 -40 q-80 0 -159 39t-122 97q-4 -33 -8 -56.5t-20 -54.5h-160zM352 240q41 -53 110.5 -88t141.5 -35q53 0 104.5 24.5t79.5 65.5q29 41 50.5 120t21.5 208q0 102 -13 165.5t-46 108.5q-29 41 -81 64.5t-112 23.5q-76 0 -145.5 -38t-110.5 -95v-524z" />
<glyph unicode="c" horiz-adv-x="960" d="M133 494q0 168 44 268t110 166q119 119 276 119q96 0 159.5 -33t119.5 -78l-88 -111q-53 45 -94.5 63.5t-100.5 18.5t-111.5 -30.5t-80.5 -83.5q-57 -106 -58 -334q0 -174 64.5 -264.5t187.5 -90.5q127 0 219 111l88 -102q-72 -72 -143.5 -104t-167.5 -32 q-219 0 -326 154q-51 74 -74.5 161t-23.5 202z" />
<glyph unicode="d" horiz-adv-x="1169" d="M133 502q0 328 211 473q49 35 95 49t102 14q86 0 157.5 -33.5t118.5 -95.5q0 12 -1 60.5t-1 97.5v428l160 -27v-1138q0 -133 7 -209t24 -121h-164q-4 8 -12.5 39t-10.5 65q-55 -63 -117.5 -90.5t-152.5 -27.5q-199 0 -307.5 135t-108.5 381zM309 506q0 -90 8.5 -155.5 t32.5 -110.5q35 -63 84 -91t121 -28q63 0 105 15.5t92 49.5q25 16 41 40t20 34v541q-39 53 -97.5 79.5t-150.5 26.5q-125 0 -190 -106q-37 -59 -51.5 -123t-14.5 -172z" />
<glyph unicode="e" horiz-adv-x="1067" d="M133 520q0 129 28.5 218t94.5 167q121 141 305 142q170 0 277 -111q33 -35 55 -72t35.5 -86t19.5 -114.5t6 -157.5v-23h-637v-24q0 -72 10.5 -127.5t37.5 -95.5q43 -66 109.5 -95.5t143.5 -29.5q145 0 250 96l62 -103q-68 -61 -157 -94t-187 -33q-213 0 -333 144.5 t-120 398.5zM317 604h467q-2 84 -13 137.5t-34 89.5q-27 41 -76 66t-108 25q-223 0 -236 -318z" />
<glyph unicode="f" horiz-adv-x="620" d="M96 899v121h99v160q0 57 11 98t28.5 70.5t37 49t35.5 32.5q72 53 180 53q135 0 226 -60l-60 -112q-29 16 -69.5 31.5t-81.5 15.5q-139 0 -140 -180v-158h283l-49 -121h-234v-899h-167v899h-99z" />
<glyph unicode="g" horiz-adv-x="1052" d="M102 -121q0 29 5.5 53.5t15.5 55.5l168 14q-10 -16 -19.5 -42t-9.5 -50q0 -82 60 -119q37 -23 91 -35t115 -12q119 0 183.5 41t64.5 137q0 86 -55 123q-29 20 -77 28.5t-124 8.5h-39q-20 0 -42.5 -1t-43.5 -1h-33q-92 0 -142 39t-50 108q0 61 40 101.5t144 72.5 q-104 33 -166.5 113t-62.5 182q0 76 27.5 139.5t77 109.5t119 70.5t153.5 24.5q57 0 96 -9t70.5 -19.5t64.5 -19.5t80 -9q41 0 73 10.5t68 34.5l99 -98q-47 -35 -86 -48.5t-86 -13.5q-43 0 -70 13q61 -78 61 -174q0 -86 -39.5 -161t-111.5 -120q-39 -25 -87 -35t-104 -10 q-104 -37 -144 -64.5t-40 -54.5q0 -49 82 -49h164q90 0 144.5 -12.5t101.5 -44.5q59 -41 85.5 -95.5t26.5 -119.5q0 -166 -109.5 -244t-295.5 -78q-121 0 -205 20.5t-136 55.5t-77 82t-25 102zM305 698q0 -98 49 -150t148 -52q184 0 184 209q0 104 -43 154t-145 50 q-193 0 -193 -211z" />
<glyph unicode="h" horiz-adv-x="1161" d="M168 1466l160 31q4 -12 15 -74.5t11 -167.5v-237q0 -43 -2 -86t-4 -53q70 66 156 113.5t184 47.5q92 0 166 -45t96 -116q10 -31 13.5 -62t3.5 -86v-731h-158v705q0 57 -8 93t-31 58q-18 18 -49 29.5t-70 11.5q-74 0 -152.5 -45t-144.5 -127v-725h-159v1257 q0 90 -11.5 144.5t-15.5 64.5z" />
<glyph unicode="i" horiz-adv-x="555" d="M156 1333q0 53 35.5 90t89.5 37q53 0 89 -36t36 -89t-36 -89t-89 -36t-89 36t-36 87zM195 0v1016l165 26v-1042h-165z" />
<glyph unicode="j" horiz-adv-x="552" d="M41 -299q53 23 84 53.5t46 70.5t19.5 91t4.5 119v977l163 32v-1024q0 -66 -6 -125t-22 -100q-29 -72 -83 -120t-126 -81zM152 1335q0 53 35.5 89t88.5 36t89 -36t36 -89t-35.5 -89t-89.5 -36q-53 0 -88.5 36t-35.5 89z" />
<glyph unicode="k" horiz-adv-x="1052" d="M168 1466l160 31q4 -12 15 -74.5t11 -167.5v-1255h-159v1257q0 90 -11.5 144.5t-15.5 64.5zM360 578l390 442h200l-401 -442l493 -578h-213z" />
<glyph unicode="l" horiz-adv-x="550" d="M170 1458l160 31q4 -12 15 -74.5t11 -167.5v-1042q0 -59 11.5 -81t46.5 -22q4 0 20 4l33 -104q-31 -14 -50.5 -18t-51.5 -4q-76 0 -121 43q-25 23 -37 56.5t-12 88.5v1081q0 90 -10.5 144.5t-14.5 64.5z" />
<glyph unicode="m" horiz-adv-x="1662" d="M158 1008l155 36q6 -12 21.5 -58t15.5 -93q25 29 59.5 56.5t74.5 49t82 35t81 13.5q76 0 142.5 -44.5t95.5 -125.5q74 78 162 124t165 46q115 0 185.5 -77t70.5 -200v-770h-163v754q0 149 -129 149h-2q-70 0 -130.5 -42t-140.5 -116v-745h-162v725q0 47 -6 78t-22 53 q-35 41 -105 41q-59 0 -119.5 -31.5t-140.5 -103.5v-762h-153v791q0 98 -15.5 152t-21.5 65z" />
<glyph unicode="n" horiz-adv-x="1138" d="M156 1001l155 43q6 -10 21.5 -57t15.5 -102q157 157 320 157h2q84 0 151.5 -40.5t98.5 -108.5q25 -55 24 -119v-774h-162v690q0 41 -2 67.5t-6 45t-11 32t-18 25.5q-37 43 -112 43q-31 0 -69 -11t-75.5 -30.5t-74.5 -46.5t-64 -55v-760h-155v786q0 98 -16.5 151.5 t-22.5 63.5z" />
<glyph unicode="o" horiz-adv-x="1124" d="M123 516q0 250 115.5 392.5t318.5 142.5q129 0 213 -51.5t137 -127.5q47 -70 70.5 -161.5t23.5 -216.5q0 -127 -32.5 -224.5t-91 -163t-138.5 -99.5t-176 -34q-211 0 -325.5 145.5t-114.5 397.5zM297 543q0 -109 17.5 -198t45.5 -136q29 -47 85.5 -75t121.5 -28 q80 0 137.5 40t83.5 114q16 47 23.5 96t7.5 125q0 211 -47 307q-33 68 -93.5 100t-123.5 32q-68 0 -125 -30t-84 -81q-25 -47 -37 -110.5t-12 -155.5z" />
<glyph unicode="p" horiz-adv-x="1165" d="M172 1018l164 29q2 -6 6 -43t4 -113q126 149 299 149h2q78 0 150.5 -32.5t122.5 -94.5q57 -72 84.5 -168t27.5 -233q0 -123 -19.5 -203t-62.5 -149q-55 -90 -135 -138.5t-180 -48.5q-78 0 -152.5 32t-128.5 87v-487l-159 -31v1225q0 104 -9.5 156.5t-13.5 62.5zM354 240 q117 -133 250 -134q72 0 130.5 35t84.5 92q23 49 33 111t10 148q0 92 -12 168.5t-35 123.5q-25 53 -76 83t-112 30q-154 0 -273 -143v-514z" />
<glyph unicode="q" horiz-adv-x="1165" d="M133 479q0 152 22.5 245t73.5 163q57 78 135 121t171 43q84 0 153.5 -35t134.5 -109q0 10 2 25.5t5.5 32t6.5 32t7 23.5h157q-4 -14 -17 -81t-13 -181v-1141l-154 -33v531q-115 -133 -287 -133q-72 0 -127 19t-106 62q-76 63 -120 162t-44 254zM303 516q0 -84 8 -140.5 t21.5 -94t31 -61t35.5 -42.5q33 -31 72 -45t98 -14q78 0 142.5 41t105.5 116v486q-41 66 -113.5 105.5t-146.5 39.5q-66 0 -121 -32.5t-86 -92.5q-12 -25 -21.5 -51t-15.5 -57t-8 -69t-2 -89z" />
<glyph unicode="r" horiz-adv-x="663" d="M160 1004l159 43q5 -13 21 -61q12 -39 13 -82q0 -11 -1 -23q55 78 132 124t155 46q18 0 34.5 -4.5t20.5 -6.5l-65 -174q-20 8 -45 8q-96 0 -170 -73q-35 -35 -47.5 -67t-12.5 -95v-639h-159v786q0 100 -15.5 153.5t-19.5 64.5z" />
<glyph unicode="s" horiz-adv-x="985" d="M113 72l61 118q158 -96 324 -96q94 0 150.5 47t56.5 129q0 70 -40 110t-128 58l-127 27q-127 27 -192.5 100.5t-65.5 179.5q0 70 26.5 127.5t74.5 98.5t114.5 64.5t146.5 23.5t163 -22.5t148 -59.5l-59 -119q-68 33 -128 53.5t-128 20.5q-88 0 -140.5 -46t-52.5 -122 q0 -59 33 -95t115 -53l135 -28q272 -58 272 -285q0 -74 -27.5 -135.5t-78.5 -105.5t-122 -68.5t-157 -24.5q-98 0 -197.5 28t-176.5 75z" />
<glyph unicode="t" horiz-adv-x="655" d="M61 899v121h134q0 33 2 73t5 76.5t5 66.5t4 42l168 37q-2 -12 -5 -43t-6 -72t-6.5 -88t-3.5 -92h256l-49 -121h-213v-657q0 -86 28 -119t103 -33q35 0 56.5 5t44.5 16l22 -103q-78 -41 -180 -41q-41 0 -72.5 7.5t-60.5 21.5q-53 27 -75.5 76t-22.5 127v700h-134z" />
<glyph unicode="u" horiz-adv-x="1140" d="M184 262v750l158 30v-733q0 -72 13.5 -109.5t47.5 -62.5q25 -16 58 -25.5t67 -9.5q76 0 148 50.5t112 134.5v723l158 26v-743q0 -96 15.5 -144.5t54.5 -82.5l-103 -109q-51 41 -75.5 77t-34.5 87q-117 -156 -324 -156q-98 0 -166.5 39t-101.5 107q-14 29 -20.5 67.5 t-6.5 83.5z" />
<glyph unicode="v" horiz-adv-x="968" d="M31 1012l164 35l237 -703q18 -55 31.5 -107.5t17.5 -66.5h4q4 12 15.5 61.5t34.5 110.5l233 678h170l-383 -1030h-158z" />
<glyph unicode="w" horiz-adv-x="1423" d="M41 1012l160 35l164 -674q16 -63 25 -111.5t11 -58.5h7q2 10 11 54t23 93l183 670h174l178 -678q4 -18 10 -42t12.5 -45.5t11.5 -38.5t7 -23h4l31 141l161 686h168l-288 -1028h-158l-203 717q-12 45 -19 75.5t-9 36.5h-5q0 -6 -3 -18t-6 -27.5t-7 -32t-6 -26.5l-205 -725 h-149z" />
<glyph unicode="x" horiz-adv-x="956" d="M10 0l381 565l-315 455h196l203 -340l197 340h186l-303 -455l391 -565h-194l-277 434l-276 -434h-189z" />
<glyph unicode="y" horiz-adv-x="940" d="M31 997l157 54l209 -662q10 -33 20.5 -71.5t18.5 -75.5t14.5 -66t8.5 -41h4q16 53 31.5 107.5t31.5 107.5l201 670h182l-350 -1057q-25 -78 -54.5 -140.5t-68.5 -111.5t-89 -81.5t-118 -49.5l-47 109q49 14 84 36.5t61.5 57.5t48 88t42.5 131l-66 -10q-4 25 -16 71 t-26.5 99t-31 105t-28.5 91z" />
<glyph unicode="z" horiz-adv-x="940" d="M92 0v123l555 770h-512v127h680v-131l-530 -766h563l-76 -123h-680z" />
<glyph unicode="{" horiz-adv-x="677" d="M92 528v123q33 0 64.5 16.5t56.5 46t40 72.5t15 97v360q0 61 20.5 109.5t51.5 81t68.5 49t74.5 16.5h144v-123h-111q-33 0 -52.5 -13t-30.5 -36.5t-14 -52.5t-3 -60v-360q0 -70 -20.5 -118t-49.5 -78.5t-58.5 -46t-47.5 -19.5v-4q18 -2 47.5 -15.5t58.5 -43t49.5 -80 t20.5 -125.5v-359q0 -31 3 -59.5t14 -51t30.5 -37t52.5 -14.5h111v-122h-144q-39 0 -76.5 16t-68.5 49t-50.5 81t-19.5 110v358q0 55 -15 98t-40 74t-56.5 46t-64.5 15z" />
<glyph unicode="|" horiz-adv-x="524" d="M195 -426v1974h135v-1974h-135z" />
<glyph unicode="}" horiz-adv-x="677" d="M51 -197h111q33 0 52 14.5t29.5 37t14.5 51t4 59.5v359q0 76 20.5 126t49 79.5t58.5 43t48 15.5v4q-18 4 -48 19.5t-58.5 46t-49 78.5t-20.5 118v360q0 31 -4 60t-14.5 52.5t-29.5 36.5t-52 13h-111v123h144q37 0 74.5 -16.5t68.5 -49t51.5 -80.5t20.5 -110v-360 q0 -53 15 -96.5t39.5 -73t56.5 -46t65 -16.5v-123q-33 0 -65 -15t-56.5 -46t-39.5 -74t-15 -98v-358q0 -61 -19.5 -109.5t-50.5 -81.5t-69 -49t-76 -16h-144v122z" />
<glyph unicode="~" horiz-adv-x="1208" d="M133 578q23 33 48.5 64.5t55 57t67.5 42t85 16.5q59 0 115.5 -21.5t111 -48t108.5 -48.5t110 -22q68 0 107.5 45.5t66.5 98.5l67 -98q-25 -33 -49.5 -65t-55 -57.5t-68.5 -42t-85 -16.5q-59 0 -114.5 21.5t-110.5 48.5t-109.5 48.5t-109.5 21.5q-68 0 -108 -45.5 t-64 -98.5z" />
<glyph unicode="&#xa1;" horiz-adv-x="598" d="M174 942q0 53 36 91t89 38t89 -37t36 -90t-36 -89t-89 -36t-89 36t-36 87zM201 -375l39 1026h122l39 -999z" />
<glyph unicode="&#xa2;" d="M268 494q0 168 44 268t110 166q98 98 219 112v160h113v-160q72 -10 124 -37.5t99 -66.5l-88 -111q-41 35 -72 52.5t-63 23.5v-790q94 20 161 104l89 -102q-59 -59 -119 -91t-131 -40v-156h-113v154q-182 16 -274 151q-51 74 -75 161t-24 202zM444 459q0 -309 197 -350 v792q-43 -12 -80 -39.5t-59 -68.5q-57 -106 -58 -334z" />
<glyph unicode="&#xa3;" d="M182 0v160h221v516h-196v135h196v164q0 133 34 228t92.5 155.5t139.5 88.5t173 28t178 -31t151 -96l-112 -121q-47 47 -100.5 73.5t-120.5 26.5q-76 0 -126 -25.5t-81 -72.5t-43.5 -112.5t-12.5 -145.5v-160h332v-135h-332v-516h504v-160h-897z" />
<glyph unicode="&#xa4;" d="M291 178l88 133q-76 92 -76 244q0 158 82 250l-90 129l139 82l78 -129q55 16 119 16q66 0 123 -20l75 133l132 -82l-87 -129q33 -23 61 -90.5t28 -171.5q0 -78 -16.5 -133.5t-55.5 -98.5l92 -133l-131 -84l-84 129q-55 -20 -135 -20q-70 0 -131 22l-84 -131zM442 571 q0 -135 46.5 -195.5t150.5 -60.5q96 0 141 57t45 163q0 119 -41 187.5t-155 68.5q-102 0 -144.5 -57.5t-42.5 -162.5z" />
<glyph unicode="&#xa5;" d="M94 1405h207l266 -537q23 -43 43 -94l29 -63q6 14 29.5 63t46.5 94l270 537h193l-340 -639h305v-121h-369l-53 -98v-98h422v-121h-422v-328h-174v328h-397v121h397v108l-47 88h-350v121h284z" />
<glyph unicode="&#xa6;" horiz-adv-x="524" d="M195 414h135v-840h-135v840zM195 709v839h135v-839h-135z" />
<glyph unicode="&#xa7;" horiz-adv-x="1122" d="M133 -43l158 74q29 -94 97.5 -136t160.5 -42q43 0 83 10t70.5 33.5t49 59.5t18.5 85q0 37 -12.5 63.5t-38 49t-64.5 44t-90 48.5l-250 131q-72 37 -110.5 102.5t-38.5 147.5q0 109 58.5 176t148.5 110q-72 41 -115 99.5t-43 142.5q0 82 34 144.5t89 103.5t126 62.5 t144 21.5q53 0 106.5 -11.5t101.5 -34t87 -59t64 -88.5l-154 -84q-25 68 -85 98.5t-126 30.5q-39 0 -78 -10t-69.5 -31.5t-49 -55.5t-18.5 -79q0 -100 90 -147l201 -101q51 -27 106.5 -56.5t101.5 -69t74.5 -90.5t28.5 -121q0 -94 -49 -162t-127 -111q66 -43 103.5 -104.5 t37.5 -147.5q0 -88 -35.5 -153.5t-94 -108.5t-134.5 -64.5t-153 -21.5q-133 0 -243 60.5t-161 191.5zM326 653q0 -41 16 -69.5t41 -51t56.5 -39t62.5 -30.5l182 -88q51 23 92 71t41 107q0 43 -19.5 76t-48 59.5t-63.5 46t-68 35.5l-118 59q-31 -12 -61.5 -26.5t-55.5 -34.5 t-41 -48t-16 -67z" />
<glyph unicode="&#xa8;" horiz-adv-x="860" d="M113 1272q0 43 30.5 73.5t73.5 30.5q45 0 76 -30.5t31 -73.5q0 -45 -30 -77t-75 -32t-75.5 32t-30.5 77zM535 1272q0 43 30.5 73.5t75.5 30.5q43 0 75 -30.5t32 -73.5q0 -45 -31 -77t-74 -32q-45 0 -76.5 32t-31.5 77z" />
<glyph unicode="&#xa9;" horiz-adv-x="1789" d="M133 725q0 162 60.5 302t165 241.5t242.5 160t294 58.5t294 -58.5t242.5 -160t165 -241.5t60.5 -302q0 -164 -60.5 -303t-165 -240.5t-242.5 -160t-294 -58.5t-294 58.5t-242.5 160t-165 240.5t-60.5 303zM268 725q0 -139 49.5 -258t133.5 -206t198.5 -137t245.5 -50 t244.5 50t198.5 137t134.5 206t49.5 258q0 137 -49.5 257t-134.5 207t-198.5 137t-244.5 50t-245.5 -50t-198.5 -137t-133.5 -207t-49.5 -257zM569 713q0 74 14.5 136t41.5 116q47 92 126.5 143t178.5 51q59 0 113.5 -17.5t93.5 -49.5l-58 -78q-35 27 -70.5 38t-78.5 11 q-129 0 -189 -121q-20 -41 -30.5 -95t-10.5 -132q0 -72 7.5 -117t23.5 -82q31 -72 86 -104.5t123 -32.5q49 0 85 12t71 39l57 -76q-100 -72 -227 -71q-84 0 -150.5 33.5t-113.5 93.5q-92 121 -93 303z" />
<glyph unicode="&#xaa;" horiz-adv-x="878" d="M113 492v110h641v-110h-641zM125 979q0 133 105.5 204.5t297.5 71.5h25q10 0 29 -2v74q0 135 -123 135q-61 0 -127 -25.5t-119 -66.5l-61 94q82 53 161.5 79t163.5 26q72 0 122 -23.5t75 -60.5q29 -43 34 -97.5t3 -111.5l-9 -275q-2 -66 10.5 -103.5t53.5 -59.5l-66 -90 q-84 27 -106 110q-55 -59 -108.5 -79.5t-112.5 -20.5q-72 0 -120 19.5t-77 51t-40 71.5t-11 79zM258 991q0 -141 133 -141q59 0 108.5 34t78.5 87l4 198q-20 4 -33 5h-27q-141 0 -202.5 -45.5t-61.5 -137.5z" />
<glyph unicode="&#xab;" horiz-adv-x="1032" d="M133 492l293 438l113 -74l-240 -364l240 -365l-113 -74zM514 492l293 438l113 -74l-240 -364l240 -365l-113 -74z" />
<glyph unicode="&#xac;" horiz-adv-x="1021" d="M113 444v146h796v-432h-145v286h-651z" />
<glyph unicode="&#xad;" horiz-adv-x="616" d="M123 469v156h391v-156h-391z" />
<glyph unicode="&#xae;" horiz-adv-x="1789" d="M133 725q0 162 60.5 302t165 241.5t242.5 160t294 58.5t294 -58.5t242.5 -160t165 -241.5t60.5 -302q0 -164 -60.5 -303t-165 -240.5t-242.5 -160t-294 -58.5t-294 58.5t-242.5 160t-165 240.5t-60.5 303zM268 725q0 -139 49.5 -258t133.5 -206t198.5 -137t245.5 -50 t244.5 50t198.5 137t134.5 206t49.5 258q0 137 -49.5 257t-134.5 207t-198.5 137t-244.5 50t-245.5 -50t-198.5 -137t-133.5 -207t-49.5 -257zM659 307v846h238q76 0 123 -16.5t78 -44.5q29 -27 52.5 -70t23.5 -104q0 -49 -15.5 -92.5t-45.5 -75t-72 -50t-95 -16.5 q29 -23 46.5 -42t27.5 -36q14 -16 31.5 -42.5t40.5 -61.5l122 -195h-143q-18 35 -31.5 58.5t-38.5 66.5q-25 41 -42 69.5t-32.5 51t-32.5 44t-40 46.5q-16 18 -32.5 27.5t-43.5 11.5v-375h-119zM778 762h82q57 0 91 9t57 30q41 40 41 114q0 45 -21.5 78t-56.5 47 q-39 16 -105 17h-88v-295z" />
<glyph unicode="&#xaf;" horiz-adv-x="663" d="M51 1399v110h561v-110h-561z" />
<glyph unicode="&#xb0;" horiz-adv-x="843" d="M92 1067q0 164 87 256t241 92q156 0 244 -93t88 -267q0 -72 -19.5 -133.5t-59.5 -107.5t-102.5 -72.5t-148.5 -26.5q-154 0 -242 94t-88 258zM231 1083q0 -137 48.5 -196.5t148.5 -59.5q86 0 136 51.5t50 168.5q0 119 -42 187.5t-154 68.5q-98 0 -142.5 -54.5 t-44.5 -165.5z" />
<glyph unicode="&#xb1;" horiz-adv-x="985" d="M113 602v146h307v272h145v-272h307v-146h-307v-287h-145v287h-307zM117 74v145h751v-145h-751z" />
<glyph unicode="&#xb2;" horiz-adv-x="733" d="M92 1223q82 68 151.5 97.5t141.5 29.5q51 0 97 -18.5t79 -50.5t52.5 -75t19.5 -92q0 -51 -17.5 -98t-45 -89t-61.5 -81t-69 -74l-69 -70q-33 -33 -60 -57q10 0 21.5 1t21.5 1h287l-31 -115h-506v82q41 29 86.5 68t104.5 102q102 109 143 181.5t41 132.5q0 59 -35.5 96 t-91.5 37q-55 0 -101 -26.5t-91 -53.5z" />
<glyph unicode="&#xb3;" horiz-adv-x="743" d="M92 1233q55 49 131 83t154 34q111 0 182.5 -58.5t71.5 -152.5q0 -57 -29 -101.5t-82 -70.5q59 -27 95 -72t36 -111q0 -86 -58 -151.5t-140 -100.5q-45 -18 -108.5 -29t-131.5 -11q-23 0 -35 1t-41 5l-35 104q41 -6 55.5 -7t37.5 -1q78 0 139 14.5t112 59.5 q29 25 43.5 58.5t14.5 68.5q0 41 -23.5 71.5t-64.5 40.5q-12 2 -22.5 4t-25 4.5t-36.5 2.5h-92v104h32q68 0 103 2t53 10q25 10 41 35t16 57q0 47 -33.5 77t-93.5 30q-59 0 -105 -21.5t-93 -54.5z" />
<glyph unicode="&#xb4;" horiz-adv-x="737" d="M113 1253l424 267l88 -158l-459 -205z" />
<glyph unicode="&#xb5;" horiz-adv-x="1142" d="M184 -426v1438l160 32v-735q0 -76 12.5 -109.5t46.5 -58.5q25 -16 59 -27.5t68 -11.5q76 0 148 50.5t113 134.5v723l157 26v-723q0 -51 2 -88t9.5 -65.5t20.5 -51t38 -42.5l-103 -109q-51 41 -75.5 77t-34.5 87q-117 -156 -324 -156q-39 0 -76.5 9.5t-60.5 29.5v-399z " />
<glyph unicode="&#xb6;" horiz-adv-x="1230" d="M72 1028q0 201 125 311.5t342 110.5h497v-1708h-147v1573h-242v-1573h-147v905q-94 0 -173 30t-135.5 81t-88 120.5t-31.5 149.5z" />
<glyph unicode="&#xb7;" horiz-adv-x="616" d="M174 571q0 57 39 96.5t94 39.5t95 -39.5t40 -96.5q0 -55 -38.5 -95t-94.5 -40q-55 0 -95 40t-40 95z" />
<glyph unicode="&#xb8;" horiz-adv-x="593" d="M113 -354l43 96q41 -18 65.5 -25.5t59.5 -7.5q29 0 51 16.5t22 45.5q0 31 -25.5 45t-52.5 14q-33 0 -53 -4l-18 20l41 154h125l-23 -86q78 -10 105.5 -51t27.5 -96q0 -29 -13 -60t-37.5 -55.5t-62.5 -39.5t-87 -15q-47 0 -92.5 16t-75.5 33z" />
<glyph unicode="&#xb9;" horiz-adv-x="665" d="M92 1165l254 170h105v-690h122v-113h-389v113h127v524q-43 -29 -90 -48t-94 -40z" />
<glyph unicode="&#xba;" horiz-adv-x="884" d="M113 1159q0 188 87 294t238 106q168 0 251 -111.5t83 -306.5q0 -188 -88 -288.5t-242 -100.5t-241.5 108.5t-87.5 298.5zM123 492v110h641v-110h-641zM254 1176q0 -164 47 -237t145 -73q88 0 133.5 64t45.5 205q0 92 -14.5 152.5t-39 96t-59.5 49t-76 13.5 q-96 0 -139 -67.5t-43 -202.5z" />
<glyph unicode="&#xbb;" horiz-adv-x="1032" d="M113 127l239 365l-239 364l112 74l293 -438l-293 -439zM494 127l239 365l-239 364l112 74l293 -438l-293 -439z" />
<glyph unicode="&#xbc;" horiz-adv-x="1945" d="M92 1165l254 170h105v-690h122v-113h-389v113h127v524q-43 -29 -90 -48t-94 -40zM426 -315l1079 1878h135l-1079 -1878h-135zM1253 145v97l299 563h154q-20 -39 -54 -105.5t-75 -144.5t-85 -158t-83 -143l14 2h197l-2 12q-4 16 -1 30.5t5 35.5l16 221l117 35v-318l-2 -16 h100v-111h-100q0 -6 1 -12t1 -12v-123l-137 -37v158q0 6 1 13t1 13h-367z" />
<glyph unicode="&#xbd;" horiz-adv-x="1894" d="M92 1165l254 170h105v-690h122v-113h-389v113h127v524q-43 -29 -90 -48t-94 -40zM305 -315l1079 1878h136l-1080 -1878h-135zM1253 690q82 68 152 97.5t141 29.5q51 0 97.5 -18.5t79 -50t52 -74.5t19.5 -92q0 -51 -17.5 -98.5t-45 -89.5t-61.5 -81t-68 -73l-70 -70 q-33 -33 -59 -57q10 0 21 1t22 1h286l-30 -115h-506v82q41 29 86 67.5t104 102.5q102 109 143 181.5t41 131.5t-35.5 96t-91.5 37q-55 0 -101 -26.5t-91 -53.5z" />
<glyph unicode="&#xbe;" horiz-adv-x="2033" d="M92 1233q55 49 131 83t154 34q111 0 182.5 -58.5t71.5 -152.5q0 -57 -29 -101.5t-82 -70.5q59 -27 95 -72t36 -111q0 -86 -58 -151.5t-140 -100.5q-45 -18 -108.5 -29t-131.5 -11q-23 0 -35 1t-41 5l-35 104q41 -6 55.5 -7t37.5 -1q78 0 139 14.5t112 59.5 q29 25 43.5 58.5t14.5 68.5q0 41 -23.5 71.5t-64.5 40.5q-12 2 -22.5 4t-25 4.5t-36.5 2.5h-92v104h32q68 0 103 2t53 10q25 10 41 35t16 57q0 47 -33.5 77t-93.5 30q-59 0 -105 -21.5t-93 -54.5zM410 -315l1079 1878h135l-1079 -1878h-135zM1341 145v97l299 563h154 q-20 -39 -54 -105.5t-75 -144.5t-85 -158t-83 -143l14 2h197l-2 12q-4 16 -1 30.5t5 35.5l16 221l117 35v-318l-2 -16h101v-111h-101q0 -6 1 -12t1 -12v-123l-137 -37v158q0 6 1 13t1 13h-367z" />
<glyph unicode="&#xbf;" horiz-adv-x="897" d="M113 -80q0 76 28.5 133.5t66.5 98.5t72.5 65.5t47.5 34.5q102 84 102 229q0 51 -12 107h137q18 -74 18 -139q0 -78 -26.5 -147t-87.5 -126q-31 -29 -62.5 -51.5t-59.5 -48t-45.5 -60t-17.5 -88.5q0 -76 52.5 -123t132.5 -47q74 0 143.5 26t134.5 69l68 -113 q-72 -55 -174.5 -88t-202.5 -33q-141 0 -228 82t-87 219zM334 930q0 59 40 100t97 41t98 -41t41 -100q0 -57 -40 -97t-97 -40t-98 39.5t-41 97.5z" />
<glyph unicode="&#xc0;" horiz-adv-x="1193" d="M20 0l469 1405h220l465 -1405h-191l-133 432h-524l-136 -432h-170zM266 1690l88 157l424 -266l-53 -96zM371 569h436l-215 688z" />
<glyph unicode="&#xc1;" horiz-adv-x="1193" d="M20 0l469 1405h220l465 -1405h-191l-133 432h-524l-136 -432h-170zM371 569h436l-215 688zM422 1581l424 266l88 -157l-458 -205z" />
<glyph unicode="&#xc2;" horiz-adv-x="1193" d="M20 0l469 1405h220l465 -1405h-191l-133 432h-524l-136 -432h-170zM252 1567l348 276l351 -276l-74 -90l-285 174l-276 -174zM371 569h436l-215 688z" />
<glyph unicode="&#xc3;" horiz-adv-x="1193" d="M20 0l469 1405h220l465 -1405h-191l-133 432h-524l-136 -432h-170zM238 1630q51 63 103.5 96t142.5 33q47 0 76.5 -12t55.5 -25.5t54.5 -26t73.5 -12.5q49 0 80 23t63 57l58 -92q-51 -63 -104.5 -96t-143.5 -33q-47 0 -77 12.5t-55.5 25.5t-54 25.5t-73.5 12.5 q-49 0 -79 -22.5t-63 -57.5zM371 569h436l-215 688z" />
<glyph unicode="&#xc4;" horiz-adv-x="1193" d="M20 0l469 1405h220l465 -1405h-191l-133 432h-524l-136 -432h-170zM285 1599q0 43 30.5 74t73.5 31q45 0 76 -31t31 -74q0 -45 -30 -76.5t-75 -31.5t-75.5 31.5t-30.5 76.5zM371 569h436l-215 688zM707 1599q0 43 30.5 74t73.5 31q45 0 76 -31t31 -74q0 -45 -30 -76.5 t-75 -31.5t-75.5 31.5t-30.5 76.5z" />
<glyph unicode="&#xc5;" horiz-adv-x="1193" d="M20 0l469 1405h220l465 -1405h-191l-133 432h-524l-136 -432h-170zM371 569h436l-215 688zM381 1677q0 45 16.5 84t46 69t68.5 47t82 17t83 -17t69.5 -47t47 -69t17.5 -84t-16.5 -84t-46 -68.5t-68.5 -47t-82 -17.5q-45 0 -84 17.5t-68.5 47t-47 68.5t-17.5 84zM475 1677 q0 -49 37 -86t86 -37q47 0 84 37t37 86t-37 86t-90 37q-47 0 -82 -37t-35 -86z" />
<glyph unicode="&#xc6;" horiz-adv-x="1812" d="M10 0l869 1405h831l-22 -141h-576v-459h481v-146h-481v-514h619v-145h-789v436h-483l-266 -436h-183zM543 573h399v670z" />
<glyph unicode="&#xc7;" horiz-adv-x="1173" d="M133 698q0 156 44 289t123 230.5t187.5 151.5t235.5 54q102 0 192.5 -29.5t161.5 -84.5l-90 -109q-63 47 -125.5 67.5t-140.5 20.5q-123 0 -209 -61.5t-137 -179.5q-31 -72 -45.5 -160t-14.5 -213q0 -102 10.5 -169t34.5 -128q53 -133 154.5 -197.5t222.5 -64.5 q78 0 142.5 21.5t132.5 68.5l90 -113q-84 -53 -182.5 -82.5t-202.5 -32.5l-17 -63q78 -10 106 -51t28 -96q0 -29 -13.5 -60t-38 -55.5t-62.5 -39.5t-87 -15q-47 0 -92 16t-76 33l43 96q41 -18 65.5 -25.5t59.5 -7.5q29 0 51.5 16.5t22.5 45.5q0 31 -26 45t-52 14 q-33 0 -54 -4l-18 20l39 144q-84 18 -160 61t-135 113q-90 102 -129 239.5t-39 294.5z" />
<glyph unicode="&#xc8;" horiz-adv-x="1064" d="M195 0v1405h768l-23 -139h-575v-461h481v-146h-481v-514h618v-145h-788zM303 1690l88 157l424 -266l-53 -96z" />
<glyph unicode="&#xc9;" horiz-adv-x="1064" d="M195 0v1405h768l-23 -139h-575v-461h481v-146h-481v-514h618v-145h-788zM364 1581l424 266l88 -157l-458 -205z" />
<glyph unicode="&#xca;" horiz-adv-x="1064" d="M195 0v1405h768l-23 -139h-575v-461h481v-146h-481v-514h618v-145h-788zM239 1567l348 276l351 -276l-74 -90l-285 174l-276 -174z" />
<glyph unicode="&#xcb;" horiz-adv-x="1064" d="M195 0v1405h768l-23 -139h-575v-461h481v-146h-481v-514h618v-145h-788zM269 1599q0 43 30.5 74t73.5 31q45 0 76 -31t31 -74q0 -45 -30 -76.5t-75 -31.5t-75.5 31.5t-30.5 76.5zM690 1599q0 43 30.5 74t73.5 31q45 0 76 -31t31 -74q0 -45 -30 -76.5t-75 -31.5 t-75.5 31.5t-30.5 76.5z" />
<glyph unicode="&#xcc;" horiz-adv-x="552" d="M-82 1690l88 157l424 -266l-53 -96zM195 0v1405h163v-1405h-163z" />
<glyph unicode="&#xcd;" horiz-adv-x="552" d="M139 1581l424 266l88 -157l-458 -205zM195 0v1405h163v-1405h-163z" />
<glyph unicode="&#xce;" horiz-adv-x="552" d="M-70 1567l348 276l351 -276l-74 -90l-285 174l-276 -174zM195 0v1405h163v-1405h-163z" />
<glyph unicode="&#xcf;" horiz-adv-x="552" d="M-41 1599q0 43 30.5 74t73.5 31q45 0 76 -31t31 -74q0 -45 -30 -76.5t-75 -31.5t-75.5 31.5t-30.5 76.5zM195 0v1405h163v-1405h-163zM381 1599q0 43 30.5 74t73.5 31q45 0 76 -31t31 -74q0 -45 -30 -76.5t-75 -31.5t-75.5 31.5t-30.5 76.5z" />
<glyph unicode="&#xd0;" horiz-adv-x="1296" d="M23 657v121h172v627h280q80 0 141.5 -3t112.5 -14.5t98 -33t99 -58.5q121 -86 179 -237.5t58 -358.5q0 -186 -44 -316t-115 -208q-47 -51 -94.5 -85t-99.5 -54.5t-113.5 -28.5t-135.5 -8h-366v657h-172zM362 139h168q55 0 106.5 4t97.5 19.5t85 45.5t68 79 q47 82 70.5 182t23.5 211q0 158 -25.5 266.5t-95.5 192.5q-35 41 -69.5 66.5t-74.5 38.5t-85 18.5t-101 5.5h-168v-490h326l-18 -121h-308v-518z" />
<glyph unicode="&#xd1;" horiz-adv-x="1323" d="M195 0v1405h194l467 -897q27 -49 49.5 -100.5t40 -92.5t28.5 -68.5t13 -33.5q0 2 -3 41t-6 99.5t-6 136t-3 151.5l-6 764h165v-1405h-176l-450 860q-31 57 -56.5 110.5t-47 97.5t-36.5 77q-14 33 -20 51q2 -16 4 -53q2 -39 5 -91.5t6 -113.5t3 -123l9 -815h-174z M301 1630q51 63 103.5 96t142.5 33q47 0 76.5 -12t55.5 -25.5t54.5 -26t73.5 -12.5q49 0 80 23t63 57l58 -92q-51 -63 -104.5 -96t-143.5 -33q-47 0 -77 12.5t-55.5 25.5t-54 25.5t-73.5 12.5q-49 0 -79 -22.5t-63 -57.5z" />
<glyph unicode="&#xd2;" horiz-adv-x="1394" d="M133 709q0 168 39 301t110.5 226t176 143.5t233.5 50.5q92 0 163 -22t124 -55.5t92 -74.5t64 -78q66 -98 96.5 -224t30.5 -296q0 -203 -49.5 -338t-155.5 -233q-78 -72 -162 -104t-195 -32q-129 0 -228 48.5t-171 130.5q-168 193 -168 557zM319 743q0 -160 25 -288.5 t66 -200.5q20 -35 53 -62.5t72.5 -47t85 -31t88.5 -11.5q86 0 150.5 31t111.5 90q27 33 46 72t31.5 90t18.5 117.5t6 152.5q0 156 -16.5 264.5t-50.5 182.5q-37 78 -114 135t-200 57q-98 0 -179 -44t-122 -120q-37 -70 -54.5 -163t-17.5 -224zM397 1690l88 157l424 -266 l-53 -96z" />
<glyph unicode="&#xd3;" horiz-adv-x="1394" d="M133 709q0 168 39 301t110.5 226t176 143.5t233.5 50.5q92 0 163 -22t124 -55.5t92 -74.5t64 -78q66 -98 96.5 -224t30.5 -296q0 -203 -49.5 -338t-155.5 -233q-78 -72 -162 -104t-195 -32q-129 0 -228 48.5t-171 130.5q-168 193 -168 557zM319 743q0 -160 25 -288.5 t66 -200.5q20 -35 53 -62.5t72.5 -47t85 -31t88.5 -11.5q86 0 150.5 31t111.5 90q27 33 46 72t31.5 90t18.5 117.5t6 152.5q0 156 -16.5 264.5t-50.5 182.5q-37 78 -114 135t-200 57q-98 0 -179 -44t-122 -120q-37 -70 -54.5 -163t-17.5 -224zM526 1581l424 266l88 -157 l-458 -205z" />
<glyph unicode="&#xd4;" horiz-adv-x="1394" d="M133 709q0 168 39 301t110.5 226t176 143.5t233.5 50.5q92 0 163 -22t124 -55.5t92 -74.5t64 -78q66 -98 96.5 -224t30.5 -296q0 -203 -49.5 -338t-155.5 -233q-78 -72 -162 -104t-195 -32q-129 0 -228 48.5t-171 130.5q-168 193 -168 557zM319 743q0 -160 25 -288.5 t66 -200.5q20 -35 53 -62.5t72.5 -47t85 -31t88.5 -11.5q86 0 150.5 31t111.5 90q27 33 46 72t31.5 90t18.5 117.5t6 152.5q0 156 -16.5 264.5t-50.5 182.5q-37 78 -114 135t-200 57q-98 0 -179 -44t-122 -120q-37 -70 -54.5 -163t-17.5 -224zM352 1567l348 276l351 -276 l-74 -90l-285 174l-276 -174z" />
<glyph unicode="&#xd5;" horiz-adv-x="1394" d="M133 709q0 168 39 301t110.5 226t176 143.5t233.5 50.5q92 0 163 -22t124 -55.5t92 -74.5t64 -78q66 -98 96.5 -224t30.5 -296q0 -203 -49.5 -338t-155.5 -233q-78 -72 -162 -104t-195 -32q-129 0 -228 48.5t-171 130.5q-168 193 -168 557zM319 743q0 -160 25 -288.5 t66 -200.5q20 -35 53 -62.5t72.5 -47t85 -31t88.5 -11.5q86 0 150.5 31t111.5 90q27 33 46 72t31.5 90t18.5 117.5t6 152.5q0 156 -16.5 264.5t-50.5 182.5q-37 78 -114 135t-200 57q-98 0 -179 -44t-122 -120q-37 -70 -54.5 -163t-17.5 -224zM344 1630q51 63 103.5 96 t142.5 33q47 0 76.5 -12t55.5 -25.5t54.5 -26t73.5 -12.5q49 0 80 23t63 57l58 -92q-51 -63 -104.5 -96t-143.5 -33q-47 0 -77 12.5t-55.5 25.5t-54 25.5t-73.5 12.5q-49 0 -79 -22.5t-63 -57.5z" />
<glyph unicode="&#xd6;" horiz-adv-x="1394" d="M133 709q0 168 39 301t110.5 226t176 143.5t233.5 50.5q92 0 163 -22t124 -55.5t92 -74.5t64 -78q66 -98 96.5 -224t30.5 -296q0 -203 -49.5 -338t-155.5 -233q-78 -72 -162 -104t-195 -32q-129 0 -228 48.5t-171 130.5q-168 193 -168 557zM319 743q0 -160 25 -288.5 t66 -200.5q20 -35 53 -62.5t72.5 -47t85 -31t88.5 -11.5q86 0 150.5 31t111.5 90q27 33 46 72t31.5 90t18.5 117.5t6 152.5q0 156 -16.5 264.5t-50.5 182.5q-37 78 -114 135t-200 57q-98 0 -179 -44t-122 -120q-37 -70 -54.5 -163t-17.5 -224zM375 1599q0 43 30.5 74 t73.5 31q45 0 76 -31t31 -74q0 -45 -30 -76.5t-75 -31.5t-75.5 31.5t-30.5 76.5zM795 1599q0 43 30.5 74t73.5 31q45 0 76 -31t31 -74q0 -45 -30 -76.5t-75 -31.5t-75.5 31.5t-30.5 76.5z" />
<glyph unicode="&#xd7;" horiz-adv-x="1114" d="M195 254l258 258l-258 258l104 104l258 -258l258 258l105 -104l-258 -258l258 -258l-105 -104l-258 258l-258 -258z" />
<glyph unicode="&#xd8;" horiz-adv-x="1394" d="M133 709q0 168 39 301t110.5 226t176 143.5t233.5 50.5q104 0 182 -28t136 -69l131 219l108 -65l-145 -244q82 -100 120 -237.5t38 -325.5q0 -203 -49.5 -338t-155.5 -233q-78 -72 -162 -104t-195 -32q-92 0 -167.5 25t-137.5 68l-139 -232l-106 66l151 252 q-168 193 -168 557zM319 743q0 -137 18.5 -252.5t49.5 -193.5l545 907q-43 41 -102.5 65.5t-137.5 24.5q-98 0 -179 -44t-122 -120q-37 -70 -54.5 -163t-17.5 -224zM469 186q47 -39 111.5 -61.5t128.5 -22.5q86 0 150.5 31t111.5 90q27 33 46 72t31.5 90t18.5 117.5t6 152.5 q0 150 -15.5 255.5t-45.5 179.5z" />
<glyph unicode="&#xd9;" horiz-adv-x="1300" d="M184 397v1008h166v-946q0 -53 5 -111.5t20 -91.5q10 -23 29.5 -47.5t52 -45t80 -32.5t112.5 -12q88 0 151.5 22.5t96.5 65.5q35 47 44 97t9 122v979h166v-999q0 -127 -21.5 -198t-84.5 -124q-66 -55 -153 -82t-216 -27q-164 0 -261 49.5t-155 153.5q-29 51 -35 111.5 t-6 107.5zM319 1690l88 157l424 -266l-53 -96z" />
<glyph unicode="&#xda;" horiz-adv-x="1300" d="M184 397v1008h166v-946q0 -53 5 -111.5t20 -91.5q10 -23 29.5 -47.5t52 -45t80 -32.5t112.5 -12q88 0 151.5 22.5t96.5 65.5q35 47 44 97t9 122v979h166v-999q0 -127 -21.5 -198t-84.5 -124q-66 -55 -153 -82t-216 -27q-164 0 -261 49.5t-155 153.5q-29 51 -35 111.5 t-6 107.5zM395 1581l424 266l88 -157l-458 -205z" />
<glyph unicode="&#xdb;" horiz-adv-x="1300" d="M184 397v1008h166v-946q0 -53 5 -111.5t20 -91.5q10 -23 29.5 -47.5t52 -45t80 -32.5t112.5 -12q88 0 151.5 22.5t96.5 65.5q35 47 44 97t9 122v979h166v-999q0 -127 -21.5 -198t-84.5 -124q-66 -55 -153 -82t-216 -27q-164 0 -261 49.5t-155 153.5q-29 51 -35 111.5 t-6 107.5zM303 1567l348 276l351 -276l-74 -90l-285 174l-276 -174z" />
<glyph unicode="&#xdc;" horiz-adv-x="1300" d="M184 397v1008h166v-946q0 -53 5 -111.5t20 -91.5q10 -23 29.5 -47.5t52 -45t80 -32.5t112.5 -12q88 0 151.5 22.5t96.5 65.5q35 47 44 97t9 122v979h166v-999q0 -127 -21.5 -198t-84.5 -124q-66 -55 -153 -82t-216 -27q-164 0 -261 49.5t-155 153.5q-29 51 -35 111.5 t-6 107.5zM334 1599q0 43 30.5 74t73.5 31q45 0 76 -31t31 -74q0 -45 -30 -76.5t-75 -31.5t-75.5 31.5t-30.5 76.5zM754 1599q0 43 30.5 74t73.5 31q45 0 76 -31t31 -74q0 -45 -30 -76.5t-75 -31.5t-75.5 31.5t-30.5 76.5z" />
<glyph unicode="&#xdd;" horiz-adv-x="1062" d="M-10 1405h207l266 -537q20 -41 36.5 -78.5t35.5 -78.5q4 12 25.5 58t49.5 99l271 537h192l-457 -858v-547h-174v557zM327 1583l424 266l88 -157l-458 -205z" />
<glyph unicode="&#xde;" horiz-adv-x="1122" d="M195 0v1405h163v-266h226q115 0 182.5 -14.5t124.5 -51.5q180 -119 180 -336q0 -109 -28.5 -189.5t-98.5 -144.5q-72 -63 -151.5 -86.5t-188.5 -23.5h-246v-293h-163zM358 430h236q90 0 137 17.5t82 58.5q72 80 72 199q0 78 -19.5 132t-62.5 91t-104.5 53t-161.5 16h-179 v-567z" />
<glyph unicode="&#xdf;" horiz-adv-x="1181" d="M43 899v121h152q0 106 14 175t67 130t128 94t174 33q80 0 146.5 -23.5t115.5 -66.5t76.5 -100.5t27.5 -124.5q0 -49 -15.5 -88t-40 -69t-55 -50.5t-61.5 -34.5q-29 -14 -54.5 -22.5t-45 -16.5t-30.5 -18.5t-11 -26.5q0 -14 23.5 -28.5t64.5 -32t93 -41t112 -58.5 q68 -41 106.5 -119t38.5 -176q0 -78 -28.5 -147.5t-79 -121.5t-121 -82t-156.5 -30q-59 0 -113.5 10.5t-89.5 26.5l47 107q29 -12 61 -19.5t73 -7.5q51 0 94 20.5t74.5 55.5t50 82t18.5 100q0 57 -13.5 97t-39 68t-63.5 49.5t-85 43.5q-55 25 -95 45.5t-66.5 42t-40 46 t-13.5 59.5q0 37 14.5 62.5t37 45t50 33.5t56.5 29l18 10q45 23 80 57.5t35 110.5q0 82 -57.5 133t-151.5 51q-98 0 -155.5 -68.5t-57.5 -222.5v-835q0 -131 -24 -207h-154q10 43 15.5 105.5t5.5 134.5v659h-152z" />
<glyph unicode="&#xe0;" horiz-adv-x="1083" d="M123 264q0 174 141.5 270.5t399.5 96.5h30q16 0 41 -2v71q0 68 -5 102t-28 58q-25 29 -57.5 42t-79.5 13q-43 0 -90 -10t-91 -27.5t-82 -39t-62 -43.5l-80 114q205 137 428 138q217 0 282 -160q16 -41 20.5 -98.5t2.5 -126.5l-8 -336q-2 -61 0 -102.5t11 -69t25.5 -46 t45.5 -32.5l-82 -115q-53 16 -89 56t-51 94q-74 -74 -140 -106t-154 -32q-94 0 -158 27t-101.5 68t-53 93t-15.5 103zM262 1362l88 158l424 -267l-53 -96zM301 279q0 -186 176 -187q78 0 145.5 44t102.5 116l6 266q-16 2 -39.5 3t-40.5 1q-96 0 -163.5 -16.5t-108.5 -47 t-59.5 -76.5t-18.5 -103z" />
<glyph unicode="&#xe1;" horiz-adv-x="1083" d="M123 264q0 174 141.5 270.5t399.5 96.5h30q16 0 41 -2v71q0 68 -5 102t-28 58q-25 29 -57.5 42t-79.5 13q-43 0 -90 -10t-91 -27.5t-82 -39t-62 -43.5l-80 114q205 137 428 138q217 0 282 -160q16 -41 20.5 -98.5t2.5 -126.5l-8 -336q-2 -61 0 -102.5t11 -69t25.5 -46 t45.5 -32.5l-82 -115q-53 16 -89 56t-51 94q-74 -74 -140 -106t-154 -32q-94 0 -158 27t-101.5 68t-53 93t-15.5 103zM301 279q0 -186 176 -187q78 0 145.5 44t102.5 116l6 266q-16 2 -39.5 3t-40.5 1q-96 0 -163.5 -16.5t-108.5 -47t-59.5 -76.5t-18.5 -103zM331 1253 l424 267l88 -158l-458 -205z" />
<glyph unicode="&#xe2;" horiz-adv-x="1083" d="M123 264q0 174 141.5 270.5t399.5 96.5h30q16 0 41 -2v71q0 68 -5 102t-28 58q-25 29 -57.5 42t-79.5 13q-43 0 -90 -10t-91 -27.5t-82 -39t-62 -43.5l-80 114q205 137 428 138q217 0 282 -160q16 -41 20.5 -98.5t2.5 -126.5l-8 -336q-2 -61 0 -102.5t11 -69t25.5 -46 t45.5 -32.5l-82 -115q-53 16 -89 56t-51 94q-74 -74 -140 -106t-154 -32q-94 0 -158 27t-101.5 68t-53 93t-15.5 103zM199 1239l348 277l350 -277l-73 -90l-285 174l-276 -174zM301 279q0 -186 176 -187q78 0 145.5 44t102.5 116l6 266q-16 2 -39.5 3t-40.5 1 q-96 0 -163.5 -16.5t-108.5 -47t-59.5 -76.5t-18.5 -103z" />
<glyph unicode="&#xe3;" horiz-adv-x="1083" d="M123 264q0 174 141.5 270.5t399.5 96.5h30q16 0 41 -2v71q0 68 -5 102t-28 58q-25 29 -57.5 42t-79.5 13q-43 0 -90 -10t-91 -27.5t-82 -39t-62 -43.5l-80 114q205 137 428 138q217 0 282 -160q16 -41 20.5 -98.5t2.5 -126.5l-8 -336q-2 -61 0 -102.5t11 -69t25.5 -46 t45.5 -32.5l-82 -115q-53 16 -89 56t-51 94q-74 -74 -140 -106t-154 -32q-94 0 -158 27t-101.5 68t-53 93t-15.5 103zM197 1303q51 63 103.5 96t142.5 33q47 0 76.5 -12.5t55 -26t54.5 -25.5t74 -12q49 0 79.5 22.5t63.5 57.5l58 -93q-51 -63 -104.5 -96t-143.5 -33 q-47 0 -77 12.5t-55.5 26t-54 25.5t-73.5 12q-49 0 -79 -22.5t-63 -57.5zM301 279q0 -186 176 -187q78 0 145.5 44t102.5 116l6 266q-16 2 -39.5 3t-40.5 1q-96 0 -163.5 -16.5t-108.5 -47t-59.5 -76.5t-18.5 -103z" />
<glyph unicode="&#xe4;" horiz-adv-x="1083" d="M123 264q0 174 141.5 270.5t399.5 96.5h30q16 0 41 -2v71q0 68 -5 102t-28 58q-25 29 -57.5 42t-79.5 13q-43 0 -90 -10t-91 -27.5t-82 -39t-62 -43.5l-80 114q205 137 428 138q217 0 282 -160q16 -41 20.5 -98.5t2.5 -126.5l-8 -336q-2 -61 0 -102.5t11 -69t25.5 -46 t45.5 -32.5l-82 -115q-53 16 -89 56t-51 94q-74 -74 -140 -106t-154 -32q-94 0 -158 27t-101.5 68t-53 93t-15.5 103zM242 1272q0 43 30.5 73.5t73.5 30.5q45 0 76 -30.5t31 -73.5q0 -45 -30 -77t-75 -32t-75.5 32t-30.5 77zM301 279q0 -186 176 -187q78 0 145.5 44 t102.5 116l6 266q-16 2 -39.5 3t-40.5 1q-96 0 -163.5 -16.5t-108.5 -47t-59.5 -76.5t-18.5 -103zM666 1272q0 43 30.5 73.5t73.5 30.5q45 0 76 -30.5t31 -73.5q0 -45 -30 -77t-75 -32t-75.5 32t-30.5 77z" />
<glyph unicode="&#xe5;" horiz-adv-x="1083" d="M123 264q0 174 141.5 270.5t399.5 96.5h30q16 0 41 -2v71q0 68 -5 102t-28 58q-25 29 -57.5 42t-79.5 13q-43 0 -90 -10t-91 -27.5t-82 -39t-62 -43.5l-80 114q205 137 428 138q217 0 282 -160q16 -41 20.5 -98.5t2.5 -126.5l-8 -336q-2 -61 0 -102.5t11 -69t25.5 -46 t45.5 -32.5l-82 -115q-53 16 -89 56t-51 94q-74 -74 -140 -106t-154 -32q-94 0 -158 27t-101.5 68t-53 93t-15.5 103zM301 279q0 -186 176 -187q78 0 145.5 44t102.5 116l6 266q-16 2 -39.5 3t-40.5 1q-96 0 -163.5 -16.5t-108.5 -47t-59.5 -76.5t-18.5 -103zM354 1350 q0 45 16.5 84t46 68.5t68.5 47t82 17.5t83 -17.5t70 -47t47 -68.5t17 -84t-16 -84t-46 -69t-69 -47t-82 -17q-45 0 -83.5 17t-68.5 47t-47.5 69t-17.5 84zM449 1350q0 -49 36.5 -86t85.5 -37q47 0 84 37t37 86t-37 86t-90 37q-47 0 -81.5 -37t-34.5 -86z" />
<glyph unicode="&#xe6;" horiz-adv-x="1628" d="M123 264q0 174 141.5 270.5t399.5 96.5q20 0 42.5 -1t28.5 -1v71q0 68 -5 102t-28 58q-25 29 -57.5 42t-79.5 13q-80 0 -167 -32.5t-158 -87.5l-80 114q205 137 428 138q92 0 151.5 -36t96.5 -98q59 61 129.5 98.5t156.5 37.5q170 0 277 -111q33 -35 55.5 -72t35.5 -87 t19.5 -115.5t6.5 -157.5v-23h-637v-34q0 -70 16 -131.5t51 -107.5t92.5 -72.5t141.5 -26.5q145 0 250 96l61 -103q-68 -61 -157 -94t-187 -33q-123 0 -214 52.5t-136 122.5q-33 -41 -75 -74t-88 -56.5t-93 -36t-90 -12.5q-96 0 -160 28t-100.5 71t-52 94t-15.5 98zM301 279 q0 -186 176 -187q78 0 145.5 44t102.5 116l6 266q-8 0 -34.5 2t-45.5 2q-188 0 -269 -62.5t-81 -180.5zM879 604h467q0 160 -54.5 239t-177.5 79q-223 0 -235 -318z" />
<glyph unicode="&#xe7;" horiz-adv-x="960" d="M133 494q0 168 44 268t110 166q119 119 276 119q96 0 159.5 -33t119.5 -78l-88 -111q-53 45 -94.5 63.5t-100.5 18.5t-111.5 -30.5t-80.5 -83.5q-57 -106 -58 -334q0 -174 64.5 -264.5t187.5 -90.5q127 0 219 111l88 -102q-70 -72 -139.5 -102.5t-161.5 -33.5l-16 -63 q78 -10 105.5 -51t27.5 -96q0 -29 -13.5 -60t-38 -55.5t-62.5 -39.5t-87 -15q-47 0 -92 16t-76 33l43 96q41 -18 66 -25.5t59 -7.5q29 0 51.5 16.5t22.5 45.5q0 31 -25.5 45t-52.5 14q-33 0 -53 -4l-18 20l38 144q-139 31 -215 141q-51 74 -74.5 161t-23.5 202z" />
<glyph unicode="&#xe8;" horiz-adv-x="1067" d="M133 520q0 129 28.5 218t94.5 167q121 141 305 142q170 0 277 -111q33 -35 55 -72t35.5 -86t19.5 -114.5t6 -157.5v-23h-637v-24q0 -72 10.5 -127.5t37.5 -95.5q43 -66 109.5 -95.5t143.5 -29.5q145 0 250 96l62 -103q-68 -61 -157 -94t-187 -33q-213 0 -333 144.5 t-120 398.5zM272 1362l88 158l424 -267l-53 -96zM317 604h467q-2 84 -13 137.5t-34 89.5q-27 41 -76 66t-108 25q-223 0 -236 -318z" />
<glyph unicode="&#xe9;" horiz-adv-x="1067" d="M133 520q0 129 28.5 218t94.5 167q121 141 305 142q170 0 277 -111q33 -35 55 -72t35.5 -86t19.5 -114.5t6 -157.5v-23h-637v-24q0 -72 10.5 -127.5t37.5 -95.5q43 -66 109.5 -95.5t143.5 -29.5q145 0 250 96l62 -103q-68 -61 -157 -94t-187 -33q-213 0 -333 144.5 t-120 398.5zM317 604h467q-2 84 -13 137.5t-34 89.5q-27 41 -76 66t-108 25q-223 0 -236 -318zM329 1253l424 267l88 -158l-458 -205z" />
<glyph unicode="&#xea;" horiz-adv-x="1067" d="M133 520q0 129 28.5 218t94.5 167q121 141 305 142q170 0 277 -111q33 -35 55 -72t35.5 -86t19.5 -114.5t6 -157.5v-23h-637v-24q0 -72 10.5 -127.5t37.5 -95.5q43 -66 109.5 -95.5t143.5 -29.5q145 0 250 96l62 -103q-68 -61 -157 -94t-187 -33q-213 0 -333 144.5 t-120 398.5zM213 1239l348 277l350 -277l-73 -90l-285 174l-276 -174zM317 604h467q-2 84 -13 137.5t-34 89.5q-27 41 -76 66t-108 25q-223 0 -236 -318z" />
<glyph unicode="&#xeb;" horiz-adv-x="1067" d="M133 520q0 129 28.5 218t94.5 167q121 141 305 142q170 0 277 -111q33 -35 55 -72t35.5 -86t19.5 -114.5t6 -157.5v-23h-637v-24q0 -72 10.5 -127.5t37.5 -95.5q43 -66 109.5 -95.5t143.5 -29.5q145 0 250 96l62 -103q-68 -61 -157 -94t-187 -33q-213 0 -333 144.5 t-120 398.5zM238 1272q0 43 30.5 73.5t73.5 30.5q45 0 76 -30.5t31 -73.5q0 -45 -30 -77t-75 -32t-75.5 32t-30.5 77zM317 604h467q-2 84 -13 137.5t-34 89.5q-27 41 -76 66t-108 25q-223 0 -236 -318zM660 1272q0 43 30.5 73.5t73.5 30.5q45 0 76 -30.5t31 -73.5 q0 -45 -30 -77t-75 -32t-75.5 32t-30.5 77z" />
<glyph unicode="&#xec;" horiz-adv-x="555" d="M-27 1362l88 158l424 -267l-53 -96zM195 0v1016l165 26v-1042h-165z" />
<glyph unicode="&#xed;" horiz-adv-x="555" d="M75 1253l424 267l88 -158l-458 -205zM195 0v1016l165 26v-1042h-165z" />
<glyph unicode="&#xee;" horiz-adv-x="555" d="M-68 1239l348 277l350 -277l-73 -90l-285 174l-276 -174zM195 0v1016l165 26v-1042h-165z" />
<glyph unicode="&#xef;" horiz-adv-x="555" d="M-16 1272q0 43 30.5 73.5t73.5 30.5q45 0 76 -30.5t31 -73.5q0 -45 -30 -77t-75 -32t-75.5 32t-30.5 77zM195 0v1016l165 26v-1042h-165zM363 1272q0 43 30.5 73.5t73.5 30.5q45 0 76 -30.5t31 -73.5q0 -45 -30 -77t-75 -32t-75.5 32t-30.5 77z" />
<glyph unicode="&#xf0;" horiz-adv-x="1150" d="M133 471q0 94 31 182t86 153.5t133 105.5t172 40q76 0 132 -13t97 -32q-12 41 -35.5 84t-51 80t-53.5 63.5t-42 39.5l-106 -121l-105 73l101 113q-109 57 -256 98l81 99q147 -37 265 -93l88 103l104 -74l-78 -86q88 -66 149.5 -149.5t99.5 -181t55.5 -205t17.5 -218.5 q0 -133 -36 -237.5t-96.5 -176t-142 -109.5t-174.5 -38q-92 0 -172 42t-138 111t-92 159t-34 188zM311 467q0 -74 19.5 -139.5t55.5 -114.5t85 -79t111 -30q133 0 197.5 108.5t64.5 301.5q0 25 -4 63.5t-8.5 76.5t-8.5 69t-6 37q-45 29 -113.5 48t-140.5 19 q-59 0 -105 -28.5t-79 -77.5t-50.5 -114.5t-17.5 -139.5z" />
<glyph unicode="&#xf1;" horiz-adv-x="1138" d="M156 1001l155 43q6 -10 21.5 -57t15.5 -102q158 158 322 157q84 0 151.5 -40.5t98.5 -108.5q25 -55 24 -119v-774h-162v690q0 41 -2 67.5t-6 45t-11 32t-18 25.5q-37 43 -112 43q-31 0 -69 -11t-75.5 -30.5t-74.5 -46.5t-64 -55v-760h-155v786q0 98 -16.5 151.5 t-22.5 63.5zM207 1303q51 63 103.5 96t142.5 33q47 0 76.5 -12.5t55 -26t54.5 -25.5t74 -12q49 0 79.5 22.5t63.5 57.5l58 -93q-51 -63 -104.5 -96t-143.5 -33q-47 0 -77 12.5t-55.5 26t-54 25.5t-73.5 12q-49 0 -79 -22.5t-63 -57.5z" />
<glyph unicode="&#xf2;" horiz-adv-x="1124" d="M123 516q0 250 115.5 392.5t318.5 142.5q129 0 213 -51.5t137 -127.5q47 -70 70.5 -161.5t23.5 -216.5q0 -127 -32.5 -224.5t-91 -163t-138.5 -99.5t-176 -34q-211 0 -325.5 145.5t-114.5 397.5zM266 1362l88 158l424 -267l-53 -96zM297 543q0 -109 17.5 -198t45.5 -136 q29 -47 85.5 -75t121.5 -28q80 0 137.5 40t83.5 114q16 47 23.5 96t7.5 125q0 211 -47 307q-33 68 -93.5 100t-123.5 32q-68 0 -125 -30t-84 -81q-25 -47 -37 -110.5t-12 -155.5z" />
<glyph unicode="&#xf3;" horiz-adv-x="1124" d="M123 516q0 250 115.5 392.5t318.5 142.5q129 0 213 -51.5t137 -127.5q47 -70 70.5 -161.5t23.5 -216.5q0 -127 -32.5 -224.5t-91 -163t-138.5 -99.5t-176 -34q-211 0 -325.5 145.5t-114.5 397.5zM297 543q0 -109 17.5 -198t45.5 -136q29 -47 85.5 -75t121.5 -28 q80 0 137.5 40t83.5 114q16 47 23.5 96t7.5 125q0 211 -47 307q-33 68 -93.5 100t-123.5 32q-68 0 -125 -30t-84 -81q-25 -47 -37 -110.5t-12 -155.5zM356 1253l424 267l88 -158l-458 -205z" />
<glyph unicode="&#xf4;" horiz-adv-x="1124" d="M123 516q0 250 115.5 392.5t318.5 142.5q129 0 213 -51.5t137 -127.5q47 -70 70.5 -161.5t23.5 -216.5q0 -127 -32.5 -224.5t-91 -163t-138.5 -99.5t-176 -34q-211 0 -325.5 145.5t-114.5 397.5zM215 1239l348 277l350 -277l-73 -90l-285 174l-276 -174zM297 543 q0 -109 17.5 -198t45.5 -136q29 -47 85.5 -75t121.5 -28q80 0 137.5 40t83.5 114q16 47 23.5 96t7.5 125q0 211 -47 307q-33 68 -93.5 100t-123.5 32q-68 0 -125 -30t-84 -81q-25 -47 -37 -110.5t-12 -155.5z" />
<glyph unicode="&#xf5;" horiz-adv-x="1124" d="M123 516q0 250 115.5 392.5t318.5 142.5q129 0 213 -51.5t137 -127.5q47 -70 70.5 -161.5t23.5 -216.5q0 -127 -32.5 -224.5t-91 -163t-138.5 -99.5t-176 -34q-211 0 -325.5 145.5t-114.5 397.5zM215 1303q51 63 103.5 96t142.5 33q47 0 76.5 -12.5t55 -26t54.5 -25.5 t74 -12q49 0 79.5 22.5t63.5 57.5l58 -93q-51 -63 -104.5 -96t-143.5 -33q-47 0 -77 12.5t-55.5 26t-54 25.5t-73.5 12q-49 0 -79 -22.5t-63 -57.5zM297 543q0 -109 17.5 -198t45.5 -136q29 -47 85.5 -75t121.5 -28q80 0 137.5 40t83.5 114q16 47 23.5 96t7.5 125 q0 211 -47 307q-33 68 -93.5 100t-123.5 32q-68 0 -125 -30t-84 -81q-25 -47 -37 -110.5t-12 -155.5z" />
<glyph unicode="&#xf6;" horiz-adv-x="1124" d="M123 516q0 250 115.5 392.5t318.5 142.5q129 0 213 -51.5t137 -127.5q47 -70 70.5 -161.5t23.5 -216.5q0 -127 -32.5 -224.5t-91 -163t-138.5 -99.5t-176 -34q-211 0 -325.5 145.5t-114.5 397.5zM240 1272q0 43 30.5 73.5t73.5 30.5q45 0 76 -30.5t31 -73.5 q0 -45 -30 -77t-75 -32t-75.5 32t-30.5 77zM297 543q0 -109 17.5 -198t45.5 -136q29 -47 85.5 -75t121.5 -28q80 0 137.5 40t83.5 114q16 47 23.5 96t7.5 125q0 211 -47 307q-33 68 -93.5 100t-123.5 32q-68 0 -125 -30t-84 -81q-25 -47 -37 -110.5t-12 -155.5zM664 1272 q0 43 30.5 73.5t73.5 30.5q45 0 76 -30.5t31 -73.5q0 -45 -30 -77t-75 -32t-75.5 32t-30.5 77z" />
<glyph unicode="&#xf7;" horiz-adv-x="1249" d="M113 481v133h1024v-133h-1024zM492 113q0 59 39.5 99t99.5 40q55 0 95 -40t40 -97q0 -59 -40 -99.5t-99 -40.5q-57 0 -96 40t-39 98zM492 963q0 59 39.5 100t99.5 41q55 0 95 -40t40 -97q0 -59 -40 -99.5t-97 -40.5t-97 39t-40 97z" />
<glyph unicode="&#xf8;" horiz-adv-x="1124" d="M123 508q0 250 115.5 392t318.5 142q66 0 120 -14t99 -41l103 170l100 -61l-111 -183q70 -80 101.5 -180.5t31.5 -247.5q0 -150 -36.5 -249t-122.5 -173q-59 -53 -126 -75.5t-153 -22.5q-133 0 -227 62l-98 -162l-99 61l107 178q-59 70 -91 172.5t-32 231.5zM297 535 q0 -84 10 -156t29 -125l366 610q-33 25 -70.5 36t-76.5 11q-68 0 -125 -29.5t-84 -80.5q-25 -47 -37 -110.5t-12 -155.5zM410 150q31 -23 71.5 -37.5t85.5 -14.5q80 0 137.5 40t83.5 114q16 47 23.5 96t7.5 125q0 195 -41 289z" />
<glyph unicode="&#xf9;" horiz-adv-x="1140" d="M184 262v750l158 30v-733q0 -72 13.5 -109.5t47.5 -62.5q25 -16 58 -25.5t67 -9.5q76 0 148 50.5t112 134.5v723l158 26v-743q0 -96 15.5 -144.5t54.5 -82.5l-103 -109q-51 41 -75.5 77t-34.5 87q-117 -156 -324 -156q-98 0 -166.5 39t-101.5 107q-14 29 -20.5 67.5 t-6.5 83.5zM301 1362l88 158l424 -267l-53 -96z" />
<glyph unicode="&#xfa;" horiz-adv-x="1140" d="M184 262v750l158 30v-733q0 -72 13.5 -109.5t47.5 -62.5q25 -16 58 -25.5t67 -9.5q76 0 148 50.5t112 134.5v723l158 26v-743q0 -96 15.5 -144.5t54.5 -82.5l-103 -109q-51 41 -75.5 77t-34.5 87q-117 -156 -324 -156q-98 0 -166.5 39t-101.5 107q-14 29 -20.5 67.5 t-6.5 83.5zM403 1253l424 267l88 -158l-458 -205z" />
<glyph unicode="&#xfb;" horiz-adv-x="1140" d="M184 262v750l158 30v-733q0 -72 13.5 -109.5t47.5 -62.5q25 -16 58 -25.5t67 -9.5q76 0 148 50.5t112 134.5v723l158 26v-743q0 -96 15.5 -144.5t54.5 -82.5l-103 -109q-51 41 -75.5 77t-34.5 87q-117 -156 -324 -156q-98 0 -166.5 39t-101.5 107q-14 29 -20.5 67.5 t-6.5 83.5zM219 1239l348 277l350 -277l-73 -90l-285 174l-276 -174z" />
<glyph unicode="&#xfc;" horiz-adv-x="1140" d="M184 262v750l158 30v-733q0 -72 13.5 -109.5t47.5 -62.5q25 -16 58 -25.5t67 -9.5q76 0 148 50.5t112 134.5v723l158 26v-743q0 -96 15.5 -144.5t54.5 -82.5l-103 -109q-51 41 -75.5 77t-34.5 87q-117 -156 -324 -156q-98 0 -166.5 39t-101.5 107q-14 29 -20.5 67.5 t-6.5 83.5zM246 1272q0 43 30.5 73.5t73.5 30.5q45 0 76 -30.5t31 -73.5q0 -45 -30 -77t-75 -32t-75.5 32t-30.5 77zM670 1272q0 43 30.5 73.5t73.5 30.5q45 0 76 -30.5t31 -73.5q0 -45 -30 -77t-75 -32t-75.5 32t-30.5 77z" />
<glyph unicode="&#xfd;" horiz-adv-x="940" d="M31 997l157 54l209 -662q10 -33 20.5 -71.5t18.5 -75.5t14.5 -66t8.5 -41h4q16 53 31.5 107.5t31.5 107.5l201 670h182l-350 -1057q-25 -78 -54.5 -140.5t-68.5 -111.5t-89 -81.5t-118 -49.5l-47 109q49 14 84 36.5t61.5 57.5t48 88t42.5 131l-66 -10q-4 25 -16 71 t-26.5 99t-31 105t-28.5 91zM338 1249l424 267l88 -158l-458 -205z" />
<glyph unicode="&#xfe;" horiz-adv-x="1161" d="M164 1466l160 31q12 -53 19 -113.5t7 -119.5v-205q0 -61 -4 -97t-4 -63q63 74 139 107.5t162 33.5q78 0 150.5 -32.5t121.5 -94.5q57 -72 85 -168t28 -233q0 -123 -23.5 -201t-66.5 -147q-55 -90 -135 -138.5t-180 -48.5q-162 0 -273 115v-487l-160 -31v1675 q0 125 -26 217zM350 240q113 -129 242 -129q72 0 130 34.5t85 92.5q23 49 37 108.5t14 145.5q0 92 -12 168.5t-35 123.5q-25 53 -76 83t-112 30q-78 0 -145.5 -31.5t-127.5 -103.5v-522z" />
<glyph unicode="&#xff;" horiz-adv-x="940" d="M31 997l157 54l209 -662q10 -33 20.5 -71.5t18.5 -75.5t14.5 -66t8.5 -41h4q16 53 31.5 107.5t31.5 107.5l201 670h182l-350 -1057q-25 -78 -54.5 -140.5t-68.5 -111.5t-89 -81.5t-118 -49.5l-47 109q49 14 84 36.5t61.5 57.5t48 88t42.5 131l-66 -10q-4 25 -16 71 t-26.5 99t-31 105t-28.5 91zM156 1272q0 43 30.5 73.5t73.5 30.5q45 0 76 -30.5t31 -73.5q0 -45 -30 -77t-75 -32t-75.5 32t-30.5 77zM578 1272q0 43 30.5 73.5t73.5 30.5q45 0 76 -30.5t31 -73.5q0 -45 -30 -77t-75 -32t-75.5 32t-30.5 77z" />
<glyph unicode="&#x152;" horiz-adv-x="1804" d="M133 700q0 186 44 316.5t116 208.5q41 45 85 79.5t96 56t115.5 33t145.5 11.5h967l-23 -141h-575v-459h481v-146h-481v-514h618v-145h-901q-80 0 -141.5 3t-112.5 13.5t-98 32t-98 57.5q-121 86 -179.5 237t-58.5 357zM315 721q0 -160 25 -267.5t96 -191.5 q109 -127 264 -127h50q31 0 62.5 2t64 4t57.5 6v1098q-47 6 -93 10.5t-87 4.5q-123 0 -207 -30t-137 -116q-49 -80 -72 -181.5t-23 -211.5z" />
<glyph unicode="&#x153;" horiz-adv-x="1738" d="M123 508q0 250 115.5 392t318.5 142q125 0 209 -49t135 -125q123 180 332 181q84 0 153.5 -30t122.5 -83q33 -35 55.5 -72t36 -86t19.5 -114.5t6 -157.5v-23h-637v-24q0 -72 10.5 -127.5t36.5 -95.5q43 -66 109.5 -95.5t144.5 -29.5q145 0 250 96l62 -103 q-68 -61 -157 -94t-188 -33q-115 0 -208 46.5t-134 119.5q-72 -92 -153.5 -135t-198.5 -43q-102 0 -184 38t-138.5 107.5t-87 170t-30.5 227.5zM297 535q0 -109 17.5 -198t45.5 -136q29 -47 85.5 -75t121.5 -28q80 0 137.5 40t83.5 114q16 47 23.5 96t7.5 125q0 211 -47 307 q-33 68 -93.5 99.5t-123.5 31.5q-68 0 -125 -29.5t-84 -80.5q-25 -47 -37 -110.5t-12 -155.5zM989 604h467q-2 84 -13 137.5t-34 89.5q-27 41 -76 66t-108 25q-223 0 -236 -318z" />
<glyph unicode="&#x178;" horiz-adv-x="1062" d="M-10 1405h207l266 -537q20 -41 36.5 -78.5t35.5 -78.5q4 12 25.5 58t49.5 99l271 537h192l-457 -858v-547h-174v557zM213 1599q0 43 30.5 74t73.5 31q45 0 76 -31t31 -74q0 -45 -30 -76.5t-75 -31.5t-75.5 31.5t-30.5 76.5zM635 1599q0 43 30.5 74t73.5 31q45 0 76 -31 t31 -74q0 -45 -30 -76.5t-75 -31.5t-75.5 31.5t-30.5 76.5z" />
<glyph unicode="&#x2c6;" horiz-adv-x="841" d="M72 1239l348 277l350 -277l-74 -90l-284 174l-277 -174z" />
<glyph unicode="&#x2dc;" horiz-adv-x="808" d="M51 1303q51 63 103.5 96t142.5 33q47 0 76.5 -12.5t55.5 -26t54.5 -25.5t73.5 -12q49 0 80 22.5t63 57.5l58 -93q-51 -63 -104.5 -96t-143.5 -33q-47 0 -77 12.5t-55.5 26t-54 25.5t-73.5 12q-49 0 -79 -22.5t-62 -57.5z" />
<glyph unicode="&#x2000;" horiz-adv-x="947" />
<glyph unicode="&#x2001;" horiz-adv-x="1894" />
<glyph unicode="&#x2002;" horiz-adv-x="947" />
<glyph unicode="&#x2003;" horiz-adv-x="1894" />
<glyph unicode="&#x2004;" horiz-adv-x="631" />
<glyph unicode="&#x2005;" horiz-adv-x="473" />
<glyph unicode="&#x2006;" horiz-adv-x="315" />
<glyph unicode="&#x2007;" horiz-adv-x="315" />
<glyph unicode="&#x2008;" horiz-adv-x="236" />
<glyph unicode="&#x2009;" horiz-adv-x="378" />
<glyph unicode="&#x200a;" horiz-adv-x="105" />
<glyph unicode="&#x2010;" horiz-adv-x="616" d="M113 469v156h391v-156h-391z" />
<glyph unicode="&#x2011;" horiz-adv-x="616" d="M113 469v156h391v-156h-391z" />
<glyph unicode="&#x2012;" horiz-adv-x="616" d="M113 469v156h391v-156h-391z" />
<glyph unicode="&#x2013;" horiz-adv-x="1218" d="M113 512v121h993v-121h-993z" />
<glyph unicode="&#x2014;" horiz-adv-x="1683" d="M113 512v121h1458v-121h-1458z" />
<glyph unicode="&#x2018;" horiz-adv-x="552" d="M133 1104q0 53 20.5 107.5t57.5 103.5q31 41 78 78t94 63l57 -90q-121 -59 -137 -182q10 2 23 2q47 0 79.5 -39t32.5 -92q0 -61 -42 -104.5t-101 -43.5q-72 0 -117 55.5t-45 141.5z" />
<glyph unicode="&#x2019;" horiz-adv-x="552" d="M113 971q121 59 137 182q-10 -2 -23 -2q-47 0 -79.5 39t-32.5 92q0 61 42 104.5t101 43.5q72 0 117 -55.5t45 -141.5q0 -53 -20.5 -107.5t-57.5 -103.5q-31 -41 -78 -78t-94 -63z" />
<glyph unicode="&#x201a;" horiz-adv-x="552" d="M113 -203q121 59 137 183q-10 -2 -23 -3q-47 0 -79.5 39t-32.5 93q0 61 42 104t101 43q72 0 117 -55.5t45 -141.5q0 -53 -20.5 -107t-57.5 -104q-31 -41 -78 -77.5t-94 -63.5z" />
<glyph unicode="&#x201c;" horiz-adv-x="956" d="M133 1104q0 53 20.5 107.5t57.5 103.5q31 41 78 78t94 63l57 -90q-121 -59 -137 -182q10 2 23 2q47 0 79.5 -39t32.5 -92q0 -61 -42 -104.5t-101 -43.5q-72 0 -117 55.5t-45 141.5zM537 1104q0 53 20.5 107.5t56.5 103.5q31 41 78 78t94 63l58 -90q-121 -59 -137 -182 q10 2 22 2q47 0 80 -39t33 -92q0 -61 -42 -104.5t-102 -43.5q-72 0 -116.5 55.5t-44.5 141.5z" />
<glyph unicode="&#x201d;" horiz-adv-x="956" d="M113 971q121 59 137 182q-10 -2 -23 -2q-47 0 -79.5 39t-32.5 92q0 61 42 104.5t101 43.5q72 0 117 -55.5t45 -141.5q0 -53 -20.5 -107.5t-57.5 -103.5q-31 -41 -78 -78t-94 -63zM516 971q121 59 137 182q-10 -2 -22 -2q-47 0 -80 39t-33 92q0 61 42 104.5t102 43.5 q72 0 116.5 -55.5t44.5 -141.5q0 -53 -20.5 -107.5t-57.5 -103.5q-31 -41 -77.5 -78t-94.5 -63z" />
<glyph unicode="&#x201e;" horiz-adv-x="958" d="M113 -203q121 59 137 183q-10 -2 -23 -3q-47 0 -79.5 39t-32.5 93q0 61 42 104t101 43q72 0 117 -55.5t45 -141.5q0 -53 -20.5 -107t-57.5 -104q-31 -41 -78 -77.5t-94 -63.5zM518 -203q121 59 137 183q-10 -2 -22 -3q-47 0 -80 39t-33 93q0 61 42 104t102 43 q72 0 116.5 -55.5t44.5 -141.5q0 -53 -20.5 -107t-56.5 -104q-31 -41 -78 -77.5t-95 -63.5z" />
<glyph unicode="&#x2022;" horiz-adv-x="1073" d="M174 725q0 76 28.5 141.5t78 114.5t115 77.5t141.5 28.5t141 -28.5t114.5 -77.5t78 -114.5t28.5 -141.5t-28.5 -141.5t-78 -114.5t-115 -78t-140.5 -29q-76 0 -141.5 29t-115 78t-78 114.5t-28.5 141.5z" />
<glyph unicode="&#x2026;" horiz-adv-x="1523" d="M154 115q0 57 38.5 96t96.5 39q59 0 99 -39t40 -96q0 -59 -40 -100.5t-95 -41.5q-59 0 -99 41t-40 101zM625 115q0 57 38.5 96t96.5 39q59 0 99 -39t40 -96q0 -59 -40 -100.5t-95 -41.5q-59 0 -99 41t-40 101zM1096 115q0 57 39 96t96 39q59 0 99 -39t40 -96 q0 -59 -40 -100.5t-95 -41.5q-59 0 -99 41t-40 101z" />
<glyph unicode="&#x202f;" horiz-adv-x="378" />
<glyph unicode="&#x2039;" horiz-adv-x="651" d="M133 492l293 438l113 -74l-240 -364l240 -365l-113 -74z" />
<glyph unicode="&#x203a;" horiz-adv-x="651" d="M113 127l239 365l-239 364l112 74l293 -438l-293 -439z" />
<glyph unicode="&#x205f;" horiz-adv-x="473" />
<glyph unicode="&#x20ac;" d="M80 479v121h209q-4 41 -5 82t3 82h-207v121h223q23 119 75 218t127 171t168 110.5t201 38.5q102 0 182.5 -25.5t110.5 -49.5l-28 -148q-63 47 -126 67.5t-141 20.5q-123 0 -208.5 -61.5t-137.5 -179.5q-29 -68 -45 -162h551v-121h-563q-6 -76 0 -164h563v-121h-551 q8 -51 31 -102q53 -133 154.5 -197.5t222.5 -64.5q78 0 142.5 21.5t131.5 68.5l29 -150q-59 -33 -142 -55.5t-188 -22.5q-115 0 -221 47.5t-188 139.5q-57 66 -93 144.5t-55 170.5h-225z" />
<glyph unicode="&#x2122;" horiz-adv-x="2031" d="M72 1270v135h667v-135h-266v-709h-135v709h-266zM909 561v844h215l252 -641l252 641h209v-844h-135v709h-4l-279 -709h-92l-278 709h-5v-709h-135z" />
<glyph unicode="&#xe000;" horiz-adv-x="1024" d="M0 0v1024h1024v-1024h-1024z" />
</font>
</defs>
</svg>
