<svg display="none" version="1.1" xmlns="http://www.w3.org/2000/svg" xmlns:xlink="http://www.w3.org/1999/xlink">
<defs>
	<symbol id="icon-ka" viewBox="0 0 1024 1024">
	<title>ka</title>
	<path class="path1" d="M987.876 852.338c0 5.593-1.512 135.546-135.515 135.546h-680.708c-5.561 0-135.515-1.481-135.515-135.546v-680.661c0-5.577 1.544-135.53 135.515-135.53h680.676c5.514 0 135.546 1.497 135.546 135.53v680.661zM852.362-0.008h-680.708c-135.751 0-171.654 112.309-171.654 171.67v680.676c0 135.814 112.262 171.654 171.654 171.654h680.676c135.83 0 171.67-112.293 171.67-171.654v-680.661c0.032-135.814-112.278-171.685-171.638-171.685z"></path>
</symbol>
<symbol id="icon-1-stab" viewBox="0 0 1024 1024">
	<title>plank</title>
	<path class="path1" d="M987.876 852.338c0 5.593-1.512 135.546-135.515 135.546h-680.708c-5.561 0-135.515-1.481-135.515-135.546v-680.661c0-5.577 1.544-135.53 135.515-135.53h680.676c5.514 0 135.546 1.497 135.546 135.53v680.661zM852.362-0.008h-680.708c-135.751 0-171.654 112.309-171.654 171.67v680.676c0 135.814 112.262 171.654 171.654 171.654h680.676c135.83 0 171.67-112.293 171.67-171.654v-680.661c0.032-135.814-112.278-171.685-171.638-171.685z"></path>
	<path class="path2" d="M966.185 358.131l-141.013-60.857-767.338 418.296 138.917 121.352 769.434-478.791zM109.522 715.57l720.108-400.258 97.721 42.819-721.29 439.249-96.54-81.81z"></path>
</symbol>
<symbol id="icon-2-stab" viewBox="0 0 1024 1024">
	<title>plank2</title>
	<path class="path1" d="M987.892 852.338c0 5.593-1.512 135.546-135.53 135.546h-680.708c-5.577 0-135.53-1.481-135.53-135.546v-680.661c0-5.577 1.56-135.53 135.53-135.53h680.692c5.498 0 135.53 1.497 135.53 135.53v680.661h0.016zM852.362-0.008h-680.708c-135.767 0-171.654 112.309-171.654 171.67v680.676c0 135.814 112.262 171.654 171.654 171.654h680.692c135.814 0 171.654-112.293 171.654-171.654v-680.661c0.032-135.814-112.262-171.685-171.638-171.685z"></path>
	<path class="path2" d="M809.031 354.638l-58.242-26.908-283.932 154.782 21.094 12.603 266.177-147.929 37.368 17.534 17.534-10.082z"></path>
	<path class="path3" d="M525.677 517.662l-58.825-35.147-409.143 223.059 77.509 67.663 132.742-77.95-21.788-16.825 279.505-160.8zM109.209 705.605l355.706-197.695 37.715 23.016-357.108 205.446-36.313-30.767z"></path>
	<path class="path4" d="M964.969 348.722l-83.228-35.919-261.104 150.229 22.181 12.146 244.421-143.518 38.896 17.046-243.507 148.291 23.41 12.839 258.93-161.115z"></path>
	<path class="path5" d="M706.046 509.839l-85.417-46.805-374.453 215.434 21.772 16.825 62.559 48.223 375.54-233.677zM296.62 678.468l325.081-190.889 39.857 22.26-325.506 198.231-39.432-29.601z"></path>
	<path class="path6" d="M989.754 851.062c0 5.577-1.512 135.546-135.53 135.546h-680.708c-5.577 0-135.53-1.481-135.53-135.546v-680.661c0-5.577 1.56-135.53 135.53-135.53h680.692c5.498 0 135.53 1.497 135.53 135.53v680.661h0.016zM854.224-1.284h-680.708c-135.767 0-171.654 112.309-171.654 171.67v680.661c0 135.814 112.262 171.67 171.654 171.67h680.692c135.814 0 171.654-112.309 171.654-171.67v-680.645c0.032-135.814-112.262-171.685-171.638-171.685z"></path>
	<path class="path7" d="M810.893 353.354l-58.242-26.908-283.932 154.782 21.094 12.603 266.177-147.929 37.368 17.534 17.534-10.082z"></path>
	<path class="path8" d="M527.538 516.376l-58.825-35.147-409.143 223.043 77.509 67.663 132.742-77.934-21.788-16.825 279.505-160.8zM111.069 704.32l355.706-197.695 37.715 23.001-357.108 205.446-36.313-30.752z"></path>
	<path class="path9" d="M966.831 347.438l-83.228-35.919-261.104 150.229 22.181 12.146 244.421-143.518 38.896 17.046-243.507 148.291 23.41 12.839 258.93-161.115z"></path>
	<path class="path10" d="M707.907 508.553l-85.417-46.805-374.453 215.418 21.772 16.825 62.559 48.238 375.54-233.677zM298.48 677.166l325.081-190.874 39.857 22.26-325.506 198.231-39.432-29.617z"></path>
</symbol>
<symbol id="icon-3-stab" viewBox="0 0 1024 1024">
	<title>plank3</title>
	<path class="path1" d="M987.908 852.338c0 5.593-1.544 135.546-135.546 135.546h-680.708c-5.561 0-135.53-1.481-135.53-135.546v-680.661c0-5.577 1.56-135.53 135.53-135.53h680.692c5.498 0 135.53 1.497 135.53 135.53v680.661h0.032zM852.362-0.008h-680.708c-135.767 0-171.654 112.309-171.654 171.67v680.676c0 135.814 112.262 171.654 171.654 171.654h680.692c135.814 0 171.654-112.293 171.654-171.654v-680.661c0.032-135.814-112.246-171.685-171.638-171.685z"></path>
	<path class="path2" d="M830.922 327.877l-67.883-30.184-156.672 84.441 47.009 24.119 75.823-42.646 21.504 10.303 80.219-46.033zM627.761 392.452l138.949-76.343 25.994 11.768-138.697 78.029-26.246-13.454z"></path>
	<path class="path3" d="M653.384 406.254l-47.009-24.119-183.091 98.666 20.732 12.556 163.304-89.687 26.277 13.737-95.405 53.673 115.192-64.827z"></path>
	<path class="path4" d="M470.292 509.276l-47.009-28.483-245.366 132.222 45.985 34.895 246.39-138.634zM226.186 613.015l194.497-106.843 26.262 16.258-194.938 109.663-25.821-19.078z"></path>
	<path class="path5" d="M777.846 386.9l-48.648-23.3-170.157 95.736 49.089 27.427 169.716-99.864zM581.411 471.089l151.048-86.678 27.144 13.217-150.796 88.757-27.396-15.297z"></path>
	<path class="path6" d="M608.124 486.769l-49.073-27.427-200.767 112.971 21.583 14.462 179.342-102.936 27.38 15.612 21.536-12.682z"></path>
	<path class="path7" d="M407.131 605.077l-48.853-32.768-272.967 153.6 69.27 59.849 186.163-111.884-22.607-16.431 88.993-52.366zM137.504 725.877l216.458-124.251 27.238 18.716-217.151 127.779-26.545-22.244z"></path>
	<path class="path8" d="M957.785 355.684l-73.082-31.697-150.953 88.852 74.5 37.132 149.536-94.287zM756.986 423.756l133.719-80.376 27.916 12.304-133.262 82.219-28.373-14.147z"></path>
	<path class="path9" d="M808.246 449.977l-74.5-37.132-176.947 104.149 22.796 13.375 157.759-94.822 28.436 14.431-157.507 97.154 23.773 13.942 176.191-111.096z"></path>
	<path class="path10" d="M632.062 561.076l-75.256-44.079-238.671 140.446 74.784 54.398 239.143-150.764zM368.027 657.506l188.952-113.569 28.719 17.14-189.141 116.673-28.53-20.244z"></path>
</symbol>
<symbol id="icon-duoconnect" viewBox="0 0 1024 1024">
	<title>duoconnect</title>
	<path class="path1" d="M143.223 140.669h-17.849v82.471h18.274c7.152 0 12.698-0.536 16.652-1.623s7.247-2.458 9.893-4.128c2.647-1.67 5.057-3.718 7.247-6.16 7.058-7.924 10.571-17.959 10.571-30.074 0-11.91-3.608-21.614-10.854-29.145-2.662-2.788-5.719-5.104-9.184-6.9-3.45-1.796-6.711-2.977-9.815-3.576-3.104-0.567-8.066-0.866-14.935-0.866zM111.069 237.272v-110.718h33.65c13.58 0 24.324 2.253 32.232 6.774s14.194 11.185 18.857 19.96c4.663 8.791 6.995 18.369 6.995 28.735 0 7.42-1.276 14.494-3.844 21.283-2.584 6.774-6.254 12.713-11.012 17.849-4.852 5.293-10.508 9.295-16.935 11.989-3.765 1.638-7.2 2.741-10.35 3.293s-9.153 0.835-18.007 0.835h-31.586z"></path>
	<path class="path2" d="M260.739 237.431v-9.374c-2.757 3.356-5.908 5.971-9.452 7.845-3.56 1.859-7.089 2.804-10.618 2.804-4.143 0-7.956-1.166-11.453-3.466-3.513-2.3-6.16-5.419-7.94-9.358-1.796-3.938-2.678-10.492-2.678-19.645v-41.826h12.997v41.606c0 7.672 0.992 13.028 2.962 16.053 1.985 3.040 5.451 4.553 10.398 4.553 6.191 0 11.469-3.356 15.785-10.067v-52.145h13.013v73.019h-13.013z"></path>
	<path class="path3" d="M319.639 177.262c-6.239 0-11.359 2.284-15.36 6.837-4.001 4.537-5.986 10.335-5.986 17.376 0 6.979 2.032 12.682 6.128 17.109 4.096 4.411 9.358 6.617 15.801 6.617 6.365 0 11.595-2.237 15.675-6.711 4.080-4.458 6.097-10.193 6.097-17.187 0-6.916-2.111-12.666-6.349-17.203-4.238-4.553-9.578-6.837-16.006-6.837zM320.348 164.25c10.004 0 18.322 3.576 24.938 10.744 6.617 7.184 9.925 16.179 9.925 27.034 0 10.539-3.356 19.267-10.067 26.23s-15.171 10.445-25.364 10.445c-9.846 0-18.101-3.545-24.718-10.602s-9.925-15.88-9.925-26.466c0-10.697 3.34-19.598 10.035-26.703 6.695-7.136 15.076-10.681 25.175-10.681z"></path>
	<path class="path4" d="M1024 852.338v-680.692c0-135.751-112.293-171.654-171.654-171.654h-680.692c-135.782 0-171.654 112.325-171.654 171.654v680.692c0 135.751 112.246 171.654 171.654 171.654h680.692c135.814 0 171.654-112.293 171.654-171.654zM987.908 171.646v28.010l-446.149 98.651-19.078 45.103c0 0 11.626 43.292 1.859 58.652-9.452 14.809-70.231 22.749-70.231 22.749l24.088 105.803c0 0 82.755 4.773 129.402-17.361 18.621-8.869 38.439-33.918 49.31-50.271 10.224-15.328 16.431-29.334 27.459-30.232 17.219-1.386 40.944 8.381 40.944 8.381s15.801-26.057 26.073-40.913c9.893-14.478 29.192-14.1 56.73-6.081 25.616 7.436 38.928 7.136 45.135 36.297 4.647 21.835 13.044 56.745 13.044 56.745l74.405 79.1 47.009-10.524v296.582c0 5.545-1.607 135.515-135.562 135.515h-680.692c-5.561 0-135.53-1.512-135.53-135.515v-13.391l601.482-0.551 54.603-89.876-0.677-67.017-30.373-18.668c0 0-24.875 26.277-47.703 41.448-24.749 16.51-86.41 38.030-143.785 38.030-49.766 0-150.654-6.932-151.363-46.316v-91.939c0.504-19.346 19.361-30.389 31.082-33.808h47.025l11.075-12.493v-29.050l-27.711-38.707-343.639 0.315v-318.669c0-5.514 1.544-135.499 135.53-135.499h680.692c5.498-0.016 135.546 1.512 135.546 135.499zM482.304 604.31l-30.421-11.043 18.668 105.803 82.282-69.065-30.043-10.933 18.653-51.31-40.503-14.746-18.637 51.295z"></path>
</symbol>
<symbol id="icon-vielstab" viewBox="0 0 1024 1024">
	<title>multi-plank</title>
	<path class="path1" d="M876 296.892l-32.028-13.69-251.857 138.413 10.555 5.671 243.633-135.2 11.043 4.758-109.032 61.125 10.76 5.136 116.925-66.213z"></path>
	<path class="path2" d="M770.431 368.5l-22.118-10.524-134.412 75.335 10.839 5.845 125.29-70.94 11.39 5.451-135.515 77.54 144.526-82.708z"></path>
	<path class="path3" d="M920.37 315.838l-33.162-14.163-250.99 143.628 10.949 5.908 242.767-140.335 11.548 4.962-108.497 63.378 11.075 5.278 116.311-68.655z"></path>
	<path class="path4" d="M815.939 390.153l-22.953-10.933-134.034 78.312 11.169 6.018 124.928-73.728 11.91 5.703-135.089 80.628 144.069-86z"></path>
	<path class="path5" d="M966.401 335.516l-34.343-14.667-249.903 149.157 11.422 6.144 241.68-145.77 11.91 5.136-241.349 147.22 11.658 6.27 248.927-153.49z"></path>
	<path class="path6" d="M624.739 439.162l-10.823-5.845-21.788-11.705-342.268 188.117 21.378 15.722 191.047-107.142 10.854 6.711 151.599-85.858zM273.917 609.729l318.448-176.711 11.232 6.081-318.622 178.617-11.059-7.987z"></path>
	<path class="path7" d="M484.577 532.061l-11.437-7.042-10.854-6.711-397.501 222.854 31.76 28.31 207.51-119.934-10.839-7.971 191.362-109.505zM91.409 741.162l369.9-209.432 11.453 7.105-370.404 211.968-10.949-9.641z"></path>
	<path class="path8" d="M670.123 463.546l-33.902-18.243-343.008 196.261 22.465 16.526 191.677-111.963 11.201 6.884 151.568-89.466zM317.82 641.564l319.078-184.399 11.752 6.38-319.157 186.478-11.674-8.46z"></path>
	<path class="path9" d="M530.615 560.462l-12.052-7.452-11.217-6.884-399.518 233.409 33.382 29.759 208.864-125.936-11.359-8.365 191.898-114.53zM135.004 779.44l371.696-219.404 12.067 7.499-372.153 222.098-11.611-10.193z"></path>
	<path class="path10" d="M717.477 489.007l-35.32-18.999-343.434 204.973 11.343 8.365 23.82 17.487 343.591-211.826zM363.914 674.981l319.378-192.638 12.272 6.664-319.425 194.844-12.225-8.869z"></path>
	<path class="path11" d="M987.908 852.338c0 5.593-1.544 135.546-135.546 135.546h-680.708c-5.561 0-135.53-1.481-135.53-135.546v-680.661c0-5.577 1.56-135.53 135.53-135.53h680.692c5.498 0 135.53 1.497 135.53 135.53v680.661h0.032zM852.362-0.008h-680.708c-135.767 0-171.654 112.309-171.654 171.67v680.676c0 135.814 112.262 171.654 171.654 171.654h680.692c135.814 0 171.654-112.293 171.654-171.654v-680.661c0.032-135.814-112.246-171.685-171.638-171.685z"></path>
</symbol>
<symbol id="icon-proconnect" viewBox="0 0 1024 1024">
	<title>proconnect</title>
	<path class="path1" d="M987.876 852.338c0 5.577-1.512 135.546-135.515 135.546h-680.708c-5.561 0-135.515-1.481-135.515-135.546v-680.661c0-5.593 1.544-135.546 135.515-135.546h680.676c5.514 0 135.546 1.497 135.546 135.546v680.661zM852.362-0.008h-680.708c-135.767 0-171.654 112.293-171.654 171.67v680.645c0 135.83 112.262 171.685 171.654 171.685h680.676c135.83 0 171.67-112.309 171.67-171.685v-680.629c0-135.814-112.278-171.685-171.638-171.685z"></path>
	<path class="path2" d="M153.969 131.877h42.173v13.454h-29.806v26.703c0.977-0.11 1.938-0.158 2.946-0.158 9.2 0 16.762 3.104 22.717 9.342 5.939 6.207 8.901 14.131 8.901 23.773 0 9.925-2.93 18.007-8.806 24.229-5.86 6.223-13.485 9.326-22.812 9.326-7.735 0-15.202-2.064-22.465-6.191v-15.581c6.837 4.947 13.533 7.404 20.070 7.404 5.719 0 10.508-1.843 14.383-5.545 3.875-3.718 5.829-8.271 5.829-13.643 0-5.608-2.111-10.287-6.333-14.037-4.206-3.749-9.468-5.624-15.785-5.624-5.404 0-9.074 0.504-11.012 1.497v-54.949z"></path>
	<path class="path3" d="M271.399 185.476h31.902v44.757c-11.705 5.64-23.3 8.476-34.832 8.476-15.738 0-28.31-5.104-37.715-15.328-9.421-10.193-14.131-22.78-14.131-37.746 0-15.785 4.884-28.908 14.62-39.385 9.767-10.492 21.992-15.738 36.675-15.738 5.356 0 10.429 0.646 15.25 1.938 4.821 1.276 10.886 3.639 18.227 7.073v15.423c-11.327-7.31-22.575-10.98-33.745-10.98-10.382 0-19.141 3.938-26.262 11.8-7.105 7.861-10.681 17.534-10.681 28.956 0 12.004 3.576 21.803 10.681 29.397 7.121 7.625 16.289 11.437 27.49 11.437 5.451 0 11.957-1.386 19.519-4.175l1.292-0.441v-22.008h-18.29v-13.454z"></path>
	<path class="path4" d="M456.94 201.744h547.714v84.078h-547.714v-84.078z"></path>
	<path class="path5" d="M786.708 526h217.939v-213.087l-542.295 0.488v16.226l43.78 12.209 27.443 31.334v25.821c-0.095 2.615-1.859 5.813-4.254 6.286l1.103 0.284-55.879 13.013-12.004 6.884v20.275l53.658 69.459h118.453c1.103 0 3.749-0.284 4.616-0.756l1.402-0.866 5.671-3.025 2.647-1.497c1.323-0.693 2.363-1.323 2.678-2.899l0.268-1.764 4.899-25.332 0.803-4.584c1.166-5.876 6.302-11.217 12.635-11.217h92.9l23.536 23.694v39.054z"></path>
	<path class="path6" d="M786.708 553.124v18.92l36.549 37.825h181.39v-56.745h-217.939z"></path>
	<path class="path7" d="M591.661 607.601v-54.556h-43.103v54.556h-32.374l53.752 93.105 53.721-93.105h-31.996z"></path>
	<path class="path8" d="M23.237 490.937h429.592v87.796h-429.592v-87.796z"></path>
	<path class="path9" d="M298.646 711.231h175.34l20.953-4.931c3.686-1.056 7.373-3.907 7.373-7.625 0-1.764-0.583-5.514-0.945-7.294-0.347-1.67-1.512-4.427-2.867-6.491-1.371-2.111-27.884-34.8-30.106-37.541s-7.625-5.293-15.486-5.293h-154.262v69.175z"></path>
	<path class="path10" d="M749.785 770.938h-77.115c-5.561 0-10.145 1.827-11.075 7.121l-5.23 30.011c-1.071 5.104-6.853 9.405-12.146 9.405h-43.607l-2.71-3.324-110.45 0.551-34.375-44.331v-41.086h-172.473v-105.314h172.237v-18.117h-429.655v229.329h738.603v-52.224l-12.004-12.020z"></path>
	<path class="path11" d="M23.231 904.923h701.661l36.896-38.613v-4.033h-738.556v42.646z"></path>
</symbol>
<symbol id="icon-fliese" viewBox="0 0 1024 1024">
	<title>tile</title>
	<path class="path1" d="M987.876 852.338c0 5.593-1.544 135.546-135.546 135.546h-680.676c-5.577 0-135.53-1.481-135.53-135.546v-680.661c0-5.577 1.56-135.53 135.53-135.53h680.676c5.514 0 135.515 1.497 135.515 135.53v680.661h0.032zM852.33-0.008h-680.676c-135.767 0-171.654 112.309-171.654 171.67v680.676c0 135.814 112.246 171.654 171.654 171.654h680.676c135.83 0 171.67-112.293 171.67-171.654v-680.661c0-135.814-112.278-171.685-171.67-171.685z"></path>
	<path class="path2" d="M829.662 450.3l-226.855-110.797-404.701 212.929 227.060 160.374 404.496-262.506zM244.281 552.432l359.928-192.937 182.871 90.852-359.739 228.305-183.060-126.22z"></path>
</symbol>
<symbol id="icon-v2" viewBox="0 0 1024 1024">
	<title>v2</title>
	<path class="path1" d="M192.23 124.492h16.746l-49.672 118.028h-3.812l-50.633-118.028h16.935l35.32 82.519 35.115-82.519z"></path>
	<path class="path2" d="M244.415 225.77h44.741v16.242h-74.358v-1.182l7.058-8.334c11.059-13.674 19.834-25.285 26.372-34.816 6.538-9.547 10.791-16.746 12.776-21.614 2.001-4.884 2.993-9.704 2.993-14.478 0-6.617-1.875-11.926-5.64-15.927-3.749-4.017-8.743-6.034-14.966-6.034-4.71 0-9.358 1.386-13.911 4.175-4.584 2.773-8.696 6.68-12.335 11.737v-21.362c9.137-7.467 18.558-11.201 28.262-11.201 10.272 0 18.716 3.419 25.364 10.256 6.648 6.853 9.972 15.549 9.972 26.088 0 4.726-0.835 9.752-2.489 15.108s-4.584 11.532-8.775 18.511c-4.206 6.979-11.359 16.494-21.457 28.562l-3.608 4.269z"></path>
	<path class="path3" d="M38.485 880.462l-32.973 20.244c10.287 42.74 34.060 71.79 61.865 90.9l33.209-21.914c-27.711-14.683-54.461-41.322-62.102-89.23z"></path>
	<path class="path4" d="M984.277 104.623l-13.942-5.325c1.812 3.167 3.734 6.254 5.293 9.736l8.649-4.411z"></path>
	<path class="path5" d="M36.131 736.738l-36.124 20.338v95.264c0 4.978 0.441 9.594 0.74 14.304l35.383-21.268v-108.639z"></path>
	<path class="path6" d="M987.846 273.323l36.155-21.709v-70.561l-36.155 20.322v71.948z"></path>
	<path class="path7" d="M36.131 613.97l-36.124 18.731v93.389l36.124-19.929v-92.192z"></path>
	<path class="path8" d="M980.954 123.677c4.254 13.785 6.884 29.523 6.884 48.002v9.452l35.604-19.645c-0.709-16.305-3.040-31.098-6.79-44.473l-13.17-5.041-22.528 11.705z"></path>
	<path class="path9" d="M987.846 518.177l36.155-26.451v-103.251l-36.155 24.418v105.283z"></path>
	<path class="path10" d="M987.846 383.816l36.155-23.851v-84.645l-36.155 22.181v86.315z"></path>
	<path class="path11" d="M36.131 587.877v-101.738l-36.124 17.124v103.046l36.124-18.432z"></path>
	<path class="path12" d="M36.131 171.684c0-5.577 1.544-135.53 135.53-135.53h680.676c4.254 0 82.424 1.166 117.996 63.141l46.316 17.723c-25.6-90.915-113.916-117.020-164.313-117.020h-680.676c-135.767 0-171.654 112.309-171.654 171.67v331.587l36.124-17.109v-314.463z"></path>
	<path class="path13" d="M171.654 987.876c-1.591 0-13.422-0.221-29.318-3.482l-38.896 26.277c24.544 9.547 49.12 13.328 68.214 13.328h190.811l48.065-36.124h-238.876z"></path>
	<path class="path14" d="M1024 526.862l-36.155 27.144v298.331h0.032c0 5.608-1.544 135.546-135.53 135.546h-441.817l-48.065 36.124h489.882c135.814 0 171.654-112.309 171.654-171.67v-325.474z"></path>
	<path class="path15" d="M147.892 454.946l568.541-273.818-18.306-8.476-567.548 268.776 17.313 13.517z"></path>
	<path class="path16" d="M885.169 259.13l102.684-57.754v-20.244l-123.731 68.246 21.047 9.752z"></path>
	<path class="path17" d="M1024 181.054v-9.374c0-3.56-0.394-6.774-0.551-10.193l-35.604 19.645v20.244l36.155-20.322z"></path>
	<path class="path18" d="M778.185 209.67l-245.146 124.944 19.614 11.311 428.3-222.24c-1.591-5.12-3.293-10.13-5.325-14.651l-197.443 100.636z"></path>
	<path class="path19" d="M980.954 123.677l22.528-11.705-19.204-7.341-8.649 4.411c2.032 4.521 3.718 9.531 5.325 14.635z"></path>
	<path class="path20" d="M552.646 345.923l-19.598-11.311-496.924 253.259v26.104l516.521-268.052z"></path>
	<path class="path21" d="M36.131 587.877l-36.124 18.432v26.403l36.124-18.747v-26.088z"></path>
	<path class="path22" d="M290.162 566.031l-254.031 140.13v30.578l274.747-154.561-20.716-16.148z"></path>
	<path class="path23" d="M36.131 706.154l-36.124 19.944v30.972l36.124-20.338v-30.578z"></path>
	<path class="path24" d="M310.877 582.185l574.291-323.048-21.047-9.752-573.96 316.652 20.716 16.148z"></path>
	<path class="path25" d="M864.124 249.385v0z"></path>
	<path class="path26" d="M987.846 383.816v0 0z"></path>
	<path class="path27" d="M987.846 383.816v0z"></path>
	<path class="path28" d="M713.046 438.515l23.268 13.454 251.526-154.466v-24.182l-274.794 165.195z"></path>
	<path class="path29" d="M987.846 297.5l36.155-22.181v-23.71l-36.155 21.709v24.182z"></path>
	<path class="path30" d="M713.046 438.515l-676.911 406.875v6.947c0 10.224 0.961 19.393 2.347 28.121l697.832-428.489-23.268-13.454z"></path>
	<path class="path31" d="M36.131 852.338v-6.947l-35.383 21.252c0.756 12.162 2.253 23.599 4.773 34.060l32.957-20.244c-1.386-8.743-2.347-17.912-2.347-28.121z"></path>
	<path class="path32" d="M483.415 716.893l-382.834 252.802c14.683 7.751 29.397 12.146 41.748 14.698l366.45-247.682-25.364-19.818z"></path>
	<path class="path33" d="M67.378 991.601c11.579 7.971 23.788 14.273 36.061 19.078l38.896-26.277c-12.351-2.552-27.065-6.947-41.748-14.714l-33.209 21.914z"></path>
	<path class="path34" d="M815.446 497.655l-332.028 219.246 25.364 19.803 479.059-323.805v-29.082l-172.394 113.837z"></path>
	<path class="path35" d="M987.846 412.9l36.155-24.418v-28.514l-36.155 23.851v29.082z"></path>
	<path class="path36" d="M483.415 716.893v0 0z"></path>
	<path class="path37" d="M596.215 804.985l28.31 22.087 363.315-273.077v-35.824l-391.625 286.815z"></path>
	<path class="path38" d="M987.846 518.177v35.824l36.155-27.144v-35.131l-36.155 26.451z"></path>
</symbol>
<symbol id="icon-v4" viewBox="0 0 1024 1024">
	<title>v4</title>
	<path class="path1" d="M987.898 398.914v96.193l36.092-26.151v-91.435l-2.489-1.197-33.603 22.591z"></path>
	<path class="path2" d="M987.898 200.033v67.096l36.092-21.677v-65.772l-36.092 20.354z"></path>
	<path class="path3" d="M171.67 987.876c-2.174 0-23.221-0.315-48.065-8.491l-36.013 24.182c29.538 14.809 60.826 20.433 84.078 20.433h150.528l48.632-36.124h-199.16z"></path>
	<path class="path4" d="M987.892 529.63v322.702h0.032c0 5.608-1.544 135.546-135.562 135.546h-481.532l-48.632 36.124h530.148c135.83 0 171.654-112.309 171.654-171.67v-349.562l-36.108 26.86z"></path>
	<path class="path5" d="M1024 346.785v-78.171l-36.108 22.134v79.73l36.108-23.694z"></path>
	<path class="path6" d="M36.138 736.308l-36.139 20.37v95.657c0 2.521 0.315 4.773 0.378 7.231l35.761-21.441v-101.817z"></path>
	<path class="path7" d="M36.138 619.077l-36.139 18.826v87.969l36.139-19.96v-86.835z"></path>
	<path class="path8" d="M987.892 529.6v0.032l36.108-26.876-36.108 26.845z"></path>
	<path class="path9" d="M24.146 946.093l31.791 35.903 31.287-20.543c-23.93-16.652-44.772-43.859-49.798-88.253l-33.319 20.433c4.033 20.275 11.012 37.636 20.039 52.46z"></path>
	<path class="path10" d="M36.138 592.984v-97.579l-36.139 17.219v98.887l36.139-18.527z"></path>
	<path class="path11" d="M987.892 180l35.525-19.629c-0.331-6.254-0.756-12.367-1.544-18.164l-39.747-15.25c3.671 12.981 5.766 27.774 5.766 44.725v8.318z"></path>
	<path class="path12" d="M36.138 171.684c0-5.577 1.544-135.53 135.53-135.53h680.676c4.521 0 93.105 1.182 124.518 76.044l42.709 16.163c-21.094-100.226-114.72-128.362-167.196-128.362h-680.708c-135.782 0-171.67 112.309-171.67 171.67v340.96l36.139-17.235v-323.71z"></path>
	<path class="path13" d="M976.861 112.193v0z"></path>
	<path class="path14" d="M670.677 210.107l58.746 27.837 17.881-9.169-77.084-35.935-571.455 272.668 73.24 57.911 28.609-14.667-56.225-43.244 526.289-255.401z"></path>
	<path class="path15" d="M851.031 277.139l136.869-77.099v-20.039l-157.964 87.292 21.094 9.846z"></path>
	<path class="path16" d="M747.307 228.777l-235.835 120.785 19.708 11.374 449.631-234.48 1.308 0.504c-1.449-5.262-3.308-10.082-5.262-14.761l-1.087-0.41-228.462 116.988z"></path>
	<path class="path17" d="M976.861 112.193c1.953 4.679 3.797 9.5 5.262 14.761l39.747 15.25c-0.646-4.742-1.355-9.389-2.3-13.848z"></path>
	<path class="path18" d="M1023.416 160.377l-35.525 19.629v20.039l36.108-20.354v-8.003c0-3.954-0.394-7.53-0.583-11.311z"></path>
	<path class="path19" d="M729.416 237.938v0z"></path>
	<path class="path20" d="M508.953 372.523l63.173 37.211-535.993 296.172v30.405l236.576-133.293-20.716-16.368 342.41-189.219-82.928-47.876-475.341 243.428v26.088l472.82-246.548z"></path>
	<path class="path21" d="M36.138 592.984l-36.139 18.527v26.403l36.139-18.842v-26.088z"></path>
	<path class="path22" d="M36.138 705.908l-36.139 19.976v30.799l36.139-20.37v-30.405z"></path>
	<path class="path23" d="M200.608 508.753v0 0z"></path>
	<path class="path24" d="M475.3 574.647v0z"></path>
	<path class="path25" d="M851.031 277.139l-21.094-9.846-577.93 319.346 87.717 69.333 29.349-17.597-67.253-51.751 531.488-299.481 67.71 32.091 17.629-10.587-67.616-31.508z"></path>
	<path class="path26" d="M987.892 370.477v0z"></path>
	<path class="path27" d="M987.892 267.124l-303.655 182.177 23.111 13.359 280.544-171.906v-23.631z"></path>
	<path class="path28" d="M987.892 370.485l26.325-17.282 9.783 4.569v-10.98l-36.108 23.694z"></path>
	<path class="path29" d="M987.892 290.747l36.108-22.134v-23.158l-36.108 21.662v23.631z"></path>
	<path class="path30" d="M436.369 732.37l345.498-226.714-97.642-56.352-648.082 388.821v14.21c0 7.42 0.536 14.257 1.292 20.858l647.672-396.902 74.563 43.922-672.453 441.234c11.957 8.334 24.56 14.068 36.376 17.944l338.046-227.044-25.269-19.976z"></path>
	<path class="path31" d="M37.431 873.199c-0.756-6.617-1.292-13.454-1.292-20.858v-14.226l-35.761 21.457c0.378 12.146 1.623 23.536 3.734 34.060l33.319-20.433z"></path>
	<path class="path32" d="M87.593 1003.569l36.013-24.182c-11.831-3.875-24.434-9.61-36.376-17.944l-31.303 20.559z"></path>
	<path class="path33" d="M369.076 638.369v0z"></path>
	<path class="path34" d="M680.308 451.639v0z"></path>
	<path class="path35" d="M680.308 451.639l-18.353 11.028 18.353-11.028z"></path>
	<path class="path36" d="M573.153 795.353l-81.825-62.952 496.561-333.493v-28.42l-551.526 361.882 134.916 106.638 416.61-309.406v-34.501l-414.736 300.253z"></path>
	<path class="path37" d="M987.892 495.107v34.485l36.108-26.829v-33.808l-36.108 26.151z"></path>
	<path class="path38" d="M987.892 370.485v28.42l33.619-22.575 2.489 1.182v-19.74l-9.783-4.569-26.325 17.282z"></path>
	<path class="path39" d="M191.453 128.777h16.746l-49.672 118.012h-3.812l-50.633-118.012h16.92l35.336 82.519 35.115-82.519z"></path>
	<path class="path40" d="M259.77 193.208v-34.060l-27.191 34.060h27.191zM269.285 127.263h6.9v65.946h13.123v14.304h-13.123v38.786h-16.416v-38.786h-49.703v-7.231l59.219-73.019z"></path>
</symbol>
</defs>
</svg>
